NimbusSanL-BoldItal.ufo
<glyph name="exclam" format="1">
  <advance width="333"/>
  <unicode hex="0021"/>
  <outline>
    <contour>
      <point x="417" y="726" type="line"/>
      <point x="372" y="516" type="line"/>
      <point x="265" y="207" type="line"/>
      <point x="198" y="207" type="line"/>
      <point x="222" y="516" type="line"/>
      <point x="267" y="726" type="line"/>
    </contour>
    <contour>
      <point x="293" y="146" type="line"/>
      <point x="262" y="0" type="line"/>
      <point x="112" y="0" type="line"/>
      <point x="143" y="146" type="line"/>
    </contour>
  </outline>
</glyph>
<glyph name="numbersign" format="1">
  <advance width="556"/>
  <unicode hex="0023"/>
  <outline>
    <contour>
      <point x="138" y="-32" type="line"/>
      <point x="33" y="-32" type="line"/>
      <point x="116" y="172" type="line"/>
      <point x="39" y="172" type="line"/>
      <point x="60" y="272" type="line"/>
      <point x="157" y="272" type="line"/>
      <point x="219" y="424" type="line"/>
      <point x="120" y="424" type="line"/>
      <point x="142" y="524" type="line"/>
      <point x="260" y="524" type="line"/>
      <point x="331" y="697" type="line"/>
      <point x="437" y="697" type="line"/>
      <point x="365" y="524" type="line"/>
      <point x="468" y="524" type="line"/>
      <point x="539" y="697" type="line"/>
      <point x="645" y="697" type="line"/>
      <point x="573" y="524" type="line"/>
      <point x="660" y="524" type="line"/>
      <point x="639" y="424" type="line"/>
      <point x="533" y="424" type="line"/>
      <point x="471" y="272" type="line"/>
      <point x="570" y="272" type="line"/>
      <point x="549" y="172" type="line"/>
      <point x="430" y="172" type="line"/>
      <point x="346" y="-32" type="line"/>
      <point x="241" y="-32" type="line"/>
      <point x="324" y="172" type="line"/>
      <point x="222" y="172" type="line"/>
    </contour>
    <contour>
      <point x="262" y="272" type="line"/>
      <point x="365" y="272" type="line"/>
      <point x="427" y="424" type="line"/>
      <point x="325" y="424" type="line"/>
    </contour>
  </outline>
</glyph>
<glyph name="quotesingle" format="1">
  <advance width="238"/>
  <unicode hex="0027"/>
  <outline>
    <contour>
      <point x="343" y="729" type="line"/>
      <point x="315" y="599" type="line"/>
      <point x="245" y="470" type="line"/>
      <point x="190" y="470" type="line"/>
      <point x="177" y="599" type="line"/>
      <point x="205" y="729" type="line"/>
    </contour>
  </outline>
</glyph>
<glyph name="parenleft" format="1">
  <advance width="333"/>
  <unicode hex="0028"/>
  <outline>
    <contour>
      <point x="358" y="729" type="curve"/>
      <point x="458" y="729" type="line"/>
      <point x="387" y="632"/>
      <point x="351" y="577"/>
      <point x="315" y="513" type="curve" smooth="yes"/>
      <point x="240" y="377"/>
      <point x="203" y="245"/>
      <point x="203" y="112" type="curve" smooth="yes"/>
      <point x="203" y="20"/>
      <point x="217" y="-56"/>
      <point x="261" y="-200" type="curve"/>
      <point x="161" y="-200" type="line"/>
      <point x="110" y="-83"/>
      <point x="84" y="25"/>
      <point x="84" y="122" type="curve" smooth="yes"/>
      <point x="84" y="324"/>
      <point x="168" y="510"/>
    </contour>
  </outline>
</glyph>
<glyph name="parenright" format="1">
  <advance width="333"/>
  <unicode hex="0029"/>
  <outline>
    <contour>
      <point x="79" y="-200" type="curve"/>
      <point x="-21" y="-200" type="line"/>
      <point x="56" y="-96"/>
      <point x="88" y="-48"/>
      <point x="124" y="16" type="curve" smooth="yes"/>
      <point x="200" y="152"/>
      <point x="237" y="284"/>
      <point x="237" y="416" type="curve" smooth="yes"/>
      <point x="237" y="509"/>
      <point x="223" y="582"/>
      <point x="176" y="729" type="curve"/>
      <point x="276" y="729" type="line"/>
      <point x="331" y="608"/>
      <point x="356" y="504"/>
      <point x="356" y="406" type="curve" smooth="yes"/>
      <point x="356" y="268"/>
      <point x="310" y="123"/>
      <point x="226" y="-9" type="curve" smooth="yes"/>
      <point x="190" y="-64"/>
      <point x="136" y="-135"/>
    </contour>
  </outline>
</glyph>
<glyph name="plus" format="1">
  <advance width="584"/>
  <unicode hex="002B"/>
  <outline>
    <contour>
      <point x="596" y="292" type="line"/>
      <point x="571" y="172" type="line"/>
      <point x="388" y="172" type="line"/>
      <point x="349" y="-10" type="line"/>
      <point x="230" y="-10" type="line"/>
      <point x="269" y="172" type="line"/>
      <point x="87" y="172" type="line"/>
      <point x="112" y="292" type="line"/>
      <point x="294" y="292" type="line"/>
      <point x="333" y="473" type="line"/>
      <point x="452" y="473" type="line"/>
      <point x="413" y="292" type="line"/>
    </contour>
  </outline>
</glyph>
<glyph name="comma" format="1">
  <advance width="278"/>
  <unicode hex="002C"/>
  <outline>
    <contour>
      <point x="95" y="146" type="line"/>
      <point x="245" y="146" type="line"/>
      <point x="216" y="9" type="line"/>
      <point x="197" y="-101"/>
      <point x="137" y="-158"/>
      <point x="27" y="-174" type="curve"/>
      <point x="39" y="-118" type="line"/>
      <point x="101" y="-107"/>
      <point x="137" y="-68"/>
      <point x="150" y="0" type="curve"/>
      <point x="64" y="0" type="line"/>
    </contour>
  </outline>
</glyph>
<glyph name="one" format="1">
  <advance width="556"/>
  <unicode hex="0031"/>
  <outline>
    <contour>
      <point x="342" y="489" type="line"/>
      <point x="172" y="489" type="line"/>
      <point x="192" y="582" type="line"/>
      <point x="314" y="582"/>
      <point x="396" y="625"/>
      <point x="436" y="709" type="curve"/>
      <point x="529" y="709" type="line"/>
      <point x="378" y="0" type="line"/>
      <point x="238" y="0" type="line"/>
    </contour>
  </outline>
</glyph>
<glyph name="four" format="1">
  <advance width="556"/>
  <unicode hex="0034"/>
  <outline>
    <contour>
      <point x="580" y="273" type="line"/>
      <point x="555" y="157" type="line"/>
      <point x="482" y="157" type="line"/>
      <point x="448" y="0" type="line"/>
      <point x="308" y="0" type="line"/>
      <point x="342" y="157" type="line"/>
      <point x="57" y="157" type="line"/>
      <point x="82" y="275" type="line"/>
      <point x="434" y="709" type="line"/>
      <point x="599" y="709" type="line"/>
      <point x="506" y="273" type="line"/>
    </contour>
    <contour>
      <point x="366" y="273" type="line"/>
      <point x="431" y="577" type="line"/>
      <point x="182" y="273" type="line"/>
    </contour>
  </outline>
</glyph>
<glyph name="five" format="1">
  <advance width="556"/>
  <unicode hex="0035"/>
  <outline>
    <contour>
      <point x="641" y="709" type="line"/>
      <point x="614" y="584" type="line"/>
      <point x="318" y="584" type="line"/>
      <point x="264" y="436" type="line"/>
      <point x="311" y="467"/>
      <point x="349" y="479"/>
      <point x="396" y="479" type="curve" smooth="yes"/>
      <point x="505" y="479"/>
      <point x="572" y="410"/>
      <point x="572" y="300" type="curve" smooth="yes"/>
      <point x="572" y="231"/>
      <point x="548" y="158"/>
      <point x="506" y="101" type="curve" smooth="yes"/>
      <point x="448" y="21"/>
      <point x="360" y="-23"/>
      <point x="259" y="-23" type="curve" smooth="yes"/>
      <point x="139" y="-23"/>
      <point x="59" y="42"/>
      <point x="59" y="141" type="curve" smooth="yes"/>
      <point x="59" y="154"/>
      <point x="60" y="165"/>
      <point x="64" y="185" type="curve"/>
      <point x="202" y="185" type="line"/>
      <point x="201" y="176"/>
      <point x="200" y="168"/>
      <point x="200" y="163" type="curve" smooth="yes"/>
      <point x="200" y="124"/>
      <point x="235" y="99"/>
      <point x="288" y="99" type="curve" smooth="yes"/>
      <point x="369" y="99"/>
      <point x="429" y="175"/>
      <point x="429" y="276" type="curve" smooth="yes"/>
      <point x="429" y="334"/>
      <point x="397" y="367"/>
      <point x="339" y="367" type="curve" smooth="yes"/>
      <point x="297" y="367"/>
      <point x="260" y="348"/>
      <point x="238" y="314" type="curve"/>
      <point x="112" y="314" type="line"/>
      <point x="258" y="709" type="line"/>
    </contour>
  </outline>
</glyph>
<glyph name="seven" format="1">
  <advance width="556"/>
  <unicode hex="0037"/>
  <outline>
    <contour>
      <point x="679" y="709" type="line"/>
      <point x="656" y="599" type="line"/>
      <point x="551" y="491" type="line"/>
      <point x="404" y="328"/>
      <point x="326" y="191"/>
      <point x="273" y="0" type="curve"/>
      <point x="131" y="0" type="line"/>
      <point x="211" y="242"/>
      <point x="309" y="396"/>
      <point x="504" y="584" type="curve"/>
      <point x="151" y="584" type="line"/>
      <point x="178" y="709" type="line"/>
    </contour>
  </outline>
</glyph>
<glyph name="colon" format="1">
  <advance width="333"/>
  <unicode hex="003A"/>
  <outline>
    <contour>
      <point x="294" y="146" type="line"/>
      <point x="263" y="0" type="line"/>
      <point x="113" y="0" type="line"/>
      <point x="144" y="146" type="line"/>
    </contour>
    <contour>
      <point x="374" y="520" type="line"/>
      <point x="343" y="374" type="line"/>
      <point x="193" y="374" type="line"/>
      <point x="224" y="520" type="line"/>
    </contour>
  </outline>
</glyph>
<glyph name="semicolon" format="1">
  <advance width="333"/>
  <unicode hex="003B"/>
  <outline>
    <contour>
      <point x="144" y="146" type="line"/>
      <point x="294" y="146" type="line"/>
      <point x="265" y="9" type="line"/>
      <point x="246" y="-101"/>
      <point x="186" y="-158"/>
      <point x="76" y="-174" type="curve"/>
      <point x="88" y="-118" type="line"/>
      <point x="150" y="-107"/>
      <point x="186" y="-68"/>
      <point x="199" y="0" type="curve"/>
      <point x="113" y="0" type="line"/>
    </contour>
    <contour>
      <point x="374" y="520" type="line"/>
      <point x="343" y="374" type="line"/>
      <point x="193" y="374" type="line"/>
      <point x="224" y="520" type="line"/>
    </contour>
  </outline>
</glyph>
<glyph name="less" format="1">
  <advance width="584"/>
  <unicode hex="003C"/>
  <outline>
    <contour>
      <point x="630" y="474" type="line"/>
      <point x="603" y="345" type="line"/>
      <point x="263" y="232" type="line"/>
      <point x="555" y="121" type="line"/>
      <point x="527" y="-10" type="line"/>
      <point x="77" y="172" type="line"/>
      <point x="103" y="293" type="line"/>
    </contour>
  </outline>
</glyph>
<glyph name="equal" format="1">
  <advance width="584"/>
  <unicode hex="003D"/>
  <outline>
    <contour>
      <point x="622" y="412" type="line"/>
      <point x="597" y="292" type="line"/>
      <point x="112" y="292" type="line"/>
      <point x="137" y="412" type="line"/>
    </contour>
    <contour>
      <point x="571" y="172" type="line"/>
      <point x="546" y="52" type="line"/>
      <point x="61" y="52" type="line"/>
      <point x="86" y="172" type="line"/>
    </contour>
  </outline>
</glyph>
<glyph name="greater" format="1">
  <advance width="584"/>
  <unicode hex="003E"/>
  <outline>
    <contour>
      <point x="38" y="-10" type="line"/>
      <point x="65" y="119" type="line"/>
      <point x="405" y="232" type="line"/>
      <point x="113" y="343" type="line"/>
      <point x="141" y="474" type="line"/>
      <point x="591" y="292" type="line"/>
      <point x="565" y="171" type="line"/>
    </contour>
  </outline>
</glyph>
<glyph name="question" format="1">
  <advance width="611"/>
  <unicode hex="003F"/>
  <outline>
    <contour>
      <point x="414" y="201" type="curve"/>
      <point x="292" y="201" type="line"/>
      <point x="299" y="277"/>
      <point x="338" y="333"/>
      <point x="432" y="399" type="curve" smooth="yes"/>
      <point x="488" y="438"/>
      <point x="497" y="447"/>
      <point x="512" y="473" type="curve" smooth="yes"/>
      <point x="523" y="492"/>
      <point x="529" y="513"/>
      <point x="529" y="533" type="curve" smooth="yes"/>
      <point x="529" y="584"/>
      <point x="491" y="620"/>
      <point x="438" y="620" type="curve" smooth="yes"/>
      <point x="370" y="620"/>
      <point x="321" y="569"/>
      <point x="304" y="481" type="curve"/>
      <point x="168" y="481" type="line"/>
      <point x="187" y="565"/>
      <point x="209" y="614"/>
      <point x="248" y="657" type="curve" smooth="yes"/>
      <point x="301" y="714"/>
      <point x="372" y="744"/>
      <point x="456" y="744" type="curve" smooth="yes"/>
      <point x="520" y="744"/>
      <point x="574" y="729"/>
      <point x="609" y="700" type="curve"/>
      <point x="649" y="669"/>
      <point x="672" y="618"/>
      <point x="672" y="566" type="curve" smooth="yes"/>
      <point x="672" y="512"/>
      <point x="652" y="452"/>
      <point x="621" y="413" type="curve"/>
      <point x="601" y="386"/>
      <point x="564" y="356"/>
      <point x="505" y="320" type="curve" smooth="yes"/>
      <point x="437" y="278"/>
      <point x="428" y="267"/>
    </contour>
    <contour>
      <point x="418" y="146" type="line"/>
      <point x="387" y="0" type="line"/>
      <point x="237" y="0" type="line"/>
      <point x="268" y="146" type="line"/>
    </contour>
  </outline>
</glyph>
<glyph name="D" format="1">
  <advance width="722"/>
  <unicode hex="0044"/>
  <outline>
    <contour>
      <point x="77" y="0" type="line"/>
      <point x="232" y="729" type="line"/>
      <point x="517" y="729" type="line" smooth="yes"/>
      <point x="698" y="729"/>
      <point x="776" y="654"/>
      <point x="776" y="479" type="curve" smooth="yes"/>
      <point x="776" y="361"/>
      <point x="735" y="238"/>
      <point x="664" y="140" type="curve" smooth="yes"/>
      <point x="591" y="39"/>
      <point x="507" y="0"/>
      <point x="362" y="0" type="curve" smooth="yes"/>
    </contour>
    <contour>
      <point x="254" y="125" type="line"/>
      <point x="388" y="125" type="line" smooth="yes"/>
      <point x="475" y="125"/>
      <point x="524" y="153"/>
      <point x="567" y="228" type="curve" smooth="yes"/>
      <point x="601" y="287"/>
      <point x="627" y="390"/>
      <point x="627" y="469" type="curve" smooth="yes"/>
      <point x="627" y="560"/>
      <point x="582" y="604"/>
      <point x="490" y="604" type="curve" smooth="yes"/>
      <point x="355" y="604" type="line"/>
    </contour>
  </outline>
</glyph>
<glyph name="F" format="1">
  <advance width="611"/>
  <unicode hex="0046"/>
  <outline>
    <contour>
      <point x="291" y="314" type="line"/>
      <point x="224" y="0" type="line"/>
      <point x="74" y="0" type="line"/>
      <point x="229" y="729" type="line"/>
      <point x="741" y="729" type="line"/>
      <point x="714" y="604" type="line"/>
      <point x="352" y="604" type="line"/>
      <point x="317" y="439" type="line"/>
      <point x="637" y="439" type="line"/>
      <point x="610" y="314" type="line"/>
    </contour>
  </outline>
</glyph>
<glyph name="H" format="1">
  <advance width="722"/>
  <unicode hex="0048"/>
  <outline>
    <contour>
      <point x="577" y="331" type="line"/>
      <point x="288" y="331" type="line"/>
      <point x="218" y="0" type="line"/>
      <point x="68" y="0" type="line"/>
      <point x="223" y="729" type="line"/>
      <point x="373" y="729" type="line"/>
      <point x="315" y="456" type="line"/>
      <point x="603" y="456" type="line"/>
      <point x="661" y="729" type="line"/>
      <point x="812" y="729" type="line"/>
      <point x="657" y="0" type="line"/>
      <point x="507" y="0" type="line"/>
    </contour>
  </outline>
</glyph>
<glyph name="I" format="1">
  <advance width="278"/>
  <unicode hex="0049"/>
  <outline>
    <contour>
      <point x="368" y="729" type="line"/>
      <point x="213" y="0" type="line"/>
      <point x="63" y="0" type="line"/>
      <point x="218" y="729" type="line"/>
    </contour>
  </outline>
</glyph>
<glyph name="J" format="1">
  <advance width="556"/>
  <unicode hex="004A"/>
  <outline>
    <contour>
      <point x="491" y="729" type="line"/>
      <point x="641" y="729" type="line"/>
      <point x="526" y="190" type="line" smooth="yes"/>
      <point x="510" y="114"/>
      <point x="475" y="55"/>
      <point x="426" y="23" type="curve" smooth="yes"/>
      <point x="383" y="-5"/>
      <point x="313" y="-23"/>
      <point x="247" y="-23" type="curve" smooth="yes"/>
      <point x="130" y="-23"/>
      <point x="59" y="36"/>
      <point x="59" y="133" type="curve" smooth="yes"/>
      <point x="59" y="154"/>
      <point x="61" y="176"/>
      <point x="66" y="198" type="curve" smooth="yes"/>
      <point x="81" y="270" type="line"/>
      <point x="231" y="270" type="line"/>
      <point x="215" y="193" type="line" smooth="yes"/>
      <point x="212" y="180"/>
      <point x="211" y="169"/>
      <point x="211" y="159" type="curve" smooth="yes"/>
      <point x="211" y="127"/>
      <point x="238" y="105"/>
      <point x="277" y="105" type="curve" smooth="yes"/>
      <point x="330" y="105"/>
      <point x="365" y="135"/>
      <point x="376" y="190" type="curve" smooth="yes"/>
    </contour>
  </outline>
</glyph>
<glyph name="K" format="1">
  <advance width="722"/>
  <unicode hex="004B"/>
  <outline>
    <contour>
      <point x="274" y="234" type="line"/>
      <point x="224" y="0" type="line"/>
      <point x="74" y="0" type="line"/>
      <point x="229" y="729" type="line"/>
      <point x="379" y="729" type="line"/>
      <point x="311" y="409" type="line"/>
      <point x="665" y="729" type="line"/>
      <point x="843" y="729" type="line"/>
      <point x="482" y="410" type="line"/>
      <point x="717" y="0" type="line"/>
      <point x="538" y="0" type="line"/>
      <point x="365" y="314" type="line"/>
    </contour>
  </outline>
</glyph>
<glyph name="L" format="1">
  <advance width="611"/>
  <unicode hex="004C"/>
  <outline>
    <contour>
      <point x="385" y="729" type="line"/>
      <point x="257" y="125" type="line"/>
      <point x="606" y="125" type="line"/>
      <point x="579" y="0" type="line"/>
      <point x="80" y="0" type="line"/>
      <point x="235" y="729" type="line"/>
    </contour>
  </outline>
</glyph>
<glyph name="M" format="1">
  <advance width="833"/>
  <unicode hex="004D"/>
  <outline>
    <contour>
      <point x="497" y="0" type="line"/>
      <point x="347" y="0" type="line"/>
      <point x="340" y="619" type="line"/>
      <point x="208" y="0" type="line"/>
      <point x="66" y="0" type="line"/>
      <point x="221" y="729" type="line"/>
      <point x="438" y="729" type="line"/>
      <point x="458" y="169" type="line"/>
      <point x="712" y="729" type="line"/>
      <point x="931" y="729" type="line"/>
      <point x="776" y="0" type="line"/>
      <point x="634" y="0" type="line"/>
      <point x="766" y="619" type="line"/>
    </contour>
  </outline>
</glyph>
<glyph name="N" format="1">
  <advance width="722"/>
  <unicode hex="004E"/>
  <outline>
    <contour>
      <point x="816" y="729" type="line"/>
      <point x="661" y="0" type="line"/>
      <point x="513" y="0" type="line"/>
      <point x="321" y="523" type="line"/>
      <point x="210" y="0" type="line"/>
      <point x="68" y="0" type="line"/>
      <point x="223" y="729" type="line"/>
      <point x="373" y="729" type="line"/>
      <point x="565" y="214" type="line"/>
      <point x="674" y="729" type="line"/>
    </contour>
  </outline>
</glyph>
<glyph name="P" format="1">
  <advance width="667"/>
  <unicode hex="0050"/>
  <outline>
    <contour>
      <point x="281" y="260" type="line"/>
      <point x="226" y="0" type="line"/>
      <point x="76" y="0" type="line"/>
      <point x="231" y="729" type="line"/>
      <point x="539" y="729" type="line" smooth="yes"/>
      <point x="606" y="729"/>
      <point x="647" y="718"/>
      <point x="683" y="690" type="curve" smooth="yes"/>
      <point x="724" y="659"/>
      <point x="747" y="612"/>
      <point x="747" y="560" type="curve" smooth="yes"/>
      <point x="747" y="483"/>
      <point x="712" y="398"/>
      <point x="658" y="341" type="curve" smooth="yes"/>
      <point x="605" y="284"/>
      <point x="547" y="260"/>
      <point x="468" y="260" type="curve" smooth="yes"/>
    </contour>
    <contour>
      <point x="308" y="385" type="line"/>
      <point x="461" y="385" type="line" smooth="yes"/>
      <point x="514" y="385"/>
      <point x="548" y="401"/>
      <point x="572" y="436" type="curve" smooth="yes"/>
      <point x="587" y="457"/>
      <point x="598" y="496"/>
      <point x="598" y="525" type="curve" smooth="yes"/>
      <point x="598" y="572"/>
      <point x="562" y="604"/>
      <point x="508" y="604" type="curve" smooth="yes"/>
      <point x="354" y="604" type="line"/>
    </contour>
  </outline>
</glyph>
<glyph name="Q" format="1">
  <advance width="778"/>
  <unicode hex="0051"/>
  <outline>
    <contour>
      <point x="686" y="103" type="curve"/>
      <point x="750" y="27" type="line"/>
      <point x="657" y="-54" type="line"/>
      <point x="588" y="27" type="line"/>
      <point x="527" y="-7"/>
      <point x="468" y="-23"/>
      <point x="397" y="-23" type="curve" smooth="yes"/>
      <point x="220" y="-23"/>
      <point x="109" y="87"/>
      <point x="109" y="262" type="curve" smooth="yes"/>
      <point x="109" y="378"/>
      <point x="156" y="504"/>
      <point x="232" y="594" type="curve"/>
      <point x="315" y="694"/>
      <point x="414" y="741"/>
      <point x="538" y="741" type="curve" smooth="yes"/>
      <point x="721" y="741"/>
      <point x="831" y="632"/>
      <point x="831" y="453" type="curve" smooth="yes"/>
      <point x="831" y="330"/>
      <point x="771" y="185"/>
    </contour>
    <contour>
      <point x="539" y="278" type="line"/>
      <point x="604" y="200" type="line"/>
      <point x="650" y="258"/>
      <point x="682" y="354"/>
      <point x="682" y="436" type="curve" smooth="yes"/>
      <point x="682" y="547"/>
      <point x="621" y="613"/>
      <point x="518" y="613" type="curve" smooth="yes"/>
      <point x="442" y="613"/>
      <point x="379" y="578"/>
      <point x="329" y="508" type="curve" smooth="yes"/>
      <point x="285" y="447"/>
      <point x="258" y="361"/>
      <point x="258" y="282" type="curve" smooth="yes"/>
      <point x="258" y="173"/>
      <point x="319" y="105"/>
      <point x="418" y="105" type="curve" smooth="yes"/>
      <point x="450" y="105"/>
      <point x="482" y="112"/>
      <point x="507" y="124" type="curve"/>
      <point x="445" y="197" type="line"/>
    </contour>
  </outline>
</glyph>
<glyph name="T" format="1">
  <advance width="611"/>
  <unicode hex="0054"/>
  <outline>
    <contour>
      <point x="514" y="604" type="line"/>
      <point x="385" y="0" type="line"/>
      <point x="235" y="0" type="line"/>
      <point x="364" y="604" type="line"/>
      <point x="142" y="604" type="line"/>
      <point x="169" y="729" type="line"/>
      <point x="753" y="729" type="line"/>
      <point x="726" y="604" type="line"/>
    </contour>
  </outline>
</glyph>
<glyph name="V" format="1">
  <advance width="667"/>
  <unicode hex="0056"/>
  <outline>
    <contour>
      <point x="400" y="0" type="line"/>
      <point x="273" y="0" type="line"/>
      <point x="179" y="729" type="line"/>
      <point x="330" y="729" type="line"/>
      <point x="375" y="180" type="line"/>
      <point x="651" y="729" type="line"/>
      <point x="802" y="729" type="line"/>
    </contour>
  </outline>
</glyph>
<glyph name="W" format="1">
  <advance width="944"/>
  <unicode hex="0057"/>
  <outline>
    <contour>
      <point x="730" y="0" type="line"/>
      <point x="595" y="0" type="line"/>
      <point x="591" y="555" type="line"/>
      <point x="354" y="0" type="line"/>
      <point x="219" y="0" type="line"/>
      <point x="168" y="729" type="line"/>
      <point x="327" y="729" type="line"/>
      <point x="324" y="183" type="line"/>
      <point x="548" y="729" type="line"/>
      <point x="706" y="729" type="line"/>
      <point x="703" y="181" type="line"/>
      <point x="928" y="729" type="line"/>
      <point x="1087" y="729" type="line"/>
    </contour>
  </outline>
</glyph>
<glyph name="X" format="1">
  <advance width="667"/>
  <unicode hex="0058"/>
  <outline>
    <contour>
      <point x="499" y="372" type="line"/>
      <point x="655" y="0" type="line"/>
      <point x="476" y="0" type="line"/>
      <point x="386" y="249" type="line"/>
      <point x="197" y="0" type="line"/>
      <point x="22" y="0" type="line"/>
      <point x="332" y="367" type="line"/>
      <point x="187" y="729" type="line"/>
      <point x="365" y="729" type="line"/>
      <point x="444" y="493" type="line"/>
      <point x="627" y="729" type="line"/>
      <point x="802" y="729" type="line"/>
    </contour>
  </outline>
</glyph>
<glyph name="Y" format="1">
  <advance width="667"/>
  <unicode hex="0059"/>
  <outline>
    <contour>
      <point x="477" y="270" type="line"/>
      <point x="419" y="0" type="line"/>
      <point x="269" y="0" type="line"/>
      <point x="327" y="270" type="line"/>
      <point x="182" y="729" type="line"/>
      <point x="349" y="729" type="line"/>
      <point x="431" y="414" type="line"/>
      <point x="638" y="729" type="line"/>
      <point x="805" y="729" type="line"/>
    </contour>
  </outline>
</glyph>
<glyph name="bracketleft" format="1">
  <advance width="333"/>
  <unicode hex="005B"/>
  <outline>
    <contour>
      <point x="463" y="729" type="line"/>
      <point x="441" y="629" type="line"/>
      <point x="328" y="629" type="line"/>
      <point x="174" y="-100" type="line"/>
      <point x="287" y="-100" type="line"/>
      <point x="266" y="-200" type="line"/>
      <point x="23" y="-200" type="line"/>
      <point x="220" y="729" type="line"/>
    </contour>
  </outline>
</glyph>
<glyph name="bracketright" format="1">
  <advance width="333"/>
  <unicode hex="005D"/>
  <outline>
    <contour>
      <point x="-25" y="-200" type="line"/>
      <point x="-3" y="-100" type="line"/>
      <point x="110" y="-100" type="line"/>
      <point x="264" y="629" type="line"/>
      <point x="151" y="629" type="line"/>
      <point x="172" y="729" type="line"/>
      <point x="415" y="729" type="line"/>
      <point x="218" y="-200" type="line"/>
    </contour>
  </outline>
</glyph>
<glyph name="underscore" format="1">
  <advance width="556"/>
  <unicode hex="005F"/>
  <outline>
    <contour>
      <point x="550" y="-76" type="line"/>
      <point x="535" y="-145" type="line"/>
      <point x="-65" y="-145" type="line"/>
      <point x="-50" y="-76" type="line"/>
    </contour>
  </outline>
</glyph>
<glyph name="grave" format="1">
  <advance width="333"/>
  <unicode hex="0060"/>
  <outline>
    <contour>
      <point x="175" y="757" type="line"/>
      <point x="294" y="757" type="line"/>
      <point x="339" y="607" type="line"/>
      <point x="276" y="607" type="line"/>
    </contour>
  </outline>
</glyph>
<glyph name="b" format="1">
  <advance width="611"/>
  <unicode hex="0062"/>
  <outline>
    <contour>
      <point x="214" y="729" type="line"/>
      <point x="354" y="729" type="line"/>
      <point x="299" y="470" type="line"/>
      <point x="344" y="524"/>
      <point x="397" y="549"/>
      <point x="465" y="549" type="curve" smooth="yes"/>
      <point x="571" y="549"/>
      <point x="640" y="467"/>
      <point x="640" y="342" type="curve" smooth="yes"/>
      <point x="640" y="152"/>
      <point x="497" y="-23"/>
      <point x="343" y="-23" type="curve" smooth="yes"/>
      <point x="276" y="-23"/>
      <point x="233" y="2"/>
      <point x="211" y="55" type="curve"/>
      <point x="199" y="0" type="line"/>
      <point x="59" y="0" type="line"/>
    </contour>
    <contour>
      <point x="409" y="437" type="curve" smooth="yes"/>
      <point x="323" y="437"/>
      <point x="248" y="327"/>
      <point x="248" y="202" type="curve" smooth="yes"/>
      <point x="248" y="134"/>
      <point x="283" y="89"/>
      <point x="336" y="89" type="curve" smooth="yes"/>
      <point x="421" y="89"/>
      <point x="497" y="197"/>
      <point x="497" y="319" type="curve" smooth="yes"/>
      <point x="497" y="392"/>
      <point x="463" y="437"/>
    </contour>
  </outline>
</glyph>
<glyph name="h" format="1">
  <advance width="611"/>
  <unicode hex="0068"/>
  <outline>
    <contour>
      <point x="222" y="729" type="line"/>
      <point x="362" y="729" type="line"/>
      <point x="304" y="458" type="line"/>
      <point x="357" y="521"/>
      <point x="413" y="549"/>
      <point x="484" y="549" type="curve" smooth="yes"/>
      <point x="571" y="549"/>
      <point x="629" y="496"/>
      <point x="629" y="417" type="curve" smooth="yes"/>
      <point x="629" y="399"/>
      <point x="627" y="381"/>
      <point x="623" y="362" type="curve" smooth="yes"/>
      <point x="546" y="0" type="line"/>
      <point x="406" y="0" type="line"/>
      <point x="473" y="313" type="line" smooth="yes"/>
      <point x="477" y="334"/>
      <point x="479" y="348"/>
      <point x="479" y="361" type="curve" smooth="yes"/>
      <point x="479" y="410"/>
      <point x="453" y="437"/>
      <point x="406" y="437" type="curve" smooth="yes"/>
      <point x="342" y="437"/>
      <point x="289" y="385"/>
      <point x="272" y="304" type="curve" smooth="yes"/>
      <point x="207" y="0" type="line"/>
      <point x="67" y="0" type="line"/>
    </contour>
  </outline>
</glyph>
<glyph name="j" format="1">
  <advance width="278"/>
  <unicode hex="006A"/>
  <outline>
    <contour>
      <point x="365" y="729" type="line"/>
      <point x="338" y="604" type="line"/>
      <point x="198" y="604" type="line"/>
      <point x="225" y="729" type="line"/>
    </contour>
    <contour>
      <point x="325" y="540" type="line"/>
      <point x="190" y="-94" type="line" smooth="yes"/>
      <point x="172" y="-181"/>
      <point x="116" y="-218"/>
      <point x="2" y="-218" type="curve" smooth="yes"/>
      <point x="-17" y="-218"/>
      <point x="-29" y="-217"/>
      <point x="-43" y="-213" type="curve"/>
      <point x="-19" y="-102" type="line"/>
      <point x="-15" y="-105"/>
      <point x="-8" y="-106"/>
      <point x="6" y="-106" type="curve" smooth="yes"/>
      <point x="36" y="-106"/>
      <point x="50" y="-94"/>
      <point x="57" y="-62" type="curve" smooth="yes"/>
      <point x="185" y="540" type="line"/>
    </contour>
  </outline>
</glyph>
<glyph name="k" format="1">
  <advance width="556"/>
  <unicode hex="006B"/>
  <outline>
    <contour>
      <point x="354" y="729" type="line"/>
      <point x="269" y="330" type="line"/>
      <point x="492" y="540" type="line"/>
      <point x="651" y="540" type="line"/>
      <point x="419" y="334" type="line"/>
      <point x="548" y="0" type="line"/>
      <point x="384" y="0" type="line"/>
      <point x="305" y="239" type="line"/>
      <point x="237" y="177" type="line"/>
      <point x="199" y="0" type="line"/>
      <point x="59" y="0" type="line"/>
      <point x="214" y="729" type="line"/>
    </contour>
  </outline>
</glyph>
<glyph name="m" format="1">
  <advance width="889"/>
  <unicode hex="006D"/>
  <outline>
    <contour>
      <point x="175" y="540" type="line"/>
      <point x="314" y="540" type="line"/>
      <point x="297" y="459" type="line"/>
      <point x="356" y="524"/>
      <point x="403" y="549"/>
      <point x="468" y="549" type="curve" smooth="yes"/>
      <point x="530" y="549"/>
      <point x="578" y="517"/>
      <point x="592" y="467" type="curve"/>
      <point x="647" y="524"/>
      <point x="701" y="549"/>
      <point x="769" y="549" type="curve" smooth="yes"/>
      <point x="859" y="549"/>
      <point x="911" y="502"/>
      <point x="911" y="423" type="curve" smooth="yes"/>
      <point x="911" y="405"/>
      <point x="909" y="391"/>
      <point x="903" y="362" type="curve" smooth="yes"/>
      <point x="826" y="0" type="line"/>
      <point x="686" y="0" type="line"/>
      <point x="758" y="340" type="line" smooth="yes"/>
      <point x="761" y="354"/>
      <point x="763" y="369"/>
      <point x="763" y="381" type="curve" smooth="yes"/>
      <point x="763" y="417"/>
      <point x="742" y="437"/>
      <point x="705" y="437" type="curve" smooth="yes"/>
      <point x="642" y="437"/>
      <point x="597" y="396"/>
      <point x="582" y="324" type="curve" smooth="yes"/>
      <point x="513" y="0" type="line"/>
      <point x="373" y="0" type="line"/>
      <point x="447" y="346" type="line" smooth="yes"/>
      <point x="449" y="357"/>
      <point x="450" y="367"/>
      <point x="450" y="379" type="curve" smooth="yes"/>
      <point x="450" y="414"/>
      <point x="425" y="437"/>
      <point x="387" y="437" type="curve" smooth="yes"/>
      <point x="329" y="437"/>
      <point x="284" y="394"/>
      <point x="269" y="324" type="curve" smooth="yes"/>
      <point x="200" y="0" type="line"/>
      <point x="60" y="0" type="line"/>
    </contour>
  </outline>
</glyph>
<glyph name="q" format="1">
  <advance width="611"/>
  <unicode hex="0071"/>
  <outline>
    <contour>
      <point x="519" y="540" type="line"/>
      <point x="659" y="540" type="line"/>
      <point x="498" y="-218" type="line"/>
      <point x="358" y="-218" type="line"/>
      <point x="418" y="64" type="line"/>
      <point x="373" y="5"/>
      <point x="316" y="-24"/>
      <point x="248" y="-24" type="curve" smooth="yes"/>
      <point x="142" y="-24"/>
      <point x="72" y="57"/>
      <point x="72" y="180" type="curve" smooth="yes"/>
      <point x="72" y="266"/>
      <point x="102" y="359"/>
      <point x="152" y="430" type="curve" smooth="yes"/>
      <point x="206" y="505"/>
      <point x="286" y="549"/>
      <point x="369" y="549" type="curve" smooth="yes"/>
      <point x="438" y="549"/>
      <point x="482" y="520"/>
      <point x="502" y="460" type="curve"/>
    </contour>
    <contour>
      <point x="377" y="437" type="curve" smooth="yes"/>
      <point x="291" y="437"/>
      <point x="215" y="327"/>
      <point x="215" y="202" type="curve" smooth="yes"/>
      <point x="215" y="133"/>
      <point x="250" y="88"/>
      <point x="304" y="88" type="curve" smooth="yes"/>
      <point x="391" y="88"/>
      <point x="466" y="197"/>
      <point x="466" y="324" type="curve" smooth="yes"/>
      <point x="466" y="393"/>
      <point x="431" y="437"/>
    </contour>
  </outline>
</glyph>
<glyph name="v" format="1">
  <advance width="556"/>
  <unicode hex="0076"/>
  <outline>
    <contour>
      <point x="350" y="0" type="line"/>
      <point x="203" y="0" type="line"/>
      <point x="129" y="540" type="line"/>
      <point x="277" y="540" type="line"/>
      <point x="307" y="145" type="line"/>
      <point x="503" y="540" type="line"/>
      <point x="651" y="540" type="line"/>
    </contour>
  </outline>
</glyph>
<glyph name="w" format="1">
  <advance width="778"/>
  <unicode hex="0077"/>
  <outline>
    <contour>
      <point x="617" y="0" type="line"/>
      <point x="472" y="0" type="line"/>
      <point x="467" y="380" type="line"/>
      <point x="301" y="0" type="line"/>
      <point x="157" y="0" type="line"/>
      <point x="120" y="540" type="line"/>
      <point x="265" y="540" type="line"/>
      <point x="270" y="162" type="line"/>
      <point x="429" y="540" type="line"/>
      <point x="573" y="540" type="line"/>
      <point x="573" y="162" type="line"/>
      <point x="736" y="540" type="line"/>
      <point x="881" y="540" type="line"/>
    </contour>
  </outline>
</glyph>
<glyph name="y" format="1">
  <advance width="556"/>
  <unicode hex="0079"/>
  <outline>
    <contour>
      <point x="509" y="540" type="line"/>
      <point x="653" y="540" type="line"/>
      <point x="295" y="-98" type="line" smooth="yes"/>
      <point x="259" y="-163"/>
      <point x="237" y="-185"/>
      <point x="194" y="-202" type="curve" smooth="yes"/>
      <point x="164" y="-213"/>
      <point x="125" y="-219"/>
      <point x="81" y="-219" type="curve" smooth="yes"/>
      <point x="60" y="-219"/>
      <point x="50" y="-218"/>
      <point x="37" y="-215" type="curve"/>
      <point x="60" y="-106" type="line"/>
      <point x="71" y="-108"/>
      <point x="76" y="-108"/>
      <point x="88" y="-108" type="curve" smooth="yes"/>
      <point x="157" y="-108"/>
      <point x="201" y="-72"/>
      <point x="201" y="-15" type="curve"/>
      <point x="200" y="0" type="line"/>
      <point x="124" y="540" type="line"/>
      <point x="278" y="540" type="line"/>
      <point x="314" y="147" type="line"/>
    </contour>
  </outline>
</glyph>
<glyph name="z" format="1">
  <advance width="500"/>
  <unicode hex="007A"/>
  <outline>
    <contour>
      <point x="575" y="540" type="line"/>
      <point x="551" y="427" type="line"/>
      <point x="219" y="113" type="line"/>
      <point x="493" y="113" type="line"/>
      <point x="469" y="0" type="line"/>
      <point x="21" y="0" type="line"/>
      <point x="45" y="113" type="line"/>
      <point x="379" y="427" type="line"/>
      <point x="130" y="427" type="line"/>
      <point x="154" y="540" type="line"/>
    </contour>
  </outline>
</glyph>
<glyph name="braceleft" format="1">
  <advance width="389"/>
  <unicode hex="007B"/>
  <outline>
    <contour>
      <point x="472" y="729" type="line"/>
      <point x="451" y="630" type="line"/>
      <point x="414" y="630" type="line" smooth="yes"/>
      <point x="377" y="630"/>
      <point x="367" y="620"/>
      <point x="357" y="573" type="curve" smooth="yes"/>
      <point x="316" y="378" type="line" smooth="yes"/>
      <point x="300" y="306"/>
      <point x="268" y="277"/>
      <point x="195" y="269" type="curve"/>
      <point x="220" y="265"/>
      <point x="228" y="263"/>
      <point x="240" y="257" type="curve" smooth="yes"/>
      <point x="261" y="248"/>
      <point x="274" y="227"/>
      <point x="274" y="200" type="curve" smooth="yes"/>
      <point x="274" y="190"/>
      <point x="272" y="174"/>
      <point x="269" y="159" type="curve" smooth="yes"/>
      <point x="227" y="-36" type="line" smooth="yes"/>
      <point x="224" y="-53"/>
      <point x="222" y="-66"/>
      <point x="222" y="-76" type="curve" smooth="yes"/>
      <point x="222" y="-92"/>
      <point x="236" y="-101"/>
      <point x="261" y="-101" type="curve" smooth="yes"/>
      <point x="296" y="-101" type="line"/>
      <point x="275" y="-200" type="line"/>
      <point x="198" y="-200" type="line" smooth="yes"/>
      <point x="140" y="-200"/>
      <point x="101" y="-159"/>
      <point x="101" y="-99" type="curve" smooth="yes"/>
      <point x="101" y="-86"/>
      <point x="102" y="-73"/>
      <point x="105" y="-60" type="curve" smooth="yes"/>
      <point x="150" y="150" type="line" smooth="yes"/>
      <point x="153" y="165"/>
      <point x="155" y="178"/>
      <point x="155" y="184" type="curve" smooth="yes"/>
      <point x="155" y="208"/>
      <point x="135" y="222"/>
      <point x="101" y="222" type="curve" smooth="yes"/>
      <point x="88" y="222" type="line"/>
      <point x="84" y="223" type="line"/>
      <point x="104" y="315" type="line"/>
      <point x="108" y="315" type="line"/>
      <point x="120" y="315" type="line" smooth="yes"/>
      <point x="164" y="315"/>
      <point x="190" y="336"/>
      <point x="198" y="378" type="curve" smooth="yes"/>
      <point x="243" y="589" type="line" smooth="yes"/>
      <point x="262" y="679"/>
      <point x="317" y="729"/>
      <point x="396" y="729" type="curve" smooth="yes"/>
    </contour>
  </outline>
</glyph>
<glyph name="bar" format="1">
  <advance width="280"/>
  <unicode hex="007C"/>
  <outline>
    <contour>
      <point x="335" y="729" type="line"/>
      <point x="137" y="-200" type="line"/>
      <point x="57" y="-200" type="line"/>
      <point x="255" y="729" type="line"/>
    </contour>
  </outline>
</glyph>
<glyph name="brokenbar" format="1">
  <advance width="280"/>
  <unicode hex="00A6"/>
  <outline>
    <contour>
      <point x="335" y="729" type="line"/>
      <point x="252" y="340" type="line"/>
      <point x="172" y="340" type="line"/>
      <point x="255" y="729" type="line"/>
    </contour>
    <contour>
      <point x="220" y="189" type="line"/>
      <point x="137" y="-200" type="line"/>
      <point x="57" y="-200" type="line"/>
      <point x="140" y="189" type="line"/>
    </contour>
  </outline>
</glyph>
<glyph name="section" format="1">
  <advance width="556"/>
  <unicode hex="00A7"/>
  <outline>
    <contour>
      <point x="589" y="544" type="curve"/>
      <point x="462" y="544" type="line"/>
      <point x="463" y="551"/>
      <point x="463" y="558"/>
      <point x="463" y="562" type="curve" smooth="yes"/>
      <point x="463" y="600"/>
      <point x="441" y="621"/>
      <point x="401" y="621" type="curve" smooth="yes"/>
      <point x="358" y="621"/>
      <point x="326" y="594"/>
      <point x="326" y="559" type="curve" smooth="yes"/>
      <point x="326" y="538"/>
      <point x="347" y="516"/>
      <point x="397" y="485" type="curve" smooth="yes"/>
      <point x="509" y="415" type="line" smooth="yes"/>
      <point x="557" y="385"/>
      <point x="578" y="350"/>
      <point x="578" y="302" type="curve" smooth="yes"/>
      <point x="578" y="254"/>
      <point x="564" y="212"/>
      <point x="539" y="183" type="curve" smooth="yes"/>
      <point x="517" y="157"/>
      <point x="496" y="144"/>
      <point x="448" y="126" type="curve"/>
      <point x="481" y="99"/>
      <point x="496" y="68"/>
      <point x="496" y="27" type="curve" smooth="yes"/>
      <point x="496" y="-19"/>
      <point x="476" y="-71"/>
      <point x="441" y="-111" type="curve"/>
      <point x="392" y="-170"/>
      <point x="320" y="-201"/>
      <point x="232" y="-201" type="curve" smooth="yes"/>
      <point x="124" y="-201"/>
      <point x="56" y="-146"/>
      <point x="56" y="-59" type="curve" smooth="yes"/>
      <point x="56" y="-40"/>
      <point x="58" y="-26"/>
      <point x="65" y="0" type="curve"/>
      <point x="196" y="0" type="line"/>
      <point x="194" y="-17"/>
      <point x="193" y="-24"/>
      <point x="193" y="-34" type="curve" smooth="yes"/>
      <point x="193" y="-70"/>
      <point x="216" y="-89"/>
      <point x="258" y="-89" type="curve" smooth="yes"/>
      <point x="309" y="-89"/>
      <point x="348" y="-57"/>
      <point x="348" y="-15" type="curve" smooth="yes"/>
      <point x="348" y="12"/>
      <point x="343" y="18"/>
      <point x="293" y="49" type="curve"/>
      <point x="143" y="149" type="line" smooth="yes"/>
      <point x="109" y="172"/>
      <point x="89" y="208"/>
      <point x="89" y="247" type="curve" smooth="yes"/>
      <point x="89" y="291"/>
      <point x="102" y="329"/>
      <point x="128" y="359" type="curve" smooth="yes"/>
      <point x="149" y="383"/>
      <point x="163" y="395"/>
      <point x="216" y="428" type="curve"/>
      <point x="190" y="455"/>
      <point x="178" y="485"/>
      <point x="178" y="524" type="curve" smooth="yes"/>
      <point x="178" y="571"/>
      <point x="202" y="622"/>
      <point x="243" y="659" type="curve" smooth="yes"/>
      <point x="287" y="700"/>
      <point x="352" y="723"/>
      <point x="425" y="723" type="curve" smooth="yes"/>
      <point x="532" y="723"/>
      <point x="596" y="675"/>
      <point x="596" y="594" type="curve" smooth="yes"/>
      <point x="596" y="580"/>
      <point x="594" y="569"/>
    </contour>
    <contour>
      <point x="258" y="247" type="curve" smooth="yes"/>
      <point x="383" y="170" type="line"/>
      <point x="430" y="192"/>
      <point x="448" y="214"/>
      <point x="448" y="247" type="curve" smooth="yes"/>
      <point x="448" y="271"/>
      <point x="437" y="285"/>
      <point x="402" y="306" type="curve" smooth="yes"/>
      <point x="275" y="382" type="line"/>
      <point x="237" y="362"/>
      <point x="219" y="335"/>
      <point x="219" y="301" type="curve" smooth="yes"/>
      <point x="219" y="279"/>
      <point x="229" y="264"/>
    </contour>
  </outline>
</glyph>
<glyph name="dieresis" format="1">
  <advance width="333"/>
  <unicode hex="00A8"/>
  <outline>
    <contour>
      <point x="283" y="741" type="line"/>
      <point x="257" y="621" type="line"/>
      <point x="147" y="621" type="line"/>
      <point x="173" y="741" type="line"/>
    </contour>
    <contour>
      <point x="469" y="741" type="line"/>
      <point x="443" y="621" type="line"/>
      <point x="333" y="621" type="line"/>
      <point x="359" y="741" type="line"/>
    </contour>
  </outline>
</glyph>
<glyph name="ordfeminine" format="1">
  <advance width="370"/>
  <unicode hex="00AA"/>
  <outline>
    <contour>
      <point x="396" y="342" type="line"/>
      <point x="380" y="262" type="line"/>
      <point x="96" y="262" type="line"/>
      <point x="113" y="342" type="line"/>
    </contour>
    <contour>
      <point x="420" y="409" type="curve"/>
      <point x="418" y="399" type="line"/>
      <point x="326" y="399" type="line"/>
      <point x="323" y="405"/>
      <point x="322" y="409"/>
      <point x="322" y="415" type="curve" smooth="yes"/>
      <point x="322" y="419"/>
      <point x="322" y="421"/>
      <point x="324" y="431" type="curve"/>
      <point x="288" y="399"/>
      <point x="257" y="385"/>
      <point x="217" y="385" type="curve" smooth="yes"/>
      <point x="166" y="385"/>
      <point x="134" y="415"/>
      <point x="134" y="463" type="curve" smooth="yes"/>
      <point x="134" y="526"/>
      <point x="182" y="575"/>
      <point x="256" y="586" type="curve"/>
      <point x="290" y="592" type="line"/>
      <point x="333" y="598"/>
      <point x="333" y="598"/>
      <point x="346" y="604" type="curve" smooth="yes"/>
      <point x="358" y="610"/>
      <point x="366" y="623"/>
      <point x="366" y="636" type="curve" smooth="yes"/>
      <point x="366" y="653"/>
      <point x="353" y="661"/>
      <point x="322" y="661" type="curve" smooth="yes"/>
      <point x="284" y="661"/>
      <point x="265" y="649"/>
      <point x="255" y="617" type="curve"/>
      <point x="176" y="617" type="line"/>
      <point x="193" y="692"/>
      <point x="247" y="729"/>
      <point x="337" y="729" type="curve" smooth="yes"/>
      <point x="408" y="729"/>
      <point x="451" y="702"/>
      <point x="451" y="657" type="curve" smooth="yes"/>
      <point x="451" y="649"/>
      <point x="450" y="640"/>
      <point x="448" y="629" type="curve" smooth="yes"/>
      <point x="409" y="449" type="line" smooth="yes"/>
      <point x="408" y="444"/>
      <point x="408" y="441"/>
      <point x="408" y="436" type="curve" smooth="yes"/>
      <point x="408" y="428"/>
      <point x="412" y="419"/>
    </contour>
    <contour>
      <point x="344" y="529" type="curve" smooth="yes"/>
      <point x="349" y="552" type="line"/>
      <point x="342" y="549"/>
      <point x="340" y="548"/>
      <point x="333" y="546" type="curve" smooth="yes"/>
      <point x="331" y="546"/>
      <point x="327" y="545"/>
      <point x="321" y="544" type="curve" smooth="yes"/>
      <point x="311" y="543" type="line"/>
      <point x="281" y="537" type="line"/>
      <point x="243" y="531"/>
      <point x="221" y="511"/>
      <point x="221" y="483" type="curve" smooth="yes"/>
      <point x="221" y="464"/>
      <point x="236" y="453"/>
      <point x="263" y="453" type="curve" smooth="yes"/>
      <point x="304" y="453"/>
      <point x="334" y="481"/>
    </contour>
  </outline>
</glyph>
<glyph name="logicalnot" format="1">
  <advance width="584"/>
  <unicode hex="00AC"/>
  <outline>
    <contour>
      <point x="128" y="376" type="line"/>
      <point x="632" y="376" type="line"/>
      <point x="571" y="86" type="line"/>
      <point x="452" y="86" type="line"/>
      <point x="488" y="256" type="line"/>
      <point x="103" y="256" type="line"/>
    </contour>
  </outline>
</glyph>
<glyph name="registered" format="1">
  <advance width="737"/>
  <unicode hex="00AE"/>
  <outline>
    <contour>
      <point x="356" y="313" type="line"/>
      <point x="319" y="140" type="line"/>
      <point x="223" y="140" type="line"/>
      <point x="317" y="582" type="line"/>
      <point x="555" y="582" type="line" smooth="yes"/>
      <point x="621" y="582"/>
      <point x="654" y="552"/>
      <point x="654" y="493" type="curve" smooth="yes"/>
      <point x="654" y="429"/>
      <point x="621" y="382"/>
      <point x="557" y="353" type="curve"/>
      <point x="585" y="340"/>
      <point x="596" y="326"/>
      <point x="596" y="304" type="curve" smooth="yes"/>
      <point x="596" y="287"/>
      <point x="593" y="266"/>
      <point x="581" y="195" type="curve"/>
      <point x="580" y="182" type="line" smooth="yes"/>
      <point x="580" y="173"/>
      <point x="583" y="167"/>
      <point x="592" y="161" type="curve"/>
      <point x="587" y="140" type="line"/>
      <point x="485" y="140" type="line"/>
      <point x="481" y="153"/>
      <point x="480" y="159"/>
      <point x="480" y="168" type="curve" smooth="yes"/>
      <point x="480" y="183"/>
      <point x="485" y="213"/>
      <point x="494" y="247" type="curve" smooth="yes"/>
      <point x="498" y="264"/>
      <point x="500" y="272"/>
      <point x="500" y="278" type="curve" smooth="yes"/>
      <point x="500" y="302"/>
      <point x="483" y="313"/>
      <point x="447" y="313" type="curve" smooth="yes"/>
    </contour>
    <contour>
      <point x="373" y="394" type="line"/>
      <point x="475" y="394" type="line" smooth="yes"/>
      <point x="508" y="394"/>
      <point x="526" y="400"/>
      <point x="537" y="415" type="curve" smooth="yes"/>
      <point x="546" y="426"/>
      <point x="553" y="450"/>
      <point x="553" y="469" type="curve" smooth="yes"/>
      <point x="553" y="493"/>
      <point x="538" y="502"/>
      <point x="498" y="502" type="curve" smooth="yes"/>
      <point x="396" y="502" type="line"/>
    </contour>
    <contour>
      <point x="530" y="743" type="curve" smooth="yes"/>
      <point x="708" y="743"/>
      <point x="837" y="615"/>
      <point x="837" y="440" type="curve" smooth="yes"/>
      <point x="837" y="201"/>
      <point x="608" y="-22"/>
      <point x="361" y="-22" type="curve" smooth="yes"/>
      <point x="185" y="-22"/>
      <point x="55" y="106"/>
      <point x="55" y="281" type="curve" smooth="yes"/>
      <point x="55" y="520"/>
      <point x="284" y="743"/>
    </contour>
    <contour>
      <point x="514" y="671" type="curve" smooth="yes"/>
      <point x="318" y="671"/>
      <point x="135" y="489"/>
      <point x="135" y="295" type="curve" smooth="yes"/>
      <point x="135" y="154"/>
      <point x="237" y="50"/>
      <point x="377" y="50" type="curve" smooth="yes"/>
      <point x="574" y="50"/>
      <point x="757" y="232"/>
      <point x="757" y="427" type="curve" smooth="yes"/>
      <point x="757" y="568"/>
      <point x="654" y="671"/>
    </contour>
  </outline>
</glyph>
<glyph name="macron" format="1">
  <advance width="333"/>
  <unicode hex="00AF"/>
  <outline>
    <contour>
      <point x="467" y="722" type="line"/>
      <point x="450" y="642" type="line"/>
      <point x="150" y="642" type="line"/>
      <point x="167" y="722" type="line"/>
    </contour>
  </outline>
</glyph>
<glyph name="plusminus" format="1">
  <advance width="584"/>
  <unicode hex="00B1"/>
  <outline>
    <contour>
      <point x="630" y="452" type="line"/>
      <point x="605" y="332" type="line"/>
      <point x="422" y="332" type="line"/>
      <point x="387" y="170" type="line"/>
      <point x="268" y="170" type="line"/>
      <point x="303" y="332" type="line"/>
      <point x="121" y="332" type="line"/>
      <point x="146" y="452" type="line"/>
      <point x="328" y="452" type="line"/>
      <point x="367" y="633" type="line"/>
      <point x="486" y="633" type="line"/>
      <point x="447" y="452" type="line"/>
    </contour>
    <contour>
      <point x="559" y="119" type="line"/>
      <point x="534" y="0" type="line"/>
      <point x="50" y="0" type="line"/>
      <point x="75" y="119" type="line"/>
    </contour>
  </outline>
</glyph>
<glyph name="twosuperior" format="1">
  <advance width="444"/>
  <unicode hex="00B2"/>
  <outline>
    <contour>
      <point x="447" y="364" type="line"/>
      <point x="430" y="284" type="line"/>
      <point x="124" y="284" type="line"/>
      <point x="145" y="365"/>
      <point x="177" y="404"/>
      <point x="264" y="454" type="curve" smooth="yes"/>
      <point x="334" y="495"/>
      <point x="354" y="509"/>
      <point x="374" y="528" type="curve" smooth="yes"/>
      <point x="394" y="547"/>
      <point x="406" y="574"/>
      <point x="406" y="600" type="curve" smooth="yes"/>
      <point x="406" y="629"/>
      <point x="387" y="646"/>
      <point x="354" y="646" type="curve" smooth="yes"/>
      <point x="311" y="646"/>
      <point x="285" y="615"/>
      <point x="279" y="557" type="curve"/>
      <point x="188" y="557" type="line"/>
      <point x="204" y="661"/>
      <point x="267" y="718"/>
      <point x="366" y="718" type="curve" smooth="yes"/>
      <point x="450" y="718"/>
      <point x="499" y="679"/>
      <point x="499" y="613" type="curve" smooth="yes"/>
      <point x="499" y="575"/>
      <point x="485" y="539"/>
      <point x="459" y="508" type="curve"/>
      <point x="439" y="486"/>
      <point x="416" y="468"/>
      <point x="364" y="437" type="curve" smooth="yes"/>
      <point x="296" y="396"/>
      <point x="277" y="382"/>
      <point x="263" y="364" type="curve"/>
    </contour>
  </outline>
</glyph>
<glyph name="periodcentered" format="1">
  <advance width="278"/>
  <unicode hex="00B7"/>
  <outline>
    <contour>
      <point x="270" y="282" type="line"/>
      <point x="248" y="182" type="line"/>
      <point x="143" y="182" type="line"/>
      <point x="165" y="282" type="line"/>
    </contour>
  </outline>
</glyph>
<glyph name="onequarter" format="1">
  <advance width="1055"/>
  <unicode hex="00BC"/>
  <outline>
    <contour>
      <point x="316" y="573" type="line"/>
      <point x="210" y="573" type="line"/>
      <point x="223" y="634" type="line"/>
      <point x="301" y="634"/>
      <point x="351" y="659"/>
      <point x="375" y="709" type="curve"/>
      <point x="438" y="709" type="line"/>
      <point x="348" y="284" type="line"/>
      <point x="254" y="284" type="line"/>
    </contour>
    <contour>
      <point x="848" y="715" type="line"/>
      <point x="933" y="715" type="line"/>
      <point x="352" y="-20" type="line"/>
      <point x="267" y="-20" type="line"/>
    </contour>
    <contour>
      <point x="1023" y="166" type="line"/>
      <point x="1007" y="93" type="line"/>
      <point x="961" y="93" type="line"/>
      <point x="942" y="0" type="line"/>
      <point x="848" y="0" type="line"/>
      <point x="868" y="93" type="line"/>
      <point x="691" y="93" type="line"/>
      <point x="707" y="165" type="line"/>
      <point x="924" y="425" type="line"/>
      <point x="1032" y="425" type="line"/>
      <point x="977" y="166" type="line"/>
    </contour>
    <contour>
      <point x="884" y="166" type="line"/>
      <point x="919" y="332" type="line"/>
      <point x="779" y="166" type="line"/>
    </contour>
  </outline>
</glyph>
<glyph name="Agrave" format="1">
  <advance width="722"/>
  <unicode hex="00C0"/>
  <outline>
    <contour>
      <point x="532" y="147" type="line"/>
      <point x="260" y="147" type="line"/>
      <point x="179" y="0" type="line"/>
      <point x="26" y="0" type="line"/>
      <point x="433" y="729" type="line"/>
      <point x="606" y="729" type="line"/>
      <point x="703" y="0" type="line"/>
      <point x="550" y="0" type="line"/>
    </contour>
    <contour>
      <point x="518" y="272" type="line"/>
      <point x="483" y="555" type="line"/>
      <point x="329" y="272" type="line"/>
    </contour>
    <contour>
      <point x="407" y="936" type="line"/>
      <point x="526" y="936" type="line"/>
      <point x="571" y="786" type="line"/>
      <point x="508" y="786" type="line"/>
    </contour>
  </outline>
</glyph>
<glyph name="Atilde" format="1">
  <advance width="722"/>
  <unicode hex="00C3"/>
  <outline>
    <contour>
      <point x="532" y="147" type="line"/>
      <point x="260" y="147" type="line"/>
      <point x="179" y="0" type="line"/>
      <point x="26" y="0" type="line"/>
      <point x="433" y="729" type="line"/>
      <point x="606" y="729" type="line"/>
      <point x="703" y="0" type="line"/>
      <point x="550" y="0" type="line"/>
    </contour>
    <contour>
      <point x="518" y="272" type="line"/>
      <point x="483" y="555" type="line"/>
      <point x="329" y="272" type="line"/>
    </contour>
    <contour>
      <point x="685" y="923" type="curve"/>
      <point x="739" y="923" type="line"/>
      <point x="728" y="883"/>
      <point x="717" y="862"/>
      <point x="698" y="842" type="curve" smooth="yes"/>
      <point x="673" y="816"/>
      <point x="638" y="801"/>
      <point x="606" y="801" type="curve" smooth="yes"/>
      <point x="589" y="801"/>
      <point x="568" y="806"/>
      <point x="555" y="812" type="curve" smooth="yes"/>
      <point x="505" y="837" type="line" smooth="yes"/>
      <point x="488" y="846"/>
      <point x="469" y="852"/>
      <point x="461" y="852" type="curve" smooth="yes"/>
      <point x="443" y="852"/>
      <point x="427" y="837"/>
      <point x="410" y="803" type="curve"/>
      <point x="356" y="803" type="line"/>
      <point x="380" y="879"/>
      <point x="422" y="921"/>
      <point x="477" y="921" type="curve" smooth="yes"/>
      <point x="503" y="921"/>
      <point x="512" y="919"/>
      <point x="548" y="903" type="curve" smooth="yes"/>
      <point x="598" y="882" type="line" smooth="yes"/>
      <point x="616" y="874"/>
      <point x="619" y="873"/>
      <point x="631" y="873" type="curve" smooth="yes"/>
      <point x="653" y="873"/>
      <point x="671" y="889"/>
    </contour>
  </outline>
</glyph>
<glyph name="Adieresis" format="1">
  <advance width="722"/>
  <unicode hex="00C4"/>
  <outline>
    <contour>
      <point x="532" y="147" type="line"/>
      <point x="260" y="147" type="line"/>
      <point x="179" y="0" type="line"/>
      <point x="26" y="0" type="line"/>
      <point x="433" y="729" type="line"/>
      <point x="606" y="729" type="line"/>
      <point x="703" y="0" type="line"/>
      <point x="550" y="0" type="line"/>
    </contour>
    <contour>
      <point x="518" y="272" type="line"/>
      <point x="483" y="555" type="line"/>
      <point x="329" y="272" type="line"/>
    </contour>
    <contour>
      <point x="522" y="920" type="line"/>
      <point x="496" y="800" type="line"/>
      <point x="386" y="800" type="line"/>
      <point x="412" y="920" type="line"/>
    </contour>
    <contour>
      <point x="708" y="920" type="line"/>
      <point x="682" y="800" type="line"/>
      <point x="572" y="800" type="line"/>
      <point x="598" y="920" type="line"/>
    </contour>
  </outline>
</glyph>
<glyph name="AE" format="1">
  <advance width="1000"/>
  <unicode hex="00C6"/>
  <outline>
    <contour>
      <point x="464" y="152" type="line"/>
      <point x="245" y="152" type="line"/>
      <point x="160" y="0" type="line"/>
      <point x="1" y="0" type="line"/>
      <point x="421" y="729" type="line"/>
      <point x="1104" y="729" type="line"/>
      <point x="1078" y="604" type="line"/>
      <point x="711" y="604" type="line"/>
      <point x="675" y="439" type="line"/>
      <point x="1014" y="439" type="line"/>
      <point x="988" y="314" type="line"/>
      <point x="649" y="314" type="line"/>
      <point x="609" y="125" type="line"/>
      <point x="995" y="125" type="line"/>
      <point x="968" y="0" type="line"/>
      <point x="432" y="0" type="line"/>
    </contour>
    <contour>
      <point x="491" y="277" type="line"/>
      <point x="561" y="604" type="line"/>
      <point x="495" y="604" type="line"/>
      <point x="310" y="277" type="line"/>
    </contour>
  </outline>
</glyph>
<glyph name="Igrave" format="1">
  <advance width="278"/>
  <unicode hex="00CC"/>
  <outline>
    <contour>
      <point x="368" y="729" type="line"/>
      <point x="213" y="0" type="line"/>
      <point x="63" y="0" type="line"/>
      <point x="218" y="729" type="line"/>
    </contour>
    <contour>
      <point x="181" y="936" type="line"/>
      <point x="300" y="936" type="line"/>
      <point x="345" y="786" type="line"/>
      <point x="282" y="786" type="line"/>
    </contour>
  </outline>
</glyph>
<glyph name="Idieresis" format="1">
  <advance width="278"/>
  <unicode hex="00CF"/>
  <outline>
    <contour>
      <point x="368" y="729" type="line"/>
      <point x="213" y="0" type="line"/>
      <point x="63" y="0" type="line"/>
      <point x="218" y="729" type="line"/>
    </contour>
    <contour>
      <point x="297" y="920" type="line"/>
      <point x="271" y="800" type="line"/>
      <point x="161" y="800" type="line"/>
      <point x="187" y="920" type="line"/>
    </contour>
    <contour>
      <point x="483" y="920" type="line"/>
      <point x="457" y="800" type="line"/>
      <point x="347" y="800" type="line"/>
      <point x="373" y="920" type="line"/>
    </contour>
  </outline>
</glyph>
<glyph name="Ograve" format="1">
  <advance width="778"/>
  <unicode hex="00D2"/>
  <outline>
    <contour>
      <point x="538" y="741" type="curve" smooth="yes"/>
      <point x="721" y="741"/>
      <point x="828" y="635"/>
      <point x="828" y="455" type="curve" smooth="yes"/>
      <point x="828" y="337"/>
      <point x="783" y="215"/>
      <point x="705" y="124" type="curve" smooth="yes"/>
      <point x="619" y="22"/>
      <point x="523" y="-23"/>
      <point x="395" y="-23" type="curve" smooth="yes"/>
      <point x="217" y="-23"/>
      <point x="106" y="86"/>
      <point x="106" y="261" type="curve" smooth="yes"/>
      <point x="106" y="376"/>
      <point x="153" y="502"/>
      <point x="231" y="594" type="curve"/>
      <point x="313" y="693"/>
      <point x="414" y="741"/>
    </contour>
    <contour>
      <point x="519" y="613" type="curve" smooth="yes"/>
      <point x="443" y="613"/>
      <point x="377" y="577"/>
      <point x="327" y="509" type="curve" smooth="yes"/>
      <point x="283" y="448"/>
      <point x="255" y="360"/>
      <point x="255" y="282" type="curve" smooth="yes"/>
      <point x="255" y="173"/>
      <point x="318" y="105"/>
      <point x="419" y="105" type="curve" smooth="yes"/>
      <point x="496" y="105"/>
      <point x="559" y="140"/>
      <point x="609" y="210" type="curve" smooth="yes"/>
      <point x="652" y="270"/>
      <point x="679" y="358"/>
      <point x="679" y="437" type="curve" smooth="yes"/>
      <point x="679" y="547"/>
      <point x="619" y="613"/>
    </contour>
    <contour>
      <point x="450" y="936" type="line"/>
      <point x="569" y="936" type="line"/>
      <point x="614" y="786" type="line"/>
      <point x="551" y="786" type="line"/>
    </contour>
  </outline>
</glyph>
<glyph name="Oslash" format="1">
  <advance width="778"/>
  <unicode hex="00D8"/>
  <outline>
    <contour>
      <point x="181" y="56" type="curve"/>
      <point x="75" y="-39" type="line"/>
      <point x="34" y="7" type="line"/>
      <point x="145" y="106" type="line"/>
      <point x="122" y="150"/>
      <point x="109" y="204"/>
      <point x="109" y="263" type="curve" smooth="yes"/>
      <point x="109" y="377"/>
      <point x="157" y="503"/>
      <point x="234" y="595" type="curve"/>
      <point x="317" y="692"/>
      <point x="422" y="741"/>
      <point x="547" y="741" type="curve" smooth="yes"/>
      <point x="641" y="741"/>
      <point x="713" y="714"/>
      <point x="763" y="659" type="curve"/>
      <point x="864" y="749" type="line"/>
      <point x="906" y="704" type="line"/>
      <point x="798" y="607" type="line"/>
      <point x="821" y="560"/>
      <point x="832" y="510"/>
      <point x="832" y="452" type="curve" smooth="yes"/>
      <point x="832" y="339"/>
      <point x="785" y="215"/>
      <point x="707" y="123" type="curve" smooth="yes"/>
      <point x="625" y="27"/>
      <point x="519" y="-23"/>
      <point x="395" y="-23" type="curve" smooth="yes"/>
      <point x="302" y="-23"/>
      <point x="228" y="4"/>
    </contour>
    <contour>
      <point x="678" y="500" type="curve"/>
      <point x="294" y="157" type="line"/>
      <point x="323" y="123"/>
      <point x="367" y="105"/>
      <point x="421" y="105" type="curve" smooth="yes"/>
      <point x="497" y="105"/>
      <point x="561" y="140"/>
      <point x="611" y="210" type="curve"/>
      <point x="656" y="271"/>
      <point x="683" y="358"/>
      <point x="683" y="439" type="curve" smooth="yes"/>
      <point x="683" y="460"/>
      <point x="682" y="478"/>
    </contour>
    <contour>
      <point x="264" y="213" type="curve"/>
      <point x="650" y="557" type="line"/>
      <point x="620" y="594"/>
      <point x="577" y="613"/>
      <point x="521" y="613" type="curve" smooth="yes"/>
      <point x="445" y="613"/>
      <point x="379" y="577"/>
      <point x="330" y="509" type="curve" smooth="yes"/>
      <point x="286" y="448"/>
      <point x="258" y="359"/>
      <point x="258" y="281" type="curve" smooth="yes"/>
      <point x="258" y="258"/>
      <point x="260" y="235"/>
    </contour>
  </outline>
</glyph>
<glyph name="Uacute" format="1">
  <advance width="722"/>
  <unicode hex="00DA"/>
  <outline>
    <contour>
      <point x="659" y="729" type="line"/>
      <point x="809" y="729" type="line"/>
      <point x="704" y="235" type="line" smooth="yes"/>
      <point x="686" y="152"/>
      <point x="654" y="96"/>
      <point x="597" y="51" type="curve" smooth="yes"/>
      <point x="536" y="3"/>
      <point x="454" y="-23"/>
      <point x="366" y="-23" type="curve" smooth="yes"/>
      <point x="215" y="-23"/>
      <point x="119" y="51"/>
      <point x="119" y="167" type="curve" smooth="yes"/>
      <point x="119" y="189"/>
      <point x="123" y="222"/>
      <point x="130" y="255" type="curve" smooth="yes"/>
      <point x="231" y="729" type="line"/>
      <point x="381" y="729" type="line"/>
      <point x="276" y="235" type="line" smooth="yes"/>
      <point x="273" y="219"/>
      <point x="271" y="205"/>
      <point x="271" y="190" type="curve" smooth="yes"/>
      <point x="271" y="137"/>
      <point x="316" y="105"/>
      <point x="394" y="105" type="curve" smooth="yes"/>
      <point x="485" y="105"/>
      <point x="535" y="145"/>
      <point x="554" y="235" type="curve" smooth="yes"/>
    </contour>
    <contour>
      <point x="692" y="936" type="line"/>
      <point x="534" y="786" type="line"/>
      <point x="464" y="786" type="line"/>
      <point x="566" y="936" type="line"/>
    </contour>
  </outline>
</glyph>
<glyph name="Thorn" format="1">
  <advance width="667"/>
  <unicode hex="00DE"/>
  <outline>
    <contour>
      <point x="256" y="140" type="line"/>
      <point x="226" y="0" type="line"/>
      <point x="76" y="0" type="line"/>
      <point x="231" y="729" type="line"/>
      <point x="381" y="729" type="line"/>
      <point x="355" y="609" type="line"/>
      <point x="514" y="609" type="line" smooth="yes"/>
      <point x="580" y="609"/>
      <point x="621" y="598"/>
      <point x="657" y="570" type="curve" smooth="yes"/>
      <point x="698" y="539"/>
      <point x="721" y="492"/>
      <point x="721" y="440" type="curve" smooth="yes"/>
      <point x="721" y="363"/>
      <point x="687" y="278"/>
      <point x="633" y="221" type="curve" smooth="yes"/>
      <point x="579" y="164"/>
      <point x="522" y="140"/>
      <point x="443" y="140" type="curve" smooth="yes"/>
    </contour>
    <contour>
      <point x="282" y="265" type="line"/>
      <point x="435" y="265" type="line" smooth="yes"/>
      <point x="488" y="265"/>
      <point x="522" y="281"/>
      <point x="547" y="316" type="curve" smooth="yes"/>
      <point x="561" y="337"/>
      <point x="572" y="376"/>
      <point x="572" y="405" type="curve" smooth="yes"/>
      <point x="572" y="452"/>
      <point x="536" y="484"/>
      <point x="482" y="484" type="curve" smooth="yes"/>
      <point x="329" y="484" type="line"/>
    </contour>
  </outline>
</glyph>
<glyph name="ae" format="1">
  <advance width="889"/>
  <unicode hex="00E6"/>
  <outline>
    <contour>
      <point x="750" y="152" type="curve"/>
      <point x="888" y="152" type="line"/>
      <point x="835" y="45"/>
      <point x="726" y="-23"/>
      <point x="606" y="-23" type="curve" smooth="yes"/>
      <point x="518" y="-23"/>
      <point x="453" y="13"/>
      <point x="425" y="77" type="curve"/>
      <point x="355" y="2"/>
      <point x="301" y="-23"/>
      <point x="209" y="-23" type="curve" smooth="yes"/>
      <point x="112" y="-23"/>
      <point x="54" y="25"/>
      <point x="54" y="106" type="curve" smooth="yes"/>
      <point x="54" y="168"/>
      <point x="86" y="228"/>
      <point x="139" y="266" type="curve" smooth="yes"/>
      <point x="171" y="289"/>
      <point x="208" y="303"/>
      <point x="256" y="311" type="curve" smooth="yes"/>
      <point x="313" y="320" type="line"/>
      <point x="385" y="330"/>
      <point x="385" y="330"/>
      <point x="406" y="341" type="curve" smooth="yes"/>
      <point x="426" y="351"/>
      <point x="440" y="373"/>
      <point x="440" y="394" type="curve" smooth="yes"/>
      <point x="440" y="424"/>
      <point x="418" y="437"/>
      <point x="367" y="437" type="curve" smooth="yes"/>
      <point x="303" y="437"/>
      <point x="272" y="417"/>
      <point x="255" y="362" type="curve"/>
      <point x="124" y="362" type="line"/>
      <point x="137" y="425"/>
      <point x="154" y="459"/>
      <point x="187" y="488" type="curve" smooth="yes"/>
      <point x="232" y="528"/>
      <point x="302" y="549"/>
      <point x="392" y="549" type="curve" smooth="yes"/>
      <point x="469" y="549"/>
      <point x="521" y="533"/>
      <point x="553" y="500" type="curve"/>
      <point x="599" y="531"/>
      <point x="659" y="549"/>
      <point x="718" y="549" type="curve" smooth="yes"/>
      <point x="789" y="549"/>
      <point x="845" y="525"/>
      <point x="881" y="480" type="curve" smooth="yes"/>
      <point x="910" y="445"/>
      <point x="927" y="397"/>
      <point x="927" y="351" type="curve" smooth="yes"/>
      <point x="927" y="313"/>
      <point x="921" y="271"/>
      <point x="909" y="226" type="curve"/>
      <point x="547" y="226" type="line"/>
      <point x="541" y="200"/>
      <point x="540" y="189"/>
      <point x="540" y="175" type="curve" smooth="yes"/>
      <point x="540" y="124"/>
      <point x="579" y="89"/>
      <point x="636" y="89" type="curve" smooth="yes"/>
      <point x="685" y="89"/>
      <point x="730" y="114"/>
    </contour>
    <contour>
      <point x="404" y="216" type="curve" smooth="yes"/>
      <point x="412" y="254" type="line"/>
      <point x="400" y="248"/>
      <point x="397" y="247"/>
      <point x="386" y="244" type="curve"/>
      <point x="382" y="244"/>
      <point x="375" y="242"/>
      <point x="365" y="241" type="curve" smooth="yes"/>
      <point x="349" y="238" type="line"/>
      <point x="299" y="230" type="line" smooth="yes"/>
      <point x="234" y="219"/>
      <point x="197" y="186"/>
      <point x="197" y="139" type="curve" smooth="yes"/>
      <point x="197" y="106"/>
      <point x="222" y="89"/>
      <point x="268" y="89" type="curve" smooth="yes"/>
      <point x="338" y="89"/>
      <point x="386" y="134"/>
    </contour>
    <contour>
      <point x="784" y="319" type="line"/>
      <point x="784" y="346" type="line" smooth="yes"/>
      <point x="784" y="404"/>
      <point x="753" y="437"/>
      <point x="699" y="437" type="curve" smooth="yes"/>
      <point x="635" y="437"/>
      <point x="589" y="396"/>
      <point x="568" y="319" type="curve"/>
    </contour>
  </outline>
</glyph>
<glyph name="igrave" format="1">
  <advance width="278"/>
  <unicode hex="00EC"/>
  <outline>
    <contour>
      <point x="322" y="540" type="line"/>
      <point x="207" y="0" type="line"/>
      <point x="67" y="0" type="line"/>
      <point x="182" y="540" type="line"/>
    </contour>
    <contour>
      <point x="147" y="757" type="line"/>
      <point x="266" y="757" type="line"/>
      <point x="311" y="607" type="line"/>
      <point x="248" y="607" type="line"/>
    </contour>
  </outline>
</glyph>
<glyph name="iacute" format="1">
  <advance width="278"/>
  <unicode hex="00ED"/>
  <outline>
    <contour>
      <point x="322" y="540" type="line"/>
      <point x="207" y="0" type="line"/>
      <point x="67" y="0" type="line"/>
      <point x="182" y="540" type="line"/>
    </contour>
    <contour>
      <point x="448" y="757" type="line"/>
      <point x="290" y="607" type="line"/>
      <point x="220" y="607" type="line"/>
      <point x="322" y="757" type="line"/>
    </contour>
  </outline>
</glyph>
<glyph name="icircumflex" format="1">
  <advance width="278"/>
  <unicode hex="00EE"/>
  <outline>
    <contour>
      <point x="322" y="540" type="line"/>
      <point x="207" y="0" type="line"/>
      <point x="67" y="0" type="line"/>
      <point x="182" y="540" type="line"/>
    </contour>
    <contour>
      <point x="247" y="757" type="line"/>
      <point x="355" y="757" type="line"/>
      <point x="426" y="610" type="line"/>
      <point x="348" y="610" type="line"/>
      <point x="287" y="707" type="line"/>
      <point x="184" y="610" type="line"/>
      <point x="108" y="610" type="line"/>
    </contour>
  </outline>
</glyph>
<glyph name="eth" format="1">
  <advance width="611"/>
  <unicode hex="00F0"/>
  <outline>
    <contour>
      <point x="355" y="609" type="curve"/>
      <point x="258" y="564" type="line"/>
      <point x="217" y="607" type="line"/>
      <point x="305" y="648" type="line"/>
      <point x="279" y="666"/>
      <point x="273" y="670"/>
      <point x="235" y="694" type="curve"/>
      <point x="305" y="744" type="line"/>
      <point x="339" y="729"/>
      <point x="341" y="728"/>
      <point x="387" y="701" type="curve" smooth="yes"/>
      <point x="389" y="699"/>
      <point x="394" y="697"/>
      <point x="400" y="693" type="curve"/>
      <point x="504" y="738" type="line"/>
      <point x="547" y="695" type="line"/>
      <point x="454" y="654" type="line"/>
      <point x="584" y="558"/>
      <point x="633" y="473"/>
      <point x="633" y="345" type="curve" smooth="yes"/>
      <point x="633" y="254"/>
      <point x="605" y="166"/>
      <point x="553" y="97" type="curve"/>
      <point x="495" y="18"/>
      <point x="409" y="-23"/>
      <point x="305" y="-23" type="curve" smooth="yes"/>
      <point x="166" y="-23"/>
      <point x="83" y="52"/>
      <point x="83" y="178" type="curve" smooth="yes"/>
      <point x="83" y="276"/>
      <point x="121" y="382"/>
      <point x="180" y="449" type="curve" smooth="yes"/>
      <point x="225" y="500"/>
      <point x="292" y="530"/>
      <point x="362" y="530" type="curve" smooth="yes"/>
      <point x="394" y="530"/>
      <point x="414" y="524"/>
      <point x="452" y="503" type="curve"/>
      <point x="428" y="544"/>
      <point x="393" y="582"/>
    </contour>
    <contour>
      <point x="387" y="431" type="curve" smooth="yes"/>
      <point x="336" y="431"/>
      <point x="293" y="403"/>
      <point x="264" y="351" type="curve" smooth="yes"/>
      <point x="240" y="309"/>
      <point x="227" y="256"/>
      <point x="227" y="206" type="curve" smooth="yes"/>
      <point x="227" y="161"/>
      <point x="237" y="132"/>
      <point x="259" y="113" type="curve"/>
      <point x="278" y="98"/>
      <point x="302" y="89"/>
      <point x="326" y="89" type="curve" smooth="yes"/>
      <point x="420" y="89"/>
      <point x="491" y="190"/>
      <point x="491" y="326" type="curve" smooth="yes"/>
      <point x="491" y="366"/>
      <point x="481" y="390"/>
      <point x="458" y="408" type="curve"/>
      <point x="438" y="422"/>
      <point x="411" y="431"/>
    </contour>
  </outline>
</glyph>
<glyph name="ntilde" format="1">
  <advance width="611"/>
  <unicode hex="00F1"/>
  <outline>
    <contour>
      <point x="178" y="540" type="line"/>
      <point x="318" y="540" type="line"/>
      <point x="300" y="458" type="line"/>
      <point x="354" y="522"/>
      <point x="408" y="549"/>
      <point x="482" y="549" type="curve" smooth="yes"/>
      <point x="571" y="549"/>
      <point x="629" y="497"/>
      <point x="629" y="417" type="curve" smooth="yes"/>
      <point x="629" y="399"/>
      <point x="627" y="381"/>
      <point x="623" y="362" type="curve" smooth="yes"/>
      <point x="546" y="0" type="line"/>
      <point x="406" y="0" type="line"/>
      <point x="473" y="313" type="line" smooth="yes"/>
      <point x="477" y="335"/>
      <point x="479" y="349"/>
      <point x="479" y="362" type="curve" smooth="yes"/>
      <point x="479" y="410"/>
      <point x="453" y="437"/>
      <point x="405" y="437" type="curve" smooth="yes"/>
      <point x="338" y="437"/>
      <point x="285" y="386"/>
      <point x="268" y="304" type="curve" smooth="yes"/>
      <point x="203" y="0" type="line"/>
      <point x="63" y="0" type="line"/>
    </contour>
    <contour>
      <point x="592" y="744" type="curve"/>
      <point x="646" y="744" type="line"/>
      <point x="635" y="705"/>
      <point x="624" y="683"/>
      <point x="605" y="663" type="curve" smooth="yes"/>
      <point x="580" y="637"/>
      <point x="545" y="622"/>
      <point x="513" y="622" type="curve" smooth="yes"/>
      <point x="496" y="622"/>
      <point x="475" y="627"/>
      <point x="462" y="633" type="curve" smooth="yes"/>
      <point x="412" y="658" type="line" smooth="yes"/>
      <point x="397" y="665"/>
      <point x="376" y="672"/>
      <point x="368" y="672" type="curve" smooth="yes"/>
      <point x="350" y="672"/>
      <point x="334" y="657"/>
      <point x="317" y="624" type="curve"/>
      <point x="263" y="624" type="line"/>
      <point x="286" y="699"/>
      <point x="330" y="741"/>
      <point x="384" y="741" type="curve" smooth="yes"/>
      <point x="409" y="741"/>
      <point x="423" y="738"/>
      <point x="455" y="724" type="curve" smooth="yes"/>
      <point x="505" y="703" type="line" smooth="yes"/>
      <point x="524" y="694"/>
      <point x="526" y="693"/>
      <point x="538" y="693" type="curve" smooth="yes"/>
      <point x="561" y="693"/>
      <point x="578" y="710"/>
    </contour>
  </outline>
</glyph>
<glyph name="ugrave" format="1">
  <advance width="611"/>
  <unicode hex="00F9"/>
  <outline>
    <contour>
      <point x="541" y="0" type="line"/>
      <point x="401" y="0" type="line"/>
      <point x="416" y="68" type="line"/>
      <point x="362" y="4"/>
      <point x="308" y="-23"/>
      <point x="234" y="-23" type="curve" smooth="yes"/>
      <point x="146" y="-23"/>
      <point x="88" y="29"/>
      <point x="88" y="109" type="curve" smooth="yes"/>
      <point x="88" y="127"/>
      <point x="90" y="145"/>
      <point x="94" y="164" type="curve" smooth="yes"/>
      <point x="174" y="540" type="line"/>
      <point x="314" y="540" type="line"/>
      <point x="244" y="213" type="line" smooth="yes"/>
      <point x="240" y="190"/>
      <point x="238" y="178"/>
      <point x="238" y="164" type="curve" smooth="yes"/>
      <point x="238" y="115"/>
      <point x="264" y="89"/>
      <point x="314" y="89" type="curve" smooth="yes"/>
      <point x="379" y="89"/>
      <point x="431" y="141"/>
      <point x="448" y="222" type="curve" smooth="yes"/>
      <point x="516" y="540" type="line"/>
      <point x="656" y="540" type="line"/>
    </contour>
    <contour>
      <point x="325" y="757" type="line"/>
      <point x="444" y="757" type="line"/>
      <point x="489" y="607" type="line"/>
      <point x="426" y="607" type="line"/>
    </contour>
  </outline>
</glyph>
<glyph name="thorn" format="1">
  <advance width="611"/>
  <unicode hex="00FE"/>
  <outline>
    <contour>
      <point x="352" y="729" type="line"/>
      <point x="295" y="460" type="line"/>
      <point x="341" y="519"/>
      <point x="397" y="549"/>
      <point x="464" y="549" type="curve" smooth="yes"/>
      <point x="569" y="549"/>
      <point x="637" y="468"/>
      <point x="637" y="343" type="curve" smooth="yes"/>
      <point x="637" y="142"/>
      <point x="505" y="-23"/>
      <point x="344" y="-23" type="curve" smooth="yes"/>
      <point x="274" y="-23"/>
      <point x="232" y="5"/>
      <point x="211" y="64" type="curve"/>
      <point x="151" y="-218" type="line"/>
      <point x="11" y="-218" type="line"/>
      <point x="212" y="729" type="line"/>
    </contour>
    <contour>
      <point x="406" y="437" type="curve" smooth="yes"/>
      <point x="320" y="437"/>
      <point x="246" y="327"/>
      <point x="246" y="202" type="curve" smooth="yes"/>
      <point x="246" y="134"/>
      <point x="281" y="89"/>
      <point x="334" y="89" type="curve" smooth="yes"/>
      <point x="420" y="89"/>
      <point x="494" y="197"/>
      <point x="494" y="323" type="curve" smooth="yes"/>
      <point x="494" y="392"/>
      <point x="459" y="437"/>
    </contour>
  </outline>
</glyph>
<glyph name="Abreve" format="1">
  <advance width="722"/>
  <unicode hex="0102"/>
  <outline>
    <contour>
      <point x="532" y="147" type="line"/>
      <point x="260" y="147" type="line"/>
      <point x="179" y="0" type="line"/>
      <point x="26" y="0" type="line"/>
      <point x="433" y="729" type="line"/>
      <point x="606" y="729" type="line"/>
      <point x="703" y="0" type="line"/>
      <point x="550" y="0" type="line"/>
    </contour>
    <contour>
      <point x="518" y="272" type="line"/>
      <point x="483" y="555" type="line"/>
      <point x="329" y="272" type="line"/>
    </contour>
    <contour>
      <point x="651" y="934" type="curve"/>
      <point x="693" y="934" type="line"/>
      <point x="679" y="852"/>
      <point x="611" y="791"/>
      <point x="532" y="791" type="curve" smooth="yes"/>
      <point x="469" y="791"/>
      <point x="426" y="833"/>
      <point x="426" y="895" type="curve" smooth="yes"/>
      <point x="426" y="907"/>
      <point x="427" y="916"/>
      <point x="432" y="934" type="curve"/>
      <point x="474" y="934" type="line"/>
      <point x="474" y="926" type="line" smooth="yes"/>
      <point x="474" y="890"/>
      <point x="501" y="869"/>
      <point x="548" y="869" type="curve" smooth="yes"/>
      <point x="599" y="869"/>
      <point x="634" y="891"/>
    </contour>
  </outline>
</glyph>
<glyph name="Aogonek" format="1">
  <advance width="722"/>
  <unicode hex="0104"/>
  <outline>
    <contour>
      <point x="532" y="147" type="line"/>
      <point x="260" y="147" type="line"/>
      <point x="179" y="0" type="line"/>
      <point x="26" y="0" type="line"/>
      <point x="433" y="729" type="line"/>
      <point x="606" y="729" type="line"/>
      <point x="703" y="0" type="line"/>
      <point x="625" y="-32"/>
      <point x="569" y="-91"/>
      <point x="569" y="-140" type="curve" smooth="yes"/>
      <point x="569" y="-170"/>
      <point x="586" y="-183"/>
      <point x="624" y="-183" type="curve" smooth="yes"/>
      <point x="650" y="-183"/>
      <point x="672" y="-180"/>
      <point x="696" y="-172" type="curve"/>
      <point x="685" y="-224" type="line"/>
      <point x="654" y="-231"/>
      <point x="633" y="-233"/>
      <point x="605" y="-233" type="curve" smooth="yes"/>
      <point x="518" y="-233"/>
      <point x="469" y="-205"/>
      <point x="469" y="-155" type="curve" smooth="yes"/>
      <point x="469" y="-115"/>
      <point x="494" y="-74"/>
      <point x="537" y="-43" type="curve" smooth="yes"/>
      <point x="561" y="-25"/>
      <point x="581" y="-15"/>
      <point x="625" y="0" type="curve"/>
      <point x="550" y="0" type="line"/>
    </contour>
    <contour>
      <point x="518" y="272" type="line"/>
      <point x="483" y="555" type="line"/>
      <point x="329" y="272" type="line"/>
    </contour>
  </outline>
</glyph>
<glyph name="dcaron" format="1">
  <advance width="722"/>
  <unicode hex="010F"/>
  <outline>
    <contour>
      <point x="405" y="0" type="line"/>
      <point x="417" y="55" type="line"/>
      <point x="371" y="2"/>
      <point x="318" y="-23"/>
      <point x="251" y="-23" type="curve" smooth="yes"/>
      <point x="147" y="-23"/>
      <point x="79" y="59"/>
      <point x="79" y="185" type="curve" smooth="yes"/>
      <point x="79" y="267"/>
      <point x="108" y="357"/>
      <point x="157" y="428" type="curve" smooth="yes"/>
      <point x="209" y="503"/>
      <point x="291" y="549"/>
      <point x="372" y="549" type="curve" smooth="yes"/>
      <point x="440" y="549"/>
      <point x="482" y="524"/>
      <point x="505" y="470" type="curve"/>
      <point x="560" y="729" type="line"/>
      <point x="700" y="729" type="line"/>
      <point x="545" y="0" type="line"/>
    </contour>
    <contour>
      <point x="380" y="437" type="curve" smooth="yes"/>
      <point x="297" y="437"/>
      <point x="222" y="327"/>
      <point x="222" y="206" type="curve" smooth="yes"/>
      <point x="222" y="134"/>
      <point x="256" y="89"/>
      <point x="309" y="89" type="curve" smooth="yes"/>
      <point x="394" y="89"/>
      <point x="468" y="197"/>
      <point x="468" y="323" type="curve" smooth="yes"/>
      <point x="468" y="393"/>
      <point x="434" y="437"/>
    </contour>
    <contour>
      <point x="760" y="729" type="line"/>
      <point x="882" y="729" type="line"/>
      <point x="861" y="633" type="line"/>
      <point x="851" y="555"/>
      <point x="784" y="488"/>
      <point x="708" y="482" type="curve"/>
      <point x="718" y="528" type="line"/>
      <point x="762" y="536"/>
      <point x="797" y="572"/>
      <point x="803" y="617" type="curve"/>
      <point x="736" y="617" type="line"/>
    </contour>
  </outline>
</glyph>
<glyph name="edotaccent" format="1">
  <advance width="556"/>
  <unicode hex="0117"/>
  <outline>
    <contour>
      <point x="573" y="226" type="curve"/>
      <point x="210" y="226" type="line"/>
      <point x="207" y="198"/>
      <point x="207" y="190"/>
      <point x="207" y="181" type="curve" smooth="yes"/>
      <point x="207" y="126"/>
      <point x="245" y="89"/>
      <point x="302" y="89" type="curve" smooth="yes"/>
      <point x="350" y="89"/>
      <point x="394" y="114"/>
      <point x="414" y="152" type="curve"/>
      <point x="552" y="152" type="line"/>
      <point x="497" y="41"/>
      <point x="396" y="-23"/>
      <point x="275" y="-23" type="curve" smooth="yes"/>
      <point x="150" y="-23"/>
      <point x="64" y="61"/>
      <point x="64" y="185" type="curve" smooth="yes"/>
      <point x="64" y="285"/>
      <point x="110" y="402"/>
      <point x="174" y="469" type="curve" smooth="yes"/>
      <point x="221" y="518"/>
      <point x="301" y="549"/>
      <point x="379" y="549" type="curve" smooth="yes"/>
      <point x="452" y="549"/>
      <point x="510" y="525"/>
      <point x="546" y="480" type="curve" smooth="yes"/>
      <point x="574" y="444"/>
      <point x="591" y="397"/>
      <point x="591" y="351" type="curve" smooth="yes"/>
      <point x="591" y="313"/>
      <point x="585" y="271"/>
    </contour>
    <contour>
      <point x="448" y="319" type="line"/>
      <point x="448" y="334" type="line" smooth="yes"/>
      <point x="448" y="366"/>
      <point x="446" y="377"/>
      <point x="439" y="392" type="curve" smooth="yes"/>
      <point x="426" y="420"/>
      <point x="397" y="437"/>
      <point x="362" y="437" type="curve" smooth="yes"/>
      <point x="322" y="437"/>
      <point x="282" y="418"/>
      <point x="258" y="386" type="curve" smooth="yes"/>
      <point x="245" y="369"/>
      <point x="237" y="351"/>
      <point x="228" y="319" type="curve"/>
    </contour>
    <contour>
      <point x="482" y="741" type="line"/>
      <point x="456" y="621" type="line"/>
      <point x="346" y="621" type="line"/>
      <point x="372" y="741" type="line"/>
    </contour>
  </outline>
</glyph>
<glyph name="gbreve" format="1">
  <advance width="611"/>
  <unicode hex="011F"/>
  <outline>
    <contour>
      <point x="523" y="540" type="line"/>
      <point x="656" y="540" type="line"/>
      <point x="537" y="-18" type="line" smooth="yes"/>
      <point x="510" y="-146"/>
      <point x="401" y="-218"/>
      <point x="235" y="-218" type="curve" smooth="yes"/>
      <point x="173" y="-218"/>
      <point x="129" y="-210"/>
      <point x="93" y="-192" type="curve" smooth="yes"/>
      <point x="52" y="-172"/>
      <point x="26" y="-134"/>
      <point x="26" y="-96" type="curve" smooth="yes"/>
      <point x="26" y="-88"/>
      <point x="27" y="-77"/>
      <point x="29" y="-65" type="curve"/>
      <point x="173" y="-65" type="line"/>
      <point x="172" y="-77" type="line"/>
      <point x="172" y="-106"/>
      <point x="209" y="-128"/>
      <point x="258" y="-128" type="curve" smooth="yes"/>
      <point x="331" y="-128"/>
      <point x="390" y="-83"/>
      <point x="404" y="-18" type="curve" smooth="yes"/>
      <point x="420" y="55" type="line"/>
      <point x="356" y="-4"/>
      <point x="316" y="-23"/>
      <point x="254" y="-23" type="curve" smooth="yes"/>
      <point x="153" y="-23"/>
      <point x="79" y="57"/>
      <point x="79" y="167" type="curve" smooth="yes"/>
      <point x="79" y="264"/>
      <point x="116" y="374"/>
      <point x="174" y="445" type="curve" smooth="yes"/>
      <point x="227" y="511"/>
      <point x="302" y="549"/>
      <point x="378" y="549" type="curve" smooth="yes"/>
      <point x="437" y="549"/>
      <point x="478" y="519"/>
      <point x="505" y="457" type="curve"/>
    </contour>
    <contour>
      <point x="379" y="437" type="curve" smooth="yes"/>
      <point x="297" y="437"/>
      <point x="222" y="324"/>
      <point x="222" y="201" type="curve" smooth="yes"/>
      <point x="222" y="132"/>
      <point x="254" y="89"/>
      <point x="306" y="89" type="curve" smooth="yes"/>
      <point x="395" y="89"/>
      <point x="471" y="193"/>
      <point x="471" y="315" type="curve" smooth="yes"/>
      <point x="471" y="389"/>
      <point x="435" y="437"/>
    </contour>
    <contour>
      <point x="555" y="754" type="curve"/>
      <point x="597" y="754" type="line"/>
      <point x="583" y="672"/>
      <point x="515" y="611"/>
      <point x="436" y="611" type="curve" smooth="yes"/>
      <point x="373" y="611"/>
      <point x="330" y="653"/>
      <point x="330" y="715" type="curve" smooth="yes"/>
      <point x="330" y="727"/>
      <point x="331" y="736"/>
      <point x="336" y="754" type="curve"/>
      <point x="378" y="754" type="line"/>
      <point x="378" y="746" type="line" smooth="yes"/>
      <point x="378" y="710"/>
      <point x="405" y="689"/>
      <point x="452" y="689" type="curve" smooth="yes"/>
      <point x="503" y="689"/>
      <point x="538" y="711"/>
    </contour>
  </outline>
</glyph>
<glyph name="gcommaaccent" format="1">
  <advance width="611"/>
  <unicode hex="0123"/>
  <outline>
    <contour>
      <point x="523" y="540" type="line"/>
      <point x="656" y="540" type="line"/>
      <point x="537" y="-18" type="line" smooth="yes"/>
      <point x="510" y="-146"/>
      <point x="401" y="-218"/>
      <point x="235" y="-218" type="curve" smooth="yes"/>
      <point x="173" y="-218"/>
      <point x="129" y="-210"/>
      <point x="93" y="-192" type="curve" smooth="yes"/>
      <point x="52" y="-172"/>
      <point x="26" y="-134"/>
      <point x="26" y="-96" type="curve" smooth="yes"/>
      <point x="26" y="-88"/>
      <point x="27" y="-77"/>
      <point x="29" y="-65" type="curve"/>
      <point x="173" y="-65" type="line"/>
      <point x="172" y="-77" type="line"/>
      <point x="172" y="-106"/>
      <point x="209" y="-128"/>
      <point x="258" y="-128" type="curve" smooth="yes"/>
      <point x="331" y="-128"/>
      <point x="390" y="-83"/>
      <point x="404" y="-18" type="curve" smooth="yes"/>
      <point x="420" y="55" type="line"/>
      <point x="356" y="-4"/>
      <point x="316" y="-23"/>
      <point x="254" y="-23" type="curve" smooth="yes"/>
      <point x="153" y="-23"/>
      <point x="79" y="57"/>
      <point x="79" y="167" type="curve" smooth="yes"/>
      <point x="79" y="264"/>
      <point x="116" y="374"/>
      <point x="174" y="445" type="curve" smooth="yes"/>
      <point x="227" y="511"/>
      <point x="302" y="549"/>
      <point x="378" y="549" type="curve" smooth="yes"/>
      <point x="437" y="549"/>
      <point x="478" y="519"/>
      <point x="505" y="457" type="curve"/>
    </contour>
    <contour>
      <point x="379" y="437" type="curve" smooth="yes"/>
      <point x="297" y="437"/>
      <point x="222" y="324"/>
      <point x="222" y="201" type="curve" smooth="yes"/>
      <point x="222" y="132"/>
      <point x="254" y="89"/>
      <point x="306" y="89" type="curve" smooth="yes"/>
      <point x="395" y="89"/>
      <point x="471" y="193"/>
      <point x="471" y="315" type="curve" smooth="yes"/>
      <point x="471" y="389"/>
      <point x="435" y="437"/>
    </contour>
    <contour>
      <point x="493" y="607" type="line"/>
      <point x="371" y="607" type="line"/>
      <point x="391" y="703" type="line"/>
      <point x="402" y="781"/>
      <point x="469" y="848"/>
      <point x="545" y="854" type="curve"/>
      <point x="535" y="808" type="line"/>
      <point x="490" y="800"/>
      <point x="456" y="764"/>
      <point x="450" y="719" type="curve"/>
      <point x="516" y="719" type="line"/>
    </contour>
  </outline>
</glyph>
<glyph name="Hbar" format="1">
  <advance width="762"/>
  <unicode hex="0126"/>
  <outline>
    <contour>
      <point x="814" y="642" type="line"/>
      <point x="882" y="642" type="line"/>
      <point x="865" y="562" type="line"/>
      <point x="796" y="562" type="line"/>
      <point x="677" y="0" type="line"/>
      <point x="527" y="0" type="line"/>
      <point x="597" y="331" type="line"/>
      <point x="308" y="331" type="line"/>
      <point x="238" y="0" type="line"/>
      <point x="88" y="0" type="line"/>
      <point x="207" y="562" type="line"/>
      <point x="137" y="562" type="line"/>
      <point x="154" y="642" type="line"/>
      <point x="225" y="642" type="line"/>
      <point x="243" y="729" type="line"/>
      <point x="393" y="729" type="line"/>
      <point x="375" y="642" type="line"/>
      <point x="663" y="642" type="line"/>
      <point x="681" y="729" type="line"/>
      <point x="832" y="729" type="line"/>
    </contour>
    <contour>
      <point x="646" y="562" type="line"/>
      <point x="358" y="562" type="line"/>
      <point x="335" y="456" type="line"/>
      <point x="623" y="456" type="line"/>
    </contour>
  </outline>
</glyph>
<glyph name="hbar" format="1">
  <advance width="611"/>
  <unicode hex="0127"/>
  <outline>
    <contour>
      <point x="204" y="643" type="line"/>
      <point x="222" y="729" type="line"/>
      <point x="362" y="729" type="line"/>
      <point x="344" y="643" type="line"/>
      <point x="447" y="643" type="line"/>
      <point x="430" y="563" type="line"/>
      <point x="326" y="563" type="line"/>
      <point x="304" y="458" type="line"/>
      <point x="357" y="521"/>
      <point x="413" y="549"/>
      <point x="484" y="549" type="curve" smooth="yes"/>
      <point x="571" y="549"/>
      <point x="629" y="496"/>
      <point x="629" y="417" type="curve" smooth="yes"/>
      <point x="629" y="399"/>
      <point x="627" y="381"/>
      <point x="623" y="362" type="curve" smooth="yes"/>
      <point x="546" y="0" type="line"/>
      <point x="406" y="0" type="line"/>
      <point x="473" y="313" type="line" smooth="yes"/>
      <point x="477" y="334"/>
      <point x="479" y="348"/>
      <point x="479" y="361" type="curve" smooth="yes"/>
      <point x="479" y="410"/>
      <point x="453" y="437"/>
      <point x="406" y="437" type="curve" smooth="yes"/>
      <point x="342" y="437"/>
      <point x="289" y="385"/>
      <point x="272" y="304" type="curve" smooth="yes"/>
      <point x="207" y="0" type="line"/>
      <point x="67" y="0" type="line"/>
      <point x="187" y="563" type="line"/>
      <point x="130" y="563" type="line"/>
      <point x="147" y="643" type="line"/>
    </contour>
  </outline>
</glyph>
<glyph name="imacron" format="1">
  <advance width="278"/>
  <unicode hex="012B"/>
  <outline>
    <contour>
      <point x="322" y="540" type="line"/>
      <point x="207" y="0" type="line"/>
      <point x="67" y="0" type="line"/>
      <point x="182" y="540" type="line"/>
    </contour>
    <contour>
      <point x="424" y="722" type="line"/>
      <point x="407" y="642" type="line"/>
      <point x="140" y="642" type="line"/>
      <point x="157" y="722" type="line"/>
    </contour>
  </outline>
</glyph>
<glyph name="IJ" format="1">
  <advance width="782"/>
  <unicode hex="0132"/>
  <outline>
    <contour>
      <point x="726" y="729" type="line"/>
      <point x="876" y="729" type="line"/>
      <point x="761" y="190" type="line" smooth="yes"/>
      <point x="732" y="54"/>
      <point x="631" y="-23"/>
      <point x="482" y="-23" type="curve" smooth="yes"/>
      <point x="375" y="-23"/>
      <point x="293" y="28"/>
      <point x="293" y="132" type="curve" smooth="yes"/>
      <point x="293" y="151"/>
      <point x="296" y="173"/>
      <point x="301" y="198" type="curve" smooth="yes"/>
      <point x="316" y="270" type="line"/>
      <point x="466" y="270" type="line"/>
      <point x="451" y="200" type="line" smooth="yes"/>
      <point x="448" y="186"/>
      <point x="446" y="173"/>
      <point x="446" y="162" type="curve" smooth="yes"/>
      <point x="446" y="122"/>
      <point x="467" y="105"/>
      <point x="512" y="105" type="curve" smooth="yes"/>
      <point x="558" y="105"/>
      <point x="600" y="135"/>
      <point x="611" y="190" type="curve" smooth="yes"/>
    </contour>
    <contour>
      <point x="368" y="729" type="line"/>
      <point x="213" y="0" type="line"/>
      <point x="63" y="0" type="line"/>
      <point x="218" y="729" type="line"/>
    </contour>
  </outline>
</glyph>
<glyph name="ij" format="1">
  <advance width="476"/>
  <unicode hex="0133"/>
  <outline>
    <contour>
      <point x="575" y="729" type="line"/>
      <point x="548" y="604" type="line"/>
      <point x="408" y="604" type="line"/>
      <point x="435" y="729" type="line"/>
    </contour>
    <contour>
      <point x="535" y="540" type="line"/>
      <point x="400" y="-94" type="line" smooth="yes"/>
      <point x="382" y="-181"/>
      <point x="326" y="-218"/>
      <point x="212" y="-218" type="curve" smooth="yes"/>
      <point x="193" y="-218"/>
      <point x="181" y="-217"/>
      <point x="167" y="-213" type="curve"/>
      <point x="191" y="-102" type="line"/>
      <point x="195" y="-105"/>
      <point x="202" y="-106"/>
      <point x="216" y="-106" type="curve" smooth="yes"/>
      <point x="246" y="-106"/>
      <point x="260" y="-94"/>
      <point x="267" y="-62" type="curve" smooth="yes"/>
      <point x="395" y="540" type="line"/>
    </contour>
    <contour>
      <point x="322" y="540" type="line"/>
      <point x="207" y="0" type="line"/>
      <point x="67" y="0" type="line"/>
      <point x="182" y="540" type="line"/>
    </contour>
    <contour>
      <point x="362" y="729" type="line"/>
      <point x="335" y="604" type="line"/>
      <point x="195" y="604" type="line"/>
      <point x="222" y="729" type="line"/>
    </contour>
  </outline>
</glyph>
<glyph name="jcircumflex" format="1">
  <advance width="278"/>
  <unicode hex="0135"/>
  <outline>
    <contour>
      <point x="325" y="540" type="line"/>
      <point x="190" y="-94" type="line" smooth="yes"/>
      <point x="172" y="-181"/>
      <point x="116" y="-218"/>
      <point x="2" y="-218" type="curve" smooth="yes"/>
      <point x="-17" y="-218"/>
      <point x="-29" y="-217"/>
      <point x="-43" y="-213" type="curve"/>
      <point x="-19" y="-102" type="line"/>
      <point x="-15" y="-105"/>
      <point x="-8" y="-106"/>
      <point x="6" y="-106" type="curve" smooth="yes"/>
      <point x="36" y="-106"/>
      <point x="50" y="-94"/>
      <point x="57" y="-62" type="curve" smooth="yes"/>
      <point x="185" y="540" type="line"/>
    </contour>
    <contour>
      <point x="263" y="862" type="line"/>
      <point x="371" y="862" type="line"/>
      <point x="442" y="715" type="line"/>
      <point x="364" y="715" type="line"/>
      <point x="303" y="812" type="line"/>
      <point x="200" y="715" type="line"/>
      <point x="124" y="715" type="line"/>
    </contour>
  </outline>
</glyph>
<glyph name="Kcommaaccent" format="1">
  <advance width="722"/>
  <unicode hex="0136"/>
  <outline>
    <contour>
      <point x="274" y="234" type="line"/>
      <point x="224" y="0" type="line"/>
      <point x="74" y="0" type="line"/>
      <point x="229" y="729" type="line"/>
      <point x="379" y="729" type="line"/>
      <point x="311" y="409" type="line"/>
      <point x="665" y="729" type="line"/>
      <point x="843" y="729" type="line"/>
      <point x="482" y="410" type="line"/>
      <point x="717" y="0" type="line"/>
      <point x="538" y="0" type="line"/>
      <point x="365" y="314" type="line"/>
    </contour>
    <contour>
      <point x="305" y="-60" type="line"/>
      <point x="427" y="-60" type="line"/>
      <point x="406" y="-156" type="line"/>
      <point x="396" y="-234"/>
      <point x="329" y="-301"/>
      <point x="253" y="-307" type="curve"/>
      <point x="263" y="-261" type="line"/>
      <point x="307" y="-253"/>
      <point x="342" y="-217"/>
      <point x="348" y="-172" type="curve"/>
      <point x="281" y="-172" type="line"/>
    </contour>
  </outline>
</glyph>
<glyph name="kcommaaccent" format="1">
  <advance width="556"/>
  <unicode hex="0137"/>
  <outline>
    <contour>
      <point x="354" y="729" type="line"/>
      <point x="269" y="330" type="line"/>
      <point x="492" y="540" type="line"/>
      <point x="651" y="540" type="line"/>
      <point x="419" y="334" type="line"/>
      <point x="548" y="0" type="line"/>
      <point x="384" y="0" type="line"/>
      <point x="305" y="239" type="line"/>
      <point x="237" y="177" type="line"/>
      <point x="199" y="0" type="line"/>
      <point x="59" y="0" type="line"/>
      <point x="214" y="729" type="line"/>
    </contour>
    <contour>
      <point x="220" y="-60" type="line"/>
      <point x="342" y="-60" type="line"/>
      <point x="321" y="-156" type="line"/>
      <point x="311" y="-234"/>
      <point x="244" y="-301"/>
      <point x="168" y="-307" type="curve"/>
      <point x="178" y="-261" type="line"/>
      <point x="222" y="-253"/>
      <point x="257" y="-217"/>
      <point x="263" y="-172" type="curve"/>
      <point x="196" y="-172" type="line"/>
    </contour>
  </outline>
</glyph>
<glyph name="Lacute" format="1">
  <advance width="611"/>
  <unicode hex="0139"/>
  <outline>
    <contour>
      <point x="385" y="729" type="line"/>
      <point x="257" y="125" type="line"/>
      <point x="606" y="125" type="line"/>
      <point x="579" y="0" type="line"/>
      <point x="80" y="0" type="line"/>
      <point x="235" y="729" type="line"/>
    </contour>
    <contour>
      <point x="494" y="936" type="line"/>
      <point x="336" y="786" type="line"/>
      <point x="266" y="786" type="line"/>
      <point x="368" y="936" type="line"/>
    </contour>
  </outline>
</glyph>
<glyph name="lacute" format="1">
  <advance width="278"/>
  <unicode hex="013A"/>
  <outline>
    <contour>
      <point x="362" y="729" type="line"/>
      <point x="207" y="0" type="line"/>
      <point x="67" y="0" type="line"/>
      <point x="222" y="729" type="line"/>
    </contour>
    <contour>
      <point x="474" y="936" type="line"/>
      <point x="316" y="786" type="line"/>
      <point x="246" y="786" type="line"/>
      <point x="348" y="936" type="line"/>
    </contour>
  </outline>
</glyph>
<glyph name="Lcommaaccent" format="1">
  <advance width="611"/>
  <unicode hex="013B"/>
  <outline>
    <contour>
      <point x="385" y="729" type="line"/>
      <point x="257" y="125" type="line"/>
      <point x="606" y="125" type="line"/>
      <point x="579" y="0" type="line"/>
      <point x="80" y="0" type="line"/>
      <point x="235" y="729" type="line"/>
    </contour>
    <contour>
      <point x="265" y="-62" type="line"/>
      <point x="387" y="-62" type="line"/>
      <point x="366" y="-158" type="line"/>
      <point x="356" y="-236"/>
      <point x="289" y="-303"/>
      <point x="213" y="-309" type="curve"/>
      <point x="223" y="-263" type="line"/>
      <point x="267" y="-255"/>
      <point x="302" y="-219"/>
      <point x="308" y="-174" type="curve"/>
      <point x="241" y="-174" type="line"/>
    </contour>
  </outline>
</glyph>
<glyph name="Lcaron" format="1">
  <advance width="611"/>
  <unicode hex="013D"/>
  <outline>
    <contour>
      <point x="385" y="729" type="line"/>
      <point x="257" y="125" type="line"/>
      <point x="606" y="125" type="line"/>
      <point x="579" y="0" type="line"/>
      <point x="80" y="0" type="line"/>
      <point x="235" y="729" type="line"/>
    </contour>
    <contour>
      <point x="485" y="729" type="line"/>
      <point x="607" y="729" type="line"/>
      <point x="586" y="633" type="line"/>
      <point x="576" y="555"/>
      <point x="509" y="488"/>
      <point x="433" y="482" type="curve"/>
      <point x="443" y="528" type="line"/>
      <point x="487" y="536"/>
      <point x="522" y="572"/>
      <point x="528" y="617" type="curve"/>
      <point x="461" y="617" type="line"/>
    </contour>
  </outline>
</glyph>
<glyph name="lcaron" format="1">
  <advance width="384"/>
  <unicode hex="013E"/>
  <outline>
    <contour>
      <point x="362" y="729" type="line"/>
      <point x="207" y="0" type="line"/>
      <point x="67" y="0" type="line"/>
      <point x="222" y="729" type="line"/>
    </contour>
    <contour>
      <point x="422" y="729" type="line"/>
      <point x="544" y="729" type="line"/>
      <point x="523" y="633" type="line"/>
      <point x="513" y="555"/>
      <point x="446" y="488"/>
      <point x="370" y="482" type="curve"/>
      <point x="380" y="528" type="line"/>
      <point x="424" y="536"/>
      <point x="459" y="572"/>
      <point x="465" y="617" type="curve"/>
      <point x="398" y="617" type="line"/>
    </contour>
  </outline>
</glyph>
<glyph name="Ldot" format="1">
  <advance width="611"/>
  <unicode hex="013F"/>
  <outline>
    <contour>
      <point x="553" y="414" type="line"/>
      <point x="531" y="314" type="line"/>
      <point x="426" y="314" type="line"/>
      <point x="448" y="414" type="line"/>
    </contour>
    <contour>
      <point x="385" y="729" type="line"/>
      <point x="257" y="125" type="line"/>
      <point x="606" y="125" type="line"/>
      <point x="579" y="0" type="line"/>
      <point x="80" y="0" type="line"/>
      <point x="235" y="729" type="line"/>
    </contour>
  </outline>
</glyph>
<glyph name="ldot" format="1">
  <advance width="556"/>
  <unicode hex="0140"/>
  <outline>
    <contour>
      <point x="518" y="394" type="line"/>
      <point x="496" y="294" type="line"/>
      <point x="391" y="294" type="line"/>
      <point x="413" y="394" type="line"/>
    </contour>
    <contour>
      <point x="362" y="729" type="line"/>
      <point x="207" y="0" type="line"/>
      <point x="67" y="0" type="line"/>
      <point x="222" y="729" type="line"/>
    </contour>
  </outline>
</glyph>
<glyph name="Lslash" format="1">
  <advance width="611"/>
  <unicode hex="0141"/>
  <outline>
    <contour>
      <point x="338" y="421" type="line"/>
      <point x="525" y="531" type="line"/>
      <point x="505" y="437" type="line"/>
      <point x="318" y="327" type="line"/>
      <point x="275" y="125" type="line"/>
      <point x="624" y="125" type="line"/>
      <point x="597" y="0" type="line"/>
      <point x="98" y="0" type="line"/>
      <point x="154" y="262" type="line"/>
      <point x="54" y="201" type="line"/>
      <point x="74" y="295" type="line"/>
      <point x="174" y="356" type="line"/>
      <point x="253" y="729" type="line"/>
      <point x="403" y="729" type="line"/>
    </contour>
  </outline>
</glyph>
<glyph name="Ncommaaccent" format="1">
  <advance width="722"/>
  <unicode hex="0145"/>
  <outline>
    <contour>
      <point x="816" y="729" type="line"/>
      <point x="661" y="0" type="line"/>
      <point x="513" y="0" type="line"/>
      <point x="321" y="523" type="line"/>
      <point x="210" y="0" type="line"/>
      <point x="68" y="0" type="line"/>
      <point x="223" y="729" type="line"/>
      <point x="373" y="729" type="line"/>
      <point x="565" y="214" type="line"/>
      <point x="674" y="729" type="line"/>
    </contour>
    <contour>
      <point x="288" y="-60" type="line"/>
      <point x="410" y="-60" type="line"/>
      <point x="389" y="-156" type="line"/>
      <point x="379" y="-234"/>
      <point x="312" y="-301"/>
      <point x="236" y="-307" type="curve"/>
      <point x="246" y="-261" type="line"/>
      <point x="290" y="-253"/>
      <point x="325" y="-217"/>
      <point x="331" y="-172" type="curve"/>
      <point x="264" y="-172" type="line"/>
    </contour>
  </outline>
</glyph>
<glyph name="ncommaaccent" format="1">
  <advance width="611"/>
  <unicode hex="0146"/>
  <outline>
    <contour>
      <point x="178" y="540" type="line"/>
      <point x="318" y="540" type="line"/>
      <point x="300" y="458" type="line"/>
      <point x="354" y="522"/>
      <point x="408" y="549"/>
      <point x="482" y="549" type="curve" smooth="yes"/>
      <point x="571" y="549"/>
      <point x="629" y="497"/>
      <point x="629" y="417" type="curve" smooth="yes"/>
      <point x="629" y="399"/>
      <point x="627" y="381"/>
      <point x="623" y="362" type="curve" smooth="yes"/>
      <point x="546" y="0" type="line"/>
      <point x="406" y="0" type="line"/>
      <point x="473" y="313" type="line" smooth="yes"/>
      <point x="477" y="335"/>
      <point x="479" y="349"/>
      <point x="479" y="362" type="curve" smooth="yes"/>
      <point x="479" y="410"/>
      <point x="453" y="437"/>
      <point x="405" y="437" type="curve" smooth="yes"/>
      <point x="338" y="437"/>
      <point x="285" y="386"/>
      <point x="268" y="304" type="curve" smooth="yes"/>
      <point x="203" y="0" type="line"/>
      <point x="63" y="0" type="line"/>
    </contour>
    <contour>
      <point x="231" y="-60" type="line"/>
      <point x="353" y="-60" type="line"/>
      <point x="332" y="-156" type="line"/>
      <point x="322" y="-234"/>
      <point x="255" y="-301"/>
      <point x="179" y="-307" type="curve"/>
      <point x="189" y="-261" type="line"/>
      <point x="233" y="-253"/>
      <point x="268" y="-217"/>
      <point x="274" y="-172" type="curve"/>
      <point x="207" y="-172" type="line"/>
    </contour>
  </outline>
</glyph>
<glyph name="Ncaron" format="1">
  <advance width="722"/>
  <unicode hex="0147"/>
  <outline>
    <contour>
      <point x="816" y="729" type="line"/>
      <point x="661" y="0" type="line"/>
      <point x="513" y="0" type="line"/>
      <point x="321" y="523" type="line"/>
      <point x="210" y="0" type="line"/>
      <point x="68" y="0" type="line"/>
      <point x="223" y="729" type="line"/>
      <point x="373" y="729" type="line"/>
      <point x="565" y="214" type="line"/>
      <point x="674" y="729" type="line"/>
    </contour>
    <contour>
      <point x="577" y="789" type="line"/>
      <point x="469" y="789" type="line"/>
      <point x="398" y="936" type="line"/>
      <point x="476" y="936" type="line"/>
      <point x="537" y="839" type="line"/>
      <point x="640" y="936" type="line"/>
      <point x="716" y="936" type="line"/>
    </contour>
  </outline>
</glyph>
<glyph name="ncaron" format="1">
  <advance width="611"/>
  <unicode hex="0148"/>
  <outline>
    <contour>
      <point x="178" y="540" type="line"/>
      <point x="318" y="540" type="line"/>
      <point x="300" y="458" type="line"/>
      <point x="354" y="522"/>
      <point x="408" y="549"/>
      <point x="482" y="549" type="curve" smooth="yes"/>
      <point x="571" y="549"/>
      <point x="629" y="497"/>
      <point x="629" y="417" type="curve" smooth="yes"/>
      <point x="629" y="399"/>
      <point x="627" y="381"/>
      <point x="623" y="362" type="curve" smooth="yes"/>
      <point x="546" y="0" type="line"/>
      <point x="406" y="0" type="line"/>
      <point x="473" y="313" type="line" smooth="yes"/>
      <point x="477" y="335"/>
      <point x="479" y="349"/>
      <point x="479" y="362" type="curve" smooth="yes"/>
      <point x="479" y="410"/>
      <point x="453" y="437"/>
      <point x="405" y="437" type="curve" smooth="yes"/>
      <point x="338" y="437"/>
      <point x="285" y="386"/>
      <point x="268" y="304" type="curve" smooth="yes"/>
      <point x="203" y="0" type="line"/>
      <point x="63" y="0" type="line"/>
    </contour>
    <contour>
      <point x="478" y="610" type="line"/>
      <point x="370" y="610" type="line"/>
      <point x="299" y="757" type="line"/>
      <point x="377" y="757" type="line"/>
      <point x="438" y="660" type="line"/>
      <point x="541" y="757" type="line"/>
      <point x="617" y="757" type="line"/>
    </contour>
  </outline>
</glyph>
<glyph name="napostrophe" format="1">
  <advance width="611"/>
  <unicode hex="0149"/>
  <outline>
    <contour>
      <point x="244" y="840" type="line"/>
      <point x="380" y="840" type="line"/>
      <point x="357" y="731" type="line"/>
      <point x="345" y="643"/>
      <point x="283" y="587"/>
      <point x="189" y="580" type="curve"/>
      <point x="199" y="626" type="line"/>
      <point x="257" y="636"/>
      <point x="289" y="665"/>
      <point x="298" y="715" type="curve"/>
      <point x="217" y="715" type="line"/>
    </contour>
    <contour>
      <point x="178" y="540" type="line"/>
      <point x="318" y="540" type="line"/>
      <point x="300" y="458" type="line"/>
      <point x="354" y="522"/>
      <point x="408" y="549"/>
      <point x="482" y="549" type="curve" smooth="yes"/>
      <point x="571" y="549"/>
      <point x="629" y="497"/>
      <point x="629" y="417" type="curve" smooth="yes"/>
      <point x="629" y="399"/>
      <point x="627" y="381"/>
      <point x="623" y="362" type="curve" smooth="yes"/>
      <point x="546" y="0" type="line"/>
      <point x="406" y="0" type="line"/>
      <point x="473" y="313" type="line" smooth="yes"/>
      <point x="477" y="335"/>
      <point x="479" y="349"/>
      <point x="479" y="362" type="curve" smooth="yes"/>
      <point x="479" y="410"/>
      <point x="453" y="437"/>
      <point x="405" y="437" type="curve" smooth="yes"/>
      <point x="338" y="437"/>
      <point x="285" y="386"/>
      <point x="268" y="304" type="curve" smooth="yes"/>
      <point x="203" y="0" type="line"/>
      <point x="63" y="0" type="line"/>
    </contour>
  </outline>
</glyph>
<glyph name="Eng" format="1">
  <advance width="722"/>
  <unicode hex="014A"/>
  <outline>
    <contour>
      <point x="513" y="0" type="curve" smooth="yes"/>
      <point x="321" y="523" type="line"/>
      <point x="210" y="0" type="line"/>
      <point x="68" y="0" type="line"/>
      <point x="223" y="729" type="line"/>
      <point x="373" y="729" type="line"/>
      <point x="565" y="214" type="line"/>
      <point x="674" y="729" type="line"/>
      <point x="816" y="729" type="line"/>
      <point x="660" y="0" type="line" smooth="yes"/>
      <point x="640" y="-92"/>
      <point x="604" y="-166"/>
      <point x="451" y="-166" type="curve" smooth="yes"/>
      <point x="347" y="-166" type="line"/>
      <point x="369" y="-59" type="line"/>
      <point x="424" y="-59" type="line" smooth="yes"/>
      <point x="482" y="-59"/>
      <point x="515" y="-39"/>
      <point x="515" y="-13" type="curve" smooth="yes"/>
      <point x="515" y="-9"/>
      <point x="515" y="-4"/>
    </contour>
  </outline>
</glyph>
<glyph name="eng" format="1">
  <advance width="611"/>
  <unicode hex="014B"/>
  <outline>
    <contour>
      <point x="406" y="0" type="curve" smooth="yes"/>
      <point x="473" y="313" type="line" smooth="yes"/>
      <point x="477" y="335"/>
      <point x="479" y="349"/>
      <point x="479" y="362" type="curve" smooth="yes"/>
      <point x="479" y="410"/>
      <point x="453" y="437"/>
      <point x="405" y="437" type="curve" smooth="yes"/>
      <point x="338" y="437"/>
      <point x="285" y="386"/>
      <point x="268" y="304" type="curve" smooth="yes"/>
      <point x="203" y="0" type="line"/>
      <point x="63" y="0" type="line"/>
      <point x="178" y="540" type="line"/>
      <point x="318" y="540" type="line"/>
      <point x="300" y="458" type="line"/>
      <point x="354" y="522"/>
      <point x="408" y="549"/>
      <point x="482" y="549" type="curve" smooth="yes"/>
      <point x="571" y="549"/>
      <point x="629" y="497"/>
      <point x="629" y="417" type="curve" smooth="yes"/>
      <point x="629" y="399"/>
      <point x="627" y="381"/>
      <point x="623" y="362" type="curve" smooth="yes"/>
      <point x="546" y="0" type="line" smooth="yes"/>
      <point x="530" y="-75"/>
      <point x="490" y="-132"/>
      <point x="403" y="-132" type="curve" smooth="yes"/>
      <point x="322" y="-132" type="line"/>
      <point x="340" y="-44" type="line"/>
      <point x="387" y="-44"/>
      <point x="401" y="-23"/>
    </contour>
  </outline>
</glyph>
<glyph name="rcommaaccent" format="1">
  <advance width="389"/>
  <unicode hex="0157"/>
  <outline>
    <contour>
      <point x="178" y="540" type="line"/>
      <point x="318" y="540" type="line"/>
      <point x="296" y="434" type="line"/>
      <point x="342" y="507"/>
      <point x="406" y="549"/>
      <point x="470" y="549" type="curve" smooth="yes"/>
      <point x="474" y="549"/>
      <point x="479" y="549"/>
      <point x="487" y="548" type="curve"/>
      <point x="457" y="406" type="line"/>
      <point x="439" y="409"/>
      <point x="429" y="410"/>
      <point x="414" y="410" type="curve" smooth="yes"/>
      <point x="332" y="410"/>
      <point x="282" y="369"/>
      <point x="264" y="287" type="curve" smooth="yes"/>
      <point x="203" y="0" type="line"/>
      <point x="63" y="0" type="line"/>
    </contour>
    <contour>
      <point x="60" y="-60" type="line"/>
      <point x="182" y="-60" type="line"/>
      <point x="161" y="-156" type="line"/>
      <point x="151" y="-234"/>
      <point x="84" y="-301"/>
      <point x="8" y="-307" type="curve"/>
      <point x="18" y="-261" type="line"/>
      <point x="62" y="-253"/>
      <point x="97" y="-217"/>
      <point x="103" y="-172" type="curve"/>
      <point x="36" y="-172" type="line"/>
    </contour>
  </outline>
</glyph>
<glyph name="Scedilla" format="1">
  <advance width="667"/>
  <unicode hex="015E"/>
  <outline>
    <contour>
      <point x="347" y="-23" type="curve"/>
      <point x="320" y="-62" type="line"/>
      <point x="335" y="-58"/>
      <point x="349" y="-56"/>
      <point x="364" y="-56" type="curve" smooth="yes"/>
      <point x="403" y="-56"/>
      <point x="427" y="-77"/>
      <point x="427" y="-113" type="curve" smooth="yes"/>
      <point x="427" y="-178"/>
      <point x="367" y="-220"/>
      <point x="277" y="-220" type="curve" smooth="yes"/>
      <point x="232" y="-220"/>
      <point x="200" y="-213"/>
      <point x="144" y="-191" type="curve"/>
      <point x="174" y="-140" type="line"/>
      <point x="221" y="-163"/>
      <point x="244" y="-170"/>
      <point x="273" y="-170" type="curve" smooth="yes"/>
      <point x="310" y="-170"/>
      <point x="340" y="-150"/>
      <point x="340" y="-126" type="curve" smooth="yes"/>
      <point x="340" y="-106"/>
      <point x="322" y="-93"/>
      <point x="296" y="-93" type="curve" smooth="yes"/>
      <point x="279" y="-93"/>
      <point x="267" y="-96"/>
      <point x="243" y="-106" type="curve"/>
      <point x="298" y="-22" type="line"/>
      <point x="220" y="-10"/>
      <point x="189" y="-1"/>
      <point x="156" y="22" type="curve" smooth="yes"/>
      <point x="104" y="58"/>
      <point x="76" y="112"/>
      <point x="76" y="174" type="curve" smooth="yes"/>
      <point x="76" y="188"/>
      <point x="77" y="198"/>
      <point x="80" y="218" type="curve"/>
      <point x="226" y="218" type="line"/>
      <point x="225" y="209"/>
      <point x="224" y="200"/>
      <point x="224" y="196" type="curve" smooth="yes"/>
      <point x="224" y="138"/>
      <point x="276" y="105"/>
      <point x="367" y="105" type="curve" smooth="yes"/>
      <point x="471" y="105"/>
      <point x="538" y="149"/>
      <point x="538" y="216" type="curve" smooth="yes"/>
      <point x="538" y="262"/>
      <point x="509" y="283"/>
      <point x="418" y="301" type="curve" smooth="yes"/>
      <point x="320" y="321" type="line" smooth="yes"/>
      <point x="201" y="345"/>
      <point x="151" y="389"/>
      <point x="151" y="472" type="curve" smooth="yes"/>
      <point x="151" y="543"/>
      <point x="186" y="618"/>
      <point x="243" y="667" type="curve" smooth="yes"/>
      <point x="300" y="717"/>
      <point x="376" y="741"/>
      <point x="473" y="741" type="curve" smooth="yes"/>
      <point x="631" y="741"/>
      <point x="725" y="677"/>
      <point x="725" y="569" type="curve" smooth="yes"/>
      <point x="725" y="549"/>
      <point x="723" y="535"/>
      <point x="717" y="507" type="curve"/>
      <point x="577" y="507" type="line"/>
      <point x="578" y="516"/>
      <point x="579" y="525"/>
      <point x="579" y="530" type="curve" smooth="yes"/>
      <point x="579" y="584"/>
      <point x="532" y="613"/>
      <point x="447" y="613" type="curve" smooth="yes"/>
      <point x="356" y="613"/>
      <point x="300" y="573"/>
      <point x="300" y="509" type="curve" smooth="yes"/>
      <point x="300" y="471"/>
      <point x="327" y="455"/>
      <point x="421" y="436" type="curve" smooth="yes"/>
      <point x="530" y="414" type="line" smooth="yes"/>
      <point x="632" y="394"/>
      <point x="687" y="342"/>
      <point x="687" y="265" type="curve" smooth="yes"/>
      <point x="687" y="182"/>
      <point x="647" y="96"/>
      <point x="586" y="48" type="curve" smooth="yes"/>
      <point x="525" y="0"/>
      <point x="451" y="-22"/>
    </contour>
  </outline>
</glyph>
<glyph name="Tcaron" format="1">
  <advance width="611"/>
  <unicode hex="0164"/>
  <outline>
    <contour>
      <point x="514" y="604" type="line"/>
      <point x="385" y="0" type="line"/>
      <point x="235" y="0" type="line"/>
      <point x="364" y="604" type="line"/>
      <point x="142" y="604" type="line"/>
      <point x="169" y="729" type="line"/>
      <point x="753" y="729" type="line"/>
      <point x="726" y="604" type="line"/>
    </contour>
    <contour>
      <point x="532" y="789" type="line"/>
      <point x="424" y="789" type="line"/>
      <point x="353" y="936" type="line"/>
      <point x="431" y="936" type="line"/>
      <point x="492" y="839" type="line"/>
      <point x="595" y="936" type="line"/>
      <point x="671" y="936" type="line"/>
    </contour>
  </outline>
</glyph>
<glyph name="tcaron" format="1">
  <advance width="404"/>
  <unicode hex="0165"/>
  <outline>
    <contour>
      <point x="414" y="529" type="line"/>
      <point x="394" y="436" type="line"/>
      <point x="316" y="436" type="line"/>
      <point x="254" y="142" type="line" smooth="yes"/>
      <point x="250" y="125"/>
      <point x="248" y="113"/>
      <point x="248" y="108" type="curve" smooth="yes"/>
      <point x="248" y="93"/>
      <point x="263" y="83"/>
      <point x="286" y="83" type="curve" smooth="yes"/>
      <point x="297" y="83"/>
      <point x="305" y="84"/>
      <point x="319" y="86" type="curve"/>
      <point x="299" y="-12" type="line"/>
      <point x="271" y="-20"/>
      <point x="247" y="-23"/>
      <point x="214" y="-23" type="curve" smooth="yes"/>
      <point x="141" y="-23"/>
      <point x="101" y="8"/>
      <point x="101" y="63" type="curve" smooth="yes"/>
      <point x="101" y="76"/>
      <point x="103" y="90"/>
      <point x="106" y="104" type="curve" smooth="yes"/>
      <point x="176" y="436" type="line"/>
      <point x="107" y="436" type="line"/>
      <point x="127" y="529" type="line"/>
      <point x="196" y="529" type="line"/>
      <point x="227" y="674" type="line"/>
      <point x="367" y="674" type="line"/>
      <point x="336" y="529" type="line"/>
    </contour>
    <contour>
      <point x="456" y="829" type="line"/>
      <point x="578" y="829" type="line"/>
      <point x="557" y="733" type="line"/>
      <point x="547" y="655"/>
      <point x="480" y="588"/>
      <point x="404" y="582" type="curve"/>
      <point x="414" y="628" type="line"/>
      <point x="458" y="636"/>
      <point x="493" y="672"/>
      <point x="499" y="717" type="curve"/>
      <point x="432" y="717" type="line"/>
    </contour>
  </outline>
</glyph>
<glyph name="Tbar" format="1">
  <advance width="611"/>
  <unicode hex="0166"/>
  <outline>
    <contour>
      <point x="319" y="395" type="line"/>
      <point x="364" y="604" type="line"/>
      <point x="142" y="604" type="line"/>
      <point x="169" y="729" type="line"/>
      <point x="753" y="729" type="line"/>
      <point x="726" y="604" type="line"/>
      <point x="514" y="604" type="line"/>
      <point x="469" y="395" type="line"/>
      <point x="543" y="395" type="line"/>
      <point x="526" y="315" type="line"/>
      <point x="452" y="315" type="line"/>
      <point x="385" y="0" type="line"/>
      <point x="235" y="0" type="line"/>
      <point x="302" y="315" type="line"/>
      <point x="226" y="315" type="line"/>
      <point x="243" y="395" type="line"/>
    </contour>
  </outline>
</glyph>
<glyph name="Umacron" format="1">
  <advance width="722"/>
  <unicode hex="016A"/>
  <outline>
    <contour>
      <point x="659" y="729" type="line"/>
      <point x="809" y="729" type="line"/>
      <point x="704" y="235" type="line" smooth="yes"/>
      <point x="686" y="152"/>
      <point x="654" y="96"/>
      <point x="597" y="51" type="curve" smooth="yes"/>
      <point x="536" y="3"/>
      <point x="454" y="-23"/>
      <point x="366" y="-23" type="curve" smooth="yes"/>
      <point x="215" y="-23"/>
      <point x="119" y="51"/>
      <point x="119" y="167" type="curve" smooth="yes"/>
      <point x="119" y="189"/>
      <point x="123" y="222"/>
      <point x="130" y="255" type="curve" smooth="yes"/>
      <point x="231" y="729" type="line"/>
      <point x="381" y="729" type="line"/>
      <point x="276" y="235" type="line" smooth="yes"/>
      <point x="273" y="219"/>
      <point x="271" y="205"/>
      <point x="271" y="190" type="curve" smooth="yes"/>
      <point x="271" y="137"/>
      <point x="316" y="105"/>
      <point x="394" y="105" type="curve" smooth="yes"/>
      <point x="485" y="105"/>
      <point x="535" y="145"/>
      <point x="554" y="235" type="curve" smooth="yes"/>
    </contour>
    <contour>
      <point x="707" y="901" type="line"/>
      <point x="690" y="821" type="line"/>
      <point x="390" y="821" type="line"/>
      <point x="407" y="901" type="line"/>
    </contour>
  </outline>
</glyph>
<glyph name="Uring" format="1">
  <advance width="722"/>
  <unicode hex="016E"/>
  <outline>
    <contour>
      <point x="659" y="729" type="line"/>
      <point x="809" y="729" type="line"/>
      <point x="704" y="235" type="line" smooth="yes"/>
      <point x="686" y="152"/>
      <point x="654" y="96"/>
      <point x="597" y="51" type="curve" smooth="yes"/>
      <point x="536" y="3"/>
      <point x="454" y="-23"/>
      <point x="366" y="-23" type="curve" smooth="yes"/>
      <point x="215" y="-23"/>
      <point x="119" y="51"/>
      <point x="119" y="167" type="curve" smooth="yes"/>
      <point x="119" y="189"/>
      <point x="123" y="222"/>
      <point x="130" y="255" type="curve" smooth="yes"/>
      <point x="231" y="729" type="line"/>
      <point x="381" y="729" type="line"/>
      <point x="276" y="235" type="line" smooth="yes"/>
      <point x="273" y="219"/>
      <point x="271" y="205"/>
      <point x="271" y="190" type="curve" smooth="yes"/>
      <point x="271" y="137"/>
      <point x="316" y="105"/>
      <point x="394" y="105" type="curve" smooth="yes"/>
      <point x="485" y="105"/>
      <point x="535" y="145"/>
      <point x="554" y="235" type="curve" smooth="yes"/>
    </contour>
    <contour>
      <point x="567" y="953" type="curve" smooth="yes"/>
      <point x="609" y="953"/>
      <point x="639" y="923"/>
      <point x="639" y="882" type="curve" smooth="yes"/>
      <point x="639" y="825"/>
      <point x="585" y="773"/>
      <point x="527" y="773" type="curve" smooth="yes"/>
      <point x="485" y="773"/>
      <point x="455" y="803"/>
      <point x="455" y="844" type="curve" smooth="yes"/>
      <point x="455" y="901"/>
      <point x="509" y="953"/>
    </contour>
    <contour>
      <point x="557" y="903" type="curve" smooth="yes"/>
      <point x="530" y="903"/>
      <point x="504" y="880"/>
      <point x="504" y="855" type="curve" smooth="yes"/>
      <point x="504" y="837"/>
      <point x="518" y="823"/>
      <point x="538" y="823" type="curve" smooth="yes"/>
      <point x="565" y="823"/>
      <point x="590" y="847"/>
      <point x="590" y="872" type="curve" smooth="yes"/>
      <point x="590" y="890"/>
      <point x="576" y="903"/>
    </contour>
  </outline>
</glyph>
<glyph name="uring" format="1">
  <advance width="611"/>
  <unicode hex="016F"/>
  <outline>
    <contour>
      <point x="541" y="0" type="line"/>
      <point x="401" y="0" type="line"/>
      <point x="416" y="68" type="line"/>
      <point x="362" y="4"/>
      <point x="308" y="-23"/>
      <point x="234" y="-23" type="curve" smooth="yes"/>
      <point x="146" y="-23"/>
      <point x="88" y="29"/>
      <point x="88" y="109" type="curve" smooth="yes"/>
      <point x="88" y="127"/>
      <point x="90" y="145"/>
      <point x="94" y="164" type="curve" smooth="yes"/>
      <point x="174" y="540" type="line"/>
      <point x="314" y="540" type="line"/>
      <point x="244" y="213" type="line" smooth="yes"/>
      <point x="240" y="190"/>
      <point x="238" y="178"/>
      <point x="238" y="164" type="curve" smooth="yes"/>
      <point x="238" y="115"/>
      <point x="264" y="89"/>
      <point x="314" y="89" type="curve" smooth="yes"/>
      <point x="379" y="89"/>
      <point x="431" y="141"/>
      <point x="448" y="222" type="curve" smooth="yes"/>
      <point x="516" y="540" type="line"/>
      <point x="656" y="540" type="line"/>
    </contour>
    <contour>
      <point x="465" y="773" type="curve" smooth="yes"/>
      <point x="507" y="773"/>
      <point x="537" y="743"/>
      <point x="537" y="702" type="curve" smooth="yes"/>
      <point x="537" y="645"/>
      <point x="483" y="593"/>
      <point x="425" y="593" type="curve" smooth="yes"/>
      <point x="383" y="593"/>
      <point x="353" y="623"/>
      <point x="353" y="664" type="curve" smooth="yes"/>
      <point x="353" y="721"/>
      <point x="407" y="773"/>
    </contour>
    <contour>
      <point x="455" y="723" type="curve" smooth="yes"/>
      <point x="428" y="723"/>
      <point x="402" y="700"/>
      <point x="402" y="675" type="curve" smooth="yes"/>
      <point x="402" y="657"/>
      <point x="416" y="643"/>
      <point x="436" y="643" type="curve" smooth="yes"/>
      <point x="463" y="643"/>
      <point x="488" y="667"/>
      <point x="488" y="692" type="curve" smooth="yes"/>
      <point x="488" y="710"/>
      <point x="474" y="723"/>
    </contour>
  </outline>
</glyph>
<glyph name="Uogonek" format="1">
  <advance width="722"/>
  <unicode hex="0172"/>
  <outline>
    <contour>
      <point x="569" y="-172" type="curve"/>
      <point x="558" y="-224" type="line"/>
      <point x="528" y="-230"/>
      <point x="506" y="-233"/>
      <point x="482" y="-233" type="curve" smooth="yes"/>
      <point x="393" y="-233"/>
      <point x="342" y="-205"/>
      <point x="342" y="-157" type="curve" smooth="yes"/>
      <point x="342" y="-123"/>
      <point x="358" y="-88"/>
      <point x="389" y="-60" type="curve" smooth="yes"/>
      <point x="405" y="-45"/>
      <point x="431" y="-29"/>
      <point x="473" y="-10" type="curve"/>
      <point x="423" y="-20"/>
      <point x="400" y="-23"/>
      <point x="368" y="-23" type="curve" smooth="yes"/>
      <point x="215" y="-23"/>
      <point x="119" y="50"/>
      <point x="119" y="167" type="curve" smooth="yes"/>
      <point x="119" y="189"/>
      <point x="123" y="222"/>
      <point x="130" y="255" type="curve" smooth="yes"/>
      <point x="231" y="729" type="line"/>
      <point x="381" y="729" type="line"/>
      <point x="276" y="235" type="line" smooth="yes"/>
      <point x="273" y="219"/>
      <point x="271" y="205"/>
      <point x="271" y="190" type="curve" smooth="yes"/>
      <point x="271" y="137"/>
      <point x="316" y="105"/>
      <point x="394" y="105" type="curve" smooth="yes"/>
      <point x="485" y="105"/>
      <point x="535" y="145"/>
      <point x="554" y="235" type="curve" smooth="yes"/>
      <point x="659" y="729" type="line"/>
      <point x="809" y="729" type="line"/>
      <point x="704" y="235" type="line"/>
      <point x="682" y="138"/>
      <point x="649" y="87"/>
      <point x="571" y="28" type="curve"/>
      <point x="512" y="-18"/>
      <point x="496" y="-33"/>
      <point x="474" y="-63" type="curve" smooth="yes"/>
      <point x="452" y="-93"/>
      <point x="442" y="-117"/>
      <point x="442" y="-139" type="curve" smooth="yes"/>
      <point x="442" y="-169"/>
      <point x="460" y="-183"/>
      <point x="498" y="-183" type="curve" smooth="yes"/>
      <point x="524" y="-183"/>
      <point x="548" y="-179"/>
    </contour>
  </outline>
</glyph>
<glyph name="uogonek" format="1">
  <advance width="611"/>
  <unicode hex="0173"/>
  <outline>
    <contour>
      <point x="656" y="540" type="line"/>
      <point x="541" y="0" type="line"/>
      <point x="461" y="-41"/>
      <point x="416" y="-92"/>
      <point x="416" y="-142" type="curve" smooth="yes"/>
      <point x="416" y="-169"/>
      <point x="434" y="-183"/>
      <point x="469" y="-183" type="curve" smooth="yes"/>
      <point x="491" y="-183"/>
      <point x="515" y="-179"/>
      <point x="537" y="-172" type="curve"/>
      <point x="526" y="-224" type="line"/>
      <point x="483" y="-233"/>
      <point x="482" y="-233"/>
      <point x="456" y="-233" type="curve" smooth="yes"/>
      <point x="364" y="-233"/>
      <point x="317" y="-206"/>
      <point x="317" y="-154" type="curve" smooth="yes"/>
      <point x="317" y="-94"/>
      <point x="365" y="-45"/>
      <point x="466" y="0" type="curve"/>
      <point x="401" y="0" type="line"/>
      <point x="416" y="68" type="line"/>
      <point x="362" y="4"/>
      <point x="308" y="-23"/>
      <point x="234" y="-23" type="curve" smooth="yes"/>
      <point x="146" y="-23"/>
      <point x="88" y="29"/>
      <point x="88" y="109" type="curve" smooth="yes"/>
      <point x="88" y="127"/>
      <point x="90" y="145"/>
      <point x="94" y="164" type="curve" smooth="yes"/>
      <point x="174" y="540" type="line"/>
      <point x="314" y="540" type="line"/>
      <point x="244" y="213" type="line" smooth="yes"/>
      <point x="240" y="190"/>
      <point x="238" y="178"/>
      <point x="238" y="164" type="curve" smooth="yes"/>
      <point x="238" y="115"/>
      <point x="264" y="89"/>
      <point x="314" y="89" type="curve" smooth="yes"/>
      <point x="379" y="89"/>
      <point x="431" y="141"/>
      <point x="448" y="222" type="curve" smooth="yes"/>
      <point x="516" y="540" type="line"/>
    </contour>
  </outline>
</glyph>
<glyph name="Ydieresis" format="1">
  <advance width="667"/>
  <unicode hex="0178"/>
  <outline>
    <contour>
      <point x="477" y="270" type="line"/>
      <point x="419" y="0" type="line"/>
      <point x="269" y="0" type="line"/>
      <point x="327" y="270" type="line"/>
      <point x="182" y="729" type="line"/>
      <point x="349" y="729" type="line"/>
      <point x="431" y="414" type="line"/>
      <point x="638" y="729" type="line"/>
      <point x="805" y="729" type="line"/>
    </contour>
    <contour>
      <point x="495" y="920" type="line"/>
      <point x="469" y="800" type="line"/>
      <point x="359" y="800" type="line"/>
      <point x="385" y="920" type="line"/>
    </contour>
    <contour>
      <point x="681" y="920" type="line"/>
      <point x="655" y="800" type="line"/>
      <point x="545" y="800" type="line"/>
      <point x="571" y="920" type="line"/>
    </contour>
  </outline>
</glyph>
<glyph name="Zdotaccent" format="1">
  <advance width="611"/>
  <unicode hex="017B"/>
  <outline>
    <contour>
      <point x="733" y="729" type="line"/>
      <point x="706" y="604" type="line"/>
      <point x="232" y="125" type="line"/>
      <point x="605" y="125" type="line"/>
      <point x="578" y="0" type="line"/>
      <point x="30" y="0" type="line"/>
      <point x="57" y="125" type="line"/>
      <point x="531" y="604" type="line"/>
      <point x="158" y="604" type="line"/>
      <point x="185" y="729" type="line"/>
    </contour>
    <contour>
      <point x="549" y="918" type="line"/>
      <point x="523" y="798" type="line"/>
      <point x="413" y="798" type="line"/>
      <point x="439" y="918" type="line"/>
    </contour>
  </outline>
</glyph>
<glyph name="Zcaron" format="1">
  <advance width="611"/>
  <unicode hex="017D"/>
  <outline>
    <contour>
      <point x="733" y="729" type="line"/>
      <point x="706" y="604" type="line"/>
      <point x="232" y="125" type="line"/>
      <point x="605" y="125" type="line"/>
      <point x="578" y="0" type="line"/>
      <point x="30" y="0" type="line"/>
      <point x="57" y="125" type="line"/>
      <point x="531" y="604" type="line"/>
      <point x="158" y="604" type="line"/>
      <point x="185" y="729" type="line"/>
    </contour>
    <contour>
      <point x="523" y="789" type="line"/>
      <point x="415" y="789" type="line"/>
      <point x="344" y="936" type="line"/>
      <point x="422" y="936" type="line"/>
      <point x="483" y="839" type="line"/>
      <point x="586" y="936" type="line"/>
      <point x="662" y="936" type="line"/>
    </contour>
  </outline>
</glyph>
<glyph name="zcaron" format="1">
  <advance width="500"/>
  <unicode hex="017E"/>
  <outline>
    <contour>
      <point x="575" y="540" type="line"/>
      <point x="551" y="427" type="line"/>
      <point x="219" y="113" type="line"/>
      <point x="493" y="113" type="line"/>
      <point x="469" y="0" type="line"/>
      <point x="21" y="0" type="line"/>
      <point x="45" y="113" type="line"/>
      <point x="379" y="427" type="line"/>
      <point x="130" y="427" type="line"/>
      <point x="154" y="540" type="line"/>
    </contour>
    <contour>
      <point x="435" y="610" type="line"/>
      <point x="327" y="610" type="line"/>
      <point x="256" y="757" type="line"/>
      <point x="334" y="757" type="line"/>
      <point x="395" y="660" type="line"/>
      <point x="498" y="757" type="line"/>
      <point x="574" y="757" type="line"/>
    </contour>
  </outline>
</glyph>
<glyph name="Scommaaccent" format="1">
  <advance width="667"/>
  <unicode hex="0218"/>
  <outline>
    <contour>
      <point x="717" y="507" type="curve"/>
      <point x="577" y="507" type="line"/>
      <point x="578" y="516"/>
      <point x="579" y="525"/>
      <point x="579" y="530" type="curve" smooth="yes"/>
      <point x="579" y="584"/>
      <point x="532" y="613"/>
      <point x="447" y="613" type="curve" smooth="yes"/>
      <point x="356" y="613"/>
      <point x="300" y="573"/>
      <point x="300" y="509" type="curve" smooth="yes"/>
      <point x="300" y="471"/>
      <point x="327" y="455"/>
      <point x="421" y="436" type="curve" smooth="yes"/>
      <point x="530" y="414" type="line" smooth="yes"/>
      <point x="632" y="394"/>
      <point x="687" y="342"/>
      <point x="687" y="265" type="curve" smooth="yes"/>
      <point x="687" y="199"/>
      <point x="660" y="126"/>
      <point x="618" y="79" type="curve" smooth="yes"/>
      <point x="560" y="12"/>
      <point x="467" y="-23"/>
      <point x="345" y="-23" type="curve" smooth="yes"/>
      <point x="249" y="-23"/>
      <point x="180" y="-2"/>
      <point x="132" y="42" type="curve" smooth="yes"/>
      <point x="96" y="75"/>
      <point x="76" y="122"/>
      <point x="76" y="174" type="curve" smooth="yes"/>
      <point x="76" y="188"/>
      <point x="77" y="198"/>
      <point x="80" y="218" type="curve"/>
      <point x="226" y="218" type="line"/>
      <point x="225" y="209"/>
      <point x="224" y="200"/>
      <point x="224" y="196" type="curve" smooth="yes"/>
      <point x="224" y="138"/>
      <point x="276" y="105"/>
      <point x="367" y="105" type="curve" smooth="yes"/>
      <point x="471" y="105"/>
      <point x="538" y="149"/>
      <point x="538" y="216" type="curve" smooth="yes"/>
      <point x="538" y="262"/>
      <point x="509" y="283"/>
      <point x="418" y="301" type="curve" smooth="yes"/>
      <point x="320" y="321" type="line" smooth="yes"/>
      <point x="201" y="345"/>
      <point x="151" y="389"/>
      <point x="151" y="472" type="curve" smooth="yes"/>
      <point x="151" y="543"/>
      <point x="186" y="618"/>
      <point x="243" y="667" type="curve" smooth="yes"/>
      <point x="300" y="717"/>
      <point x="376" y="741"/>
      <point x="473" y="741" type="curve" smooth="yes"/>
      <point x="631" y="741"/>
      <point x="725" y="677"/>
      <point x="725" y="569" type="curve" smooth="yes"/>
      <point x="725" y="549"/>
      <point x="723" y="535"/>
    </contour>
    <contour>
      <point x="272" y="-60" type="line"/>
      <point x="393" y="-60" type="line"/>
      <point x="373" y="-156" type="line"/>
      <point x="362" y="-234"/>
      <point x="295" y="-301"/>
      <point x="219" y="-307" type="curve"/>
      <point x="229" y="-261" type="line"/>
      <point x="274" y="-253"/>
      <point x="309" y="-216"/>
      <point x="315" y="-172" type="curve"/>
      <point x="248" y="-172" type="line"/>
    </contour>
  </outline>
</glyph>
<glyph name="breve" format="1">
  <advance width="333"/>
  <unicode hex="02D8"/>
  <outline>
    <contour>
      <point x="413" y="754" type="curve"/>
      <point x="455" y="754" type="line"/>
      <point x="441" y="672"/>
      <point x="373" y="611"/>
      <point x="294" y="611" type="curve" smooth="yes"/>
      <point x="231" y="611"/>
      <point x="188" y="653"/>
      <point x="188" y="715" type="curve" smooth="yes"/>
      <point x="188" y="727"/>
      <point x="189" y="736"/>
      <point x="194" y="754" type="curve"/>
      <point x="236" y="754" type="line"/>
      <point x="236" y="746" type="line" smooth="yes"/>
      <point x="236" y="710"/>
      <point x="263" y="689"/>
      <point x="310" y="689" type="curve" smooth="yes"/>
      <point x="361" y="689"/>
      <point x="396" y="711"/>
    </contour>
  </outline>
</glyph>
<glyph name="dotaccent" format="1">
  <advance width="333"/>
  <unicode hex="02D9"/>
  <outline>
    <contour>
      <point x="377" y="741" type="line"/>
      <point x="351" y="621" type="line"/>
      <point x="241" y="621" type="line"/>
      <point x="267" y="741" type="line"/>
    </contour>
  </outline>
</glyph>
<glyph name="tilde" format="1">
  <advance width="333"/>
  <unicode hex="02DC"/>
  <outline>
    <contour>
      <point x="446" y="744" type="curve"/>
      <point x="500" y="744" type="line"/>
      <point x="489" y="705"/>
      <point x="478" y="683"/>
      <point x="459" y="663" type="curve" smooth="yes"/>
      <point x="434" y="637"/>
      <point x="399" y="622"/>
      <point x="367" y="622" type="curve" smooth="yes"/>
      <point x="350" y="622"/>
      <point x="329" y="627"/>
      <point x="316" y="633" type="curve" smooth="yes"/>
      <point x="266" y="658" type="line" smooth="yes"/>
      <point x="251" y="665"/>
      <point x="230" y="672"/>
      <point x="222" y="672" type="curve" smooth="yes"/>
      <point x="204" y="672"/>
      <point x="188" y="657"/>
      <point x="171" y="624" type="curve"/>
      <point x="117" y="624" type="line"/>
      <point x="140" y="699"/>
      <point x="184" y="741"/>
      <point x="238" y="741" type="curve" smooth="yes"/>
      <point x="263" y="741"/>
      <point x="277" y="738"/>
      <point x="309" y="724" type="curve" smooth="yes"/>
      <point x="359" y="703" type="line" smooth="yes"/>
      <point x="378" y="694"/>
      <point x="380" y="693"/>
      <point x="392" y="693" type="curve" smooth="yes"/>
      <point x="415" y="693"/>
      <point x="432" y="710"/>
    </contour>
  </outline>
</glyph>
<glyph name="Delta" format="1">
  <advance width="729"/>
  <unicode hex="0394"/>
  <outline>
    <contour>
      <point x="8" y="0" type="line"/>
      <point x="444" y="729" type="line"/>
      <point x="590" y="729" type="line"/>
      <point x="721" y="0" type="line"/>
    </contour>
    <contour>
      <point x="230" y="125" type="line"/>
      <point x="549" y="125" type="line"/>
      <point x="483" y="564" type="line"/>
    </contour>
  </outline>
</glyph>
<glyph name="mu" format="1">
  <advance width="611"/>
  <unicode hex="03BC"/>
  <outline>
    <contour>
      <point x="146" y="-220" type="line"/>
      <point x="11" y="-220" type="line"/>
      <point x="173" y="540" type="line"/>
      <point x="313" y="540" type="line"/>
      <point x="242" y="207" type="line" smooth="yes"/>
      <point x="238" y="188"/>
      <point x="235" y="170"/>
      <point x="235" y="161" type="curve" smooth="yes"/>
      <point x="235" y="123"/>
      <point x="264" y="99"/>
      <point x="311" y="99" type="curve" smooth="yes"/>
      <point x="378" y="99"/>
      <point x="430" y="139"/>
      <point x="443" y="202" type="curve" smooth="yes"/>
      <point x="515" y="540" type="line"/>
      <point x="655" y="540" type="line"/>
      <point x="572" y="150" type="line" smooth="yes"/>
      <point x="568" y="129"/>
      <point x="565" y="111"/>
      <point x="565" y="100" type="curve" smooth="yes"/>
      <point x="565" y="85"/>
      <point x="573" y="77"/>
      <point x="586" y="77" type="curve" smooth="yes"/>
      <point x="593" y="77"/>
      <point x="597" y="78"/>
      <point x="607" y="81" type="curve"/>
      <point x="589" y="-5" type="line"/>
      <point x="563" y="-18"/>
      <point x="543" y="-23"/>
      <point x="515" y="-23" type="curve" smooth="yes"/>
      <point x="469" y="-23"/>
      <point x="448" y="-9"/>
      <point x="432" y="32" type="curve"/>
      <point x="384" y="-9"/>
      <point x="348" y="-23"/>
      <point x="291" y="-23" type="curve" smooth="yes"/>
      <point x="246" y="-23"/>
      <point x="221" y="-13"/>
      <point x="196" y="15" type="curve"/>
    </contour>
  </outline>
</glyph>
<glyph name="afii10051" format="1">
  <advance width="807"/>
  <unicode hex="0402"/>
  <outline>
    <contour>
      <point x="469" y="-59" type="line"/>
      <point x="524" y="-59" type="line" smooth="yes"/>
      <point x="591" y="-59"/>
      <point x="603" y="-34"/>
      <point x="610" y="0" type="curve" smooth="yes"/>
      <point x="658" y="224" type="line" smooth="yes"/>
      <point x="661" y="241"/>
      <point x="664" y="257"/>
      <point x="664" y="271" type="curve" smooth="yes"/>
      <point x="664" y="307"/>
      <point x="645" y="330"/>
      <point x="578" y="330" type="curve" smooth="yes"/>
      <point x="415" y="330" type="line"/>
      <point x="345" y="0" type="line"/>
      <point x="195" y="0" type="line"/>
      <point x="323" y="604" type="line"/>
      <point x="142" y="604" type="line"/>
      <point x="169" y="729" type="line"/>
      <point x="673" y="729" type="line"/>
      <point x="646" y="604" type="line"/>
      <point x="473" y="604" type="line"/>
      <point x="441" y="455" type="line"/>
      <point x="605" y="455" type="line" smooth="yes"/>
      <point x="758" y="455"/>
      <point x="814" y="390"/>
      <point x="814" y="289" type="curve" smooth="yes"/>
      <point x="814" y="266"/>
      <point x="811" y="241"/>
      <point x="806" y="215" type="curve" smooth="yes"/>
      <point x="760" y="0" type="line" smooth="yes"/>
      <point x="740" y="-92"/>
      <point x="704" y="-166"/>
      <point x="551" y="-166" type="curve" smooth="yes"/>
      <point x="447" y="-166" type="line"/>
    </contour>
  </outline>
</glyph>
<glyph name="afii10053" format="1">
  <advance width="737"/>
  <unicode hex="0404"/>
  <outline>
    <contour>
      <point x="573" y="407" type="line"/>
      <point x="546" y="282" type="line"/>
      <point x="255" y="282" type="line"/>
      <point x="255" y="273" type="line" smooth="yes"/>
      <point x="255" y="167"/>
      <point x="310" y="105"/>
      <point x="404" y="105" type="curve" smooth="yes"/>
      <point x="456" y="105"/>
      <point x="503" y="123"/>
      <point x="538" y="158" type="curve" smooth="yes"/>
      <point x="558" y="178"/>
      <point x="570" y="197"/>
      <point x="588" y="236" type="curve"/>
      <point x="731" y="236" type="line"/>
      <point x="712" y="173"/>
      <point x="691" y="133"/>
      <point x="651" y="92" type="curve" smooth="yes"/>
      <point x="579" y="18"/>
      <point x="481" y="-23"/>
      <point x="372" y="-23" type="curve" smooth="yes"/>
      <point x="202" y="-23"/>
      <point x="106" y="77"/>
      <point x="106" y="245" type="curve" smooth="yes"/>
      <point x="106" y="512"/>
      <point x="295" y="741"/>
      <point x="530" y="741" type="curve" smooth="yes"/>
      <point x="691" y="741"/>
      <point x="787" y="656"/>
      <point x="787" y="521" type="curve" smooth="yes"/>
      <point x="787" y="505"/>
      <point x="786" y="487"/>
      <point x="783" y="469" type="curve"/>
      <point x="637" y="469" type="line"/>
      <point x="638" y="478"/>
      <point x="639" y="486"/>
      <point x="639" y="494" type="curve" smooth="yes"/>
      <point x="639" y="572"/>
      <point x="591" y="615"/>
      <point x="507" y="615" type="curve" smooth="yes"/>
      <point x="403" y="615"/>
      <point x="321" y="539"/>
      <point x="281" y="407" type="curve"/>
    </contour>
  </outline>
</glyph>
<glyph name="afii10055" format="1">
  <advance width="278"/>
  <unicode hex="0406"/>
  <outline>
    <contour>
      <point x="290" y="729" type="line"/>
      <point x="136" y="0" type="line"/>
      <point x="-14" y="0" type="line"/>
      <point x="140" y="729" type="line"/>
    </contour>
  </outline>
</glyph>
<glyph name="afii10056" format="1">
  <advance width="278"/>
  <unicode hex="0407"/>
  <outline>
    <contour>
      <point x="218" y="921" type="line"/>
      <point x="192" y="801" type="line"/>
      <point x="82" y="801" type="line"/>
      <point x="108" y="921" type="line"/>
    </contour>
    <contour>
      <point x="404" y="921" type="line"/>
      <point x="378" y="801" type="line"/>
      <point x="268" y="801" type="line"/>
      <point x="294" y="921" type="line"/>
    </contour>
    <contour>
      <point x="290" y="729" type="line"/>
      <point x="136" y="0" type="line"/>
      <point x="-14" y="0" type="line"/>
      <point x="140" y="729" type="line"/>
    </contour>
  </outline>
</glyph>
<glyph name="afii10057" format="1">
  <advance width="556"/>
  <unicode hex="0408"/>
  <outline>
    <contour>
      <point x="416" y="729" type="line"/>
      <point x="566" y="729" type="line"/>
      <point x="451" y="190" type="line" smooth="yes"/>
      <point x="422" y="54"/>
      <point x="321" y="-23"/>
      <point x="172" y="-23" type="curve" smooth="yes"/>
      <point x="103" y="-23"/>
      <point x="51" y="-3"/>
      <point x="17" y="35" type="curve"/>
      <point x="-17" y="75"/>
      <point x="-25" y="122"/>
      <point x="-9" y="198" type="curve" smooth="yes"/>
      <point x="6" y="270" type="line"/>
      <point x="156" y="270" type="line"/>
      <point x="141" y="200" type="line" smooth="yes"/>
      <point x="127" y="133"/>
      <point x="145" y="105"/>
      <point x="202" y="105" type="curve" smooth="yes"/>
      <point x="254" y="105"/>
      <point x="290" y="135"/>
      <point x="301" y="190" type="curve" smooth="yes"/>
    </contour>
  </outline>
</glyph>
<glyph name="afii10058" format="1">
  <advance width="1031"/>
  <unicode hex="0409"/>
  <outline>
    <contour>
      <point x="212" y="729" type="line"/>
      <point x="735" y="729" type="line"/>
      <point x="680" y="469" type="line"/>
      <point x="867" y="469" type="line" smooth="yes"/>
      <point x="979" y="469"/>
      <point x="1043" y="403"/>
      <point x="1043" y="296" type="curve" smooth="yes"/>
      <point x="1043" y="127"/>
      <point x="926" y="0"/>
      <point x="752" y="0" type="curve" smooth="yes"/>
      <point x="430" y="0" type="line"/>
      <point x="558" y="604" type="line"/>
      <point x="336" y="604" type="line"/>
      <point x="296" y="414" type="line" smooth="yes"/>
      <point x="259" y="240"/>
      <point x="181" y="0"/>
      <point x="-31" y="0" type="curve"/>
      <point x="-1" y="145" type="line"/>
      <point x="70" y="144"/>
      <point x="114" y="258"/>
      <point x="156" y="461" type="curve" smooth="yes"/>
    </contour>
    <contour>
      <point x="653" y="344" type="line"/>
      <point x="607" y="125" type="line"/>
      <point x="747" y="125" type="line" smooth="yes"/>
      <point x="840" y="125"/>
      <point x="891" y="188"/>
      <point x="891" y="270" type="curve" smooth="yes"/>
      <point x="891" y="320"/>
      <point x="859" y="344"/>
      <point x="793" y="344" type="curve" smooth="yes"/>
    </contour>
  </outline>
</glyph>
<glyph name="afii10059" format="1">
  <advance width="1088"/>
  <unicode hex="040A"/>
  <outline>
    <contour>
      <point x="734" y="729" type="line"/>
      <point x="679" y="469" type="line"/>
      <point x="866" y="469" type="line" smooth="yes"/>
      <point x="978" y="469"/>
      <point x="1043" y="403"/>
      <point x="1043" y="294" type="curve" smooth="yes"/>
      <point x="1043" y="125"/>
      <point x="925" y="0"/>
      <point x="752" y="0" type="curve" smooth="yes"/>
      <point x="430" y="0" type="line"/>
      <point x="503" y="342" type="line"/>
      <point x="214" y="342" type="line"/>
      <point x="141" y="0" type="line"/>
      <point x="-9" y="0" type="line"/>
      <point x="145" y="729" type="line"/>
      <point x="295" y="729" type="line"/>
      <point x="240" y="467" type="line"/>
      <point x="528" y="467" type="line"/>
      <point x="583" y="729" type="line"/>
    </contour>
    <contour>
      <point x="653" y="344" type="line"/>
      <point x="606" y="125" type="line"/>
      <point x="746" y="125" type="line" smooth="yes"/>
      <point x="839" y="125"/>
      <point x="890" y="188"/>
      <point x="890" y="270" type="curve" smooth="yes"/>
      <point x="890" y="320"/>
      <point x="859" y="344"/>
      <point x="793" y="344" type="curve" smooth="yes"/>
    </contour>
  </outline>
</glyph>
<glyph name="afii10060" format="1">
  <advance width="787"/>
  <unicode hex="040B"/>
  <outline>
    <contour>
      <point x="441" y="455" type="line"/>
      <point x="585" y="455" type="line" smooth="yes"/>
      <point x="738" y="455"/>
      <point x="794" y="390"/>
      <point x="794" y="289" type="curve" smooth="yes"/>
      <point x="794" y="266"/>
      <point x="791" y="241"/>
      <point x="786" y="215" type="curve" smooth="yes"/>
      <point x="740" y="0" type="line"/>
      <point x="590" y="0" type="line"/>
      <point x="638" y="224" type="line" smooth="yes"/>
      <point x="641" y="241"/>
      <point x="644" y="257"/>
      <point x="644" y="271" type="curve" smooth="yes"/>
      <point x="644" y="307"/>
      <point x="625" y="330"/>
      <point x="558" y="330" type="curve" smooth="yes"/>
      <point x="415" y="330" type="line"/>
      <point x="345" y="0" type="line"/>
      <point x="195" y="0" type="line"/>
      <point x="323" y="604" type="line"/>
      <point x="142" y="604" type="line"/>
      <point x="169" y="729" type="line"/>
      <point x="673" y="729" type="line"/>
      <point x="646" y="604" type="line"/>
      <point x="473" y="604" type="line"/>
    </contour>
  </outline>
</glyph>
<glyph name="uni040D" format="1">
  <advance width="722"/>
  <unicode hex="040D"/>
  <outline>
    <contour>
      <point x="403" y="951" type="line"/>
      <point x="522" y="951" type="line"/>
      <point x="567" y="801" type="line"/>
      <point x="504" y="801" type="line"/>
    </contour>
    <contour>
      <point x="218" y="0" type="line"/>
      <point x="68" y="0" type="line"/>
      <point x="223" y="729" type="line"/>
      <point x="373" y="729" type="line"/>
      <point x="268" y="233" type="line"/>
      <point x="662" y="729" type="line"/>
      <point x="816" y="729" type="line"/>
      <point x="661" y="0" type="line"/>
      <point x="511" y="0" type="line"/>
      <point x="618" y="504" type="line"/>
    </contour>
  </outline>
</glyph>
<glyph name="afii10062" format="1">
  <advance width="698"/>
  <unicode hex="040E"/>
  <outline>
    <contour>
      <point x="627" y="944" type="curve"/>
      <point x="669" y="944" type="line"/>
      <point x="655" y="862"/>
      <point x="587" y="801"/>
      <point x="508" y="801" type="curve" smooth="yes"/>
      <point x="445" y="801"/>
      <point x="402" y="843"/>
      <point x="402" y="905" type="curve" smooth="yes"/>
      <point x="402" y="917"/>
      <point x="403" y="926"/>
      <point x="408" y="944" type="curve"/>
      <point x="450" y="944" type="line"/>
      <point x="450" y="936" type="line" smooth="yes"/>
      <point x="450" y="900"/>
      <point x="477" y="879"/>
      <point x="524" y="879" type="curve" smooth="yes"/>
      <point x="575" y="879"/>
      <point x="610" y="901"/>
    </contour>
    <contour>
      <point x="310" y="0" type="line"/>
      <point x="136" y="0" type="line"/>
      <point x="298" y="226" type="line"/>
      <point x="152" y="729" type="line"/>
      <point x="315" y="729" type="line"/>
      <point x="414" y="384" type="line"/>
      <point x="659" y="729" type="line"/>
      <point x="833" y="729" type="line"/>
    </contour>
  </outline>
</glyph>
<glyph name="afii10145" format="1">
  <advance width="722"/>
  <unicode hex="040F"/>
  <outline>
    <contour>
      <point x="366" y="0" type="line"/>
      <point x="335" y="-150" type="line"/>
      <point x="205" y="-150" type="line"/>
      <point x="236" y="0" type="line"/>
      <point x="6" y="0" type="line"/>
      <point x="161" y="729" type="line"/>
      <point x="311" y="729" type="line"/>
      <point x="183" y="125" type="line"/>
      <point x="473" y="125" type="line"/>
      <point x="601" y="729" type="line"/>
      <point x="751" y="729" type="line"/>
      <point x="596" y="0" type="line"/>
    </contour>
  </outline>
</glyph>
<glyph name="afii10017" format="1">
  <advance width="722"/>
  <unicode hex="0410"/>
  <outline>
    <contour>
      <point x="532" y="147" type="line"/>
      <point x="259" y="147" type="line"/>
      <point x="179" y="0" type="line"/>
      <point x="26" y="0" type="line"/>
      <point x="440" y="729" type="line"/>
      <point x="606" y="729" type="line"/>
      <point x="703" y="0" type="line"/>
      <point x="550" y="0" type="line"/>
    </contour>
    <contour>
      <point x="518" y="272" type="line"/>
      <point x="483" y="557" type="line"/>
      <point x="328" y="272" type="line"/>
    </contour>
  </outline>
</glyph>
<glyph name="afii10018" format="1">
  <advance width="722"/>
  <unicode hex="0411"/>
  <outline>
    <contour>
      <point x="488" y="439" type="line" smooth="yes"/>
      <point x="674" y="439"/>
      <point x="715" y="330"/>
      <point x="715" y="252" type="curve" smooth="yes"/>
      <point x="715" y="163"/>
      <point x="667" y="97"/>
      <point x="605" y="53" type="curve" smooth="yes"/>
      <point x="553" y="16"/>
      <point x="494" y="0"/>
      <point x="410" y="0" type="curve" smooth="yes"/>
      <point x="82" y="0" type="line"/>
      <point x="237" y="729" type="line"/>
      <point x="749" y="729" type="line"/>
      <point x="722" y="604" type="line"/>
      <point x="360" y="604" type="line"/>
      <point x="325" y="439" type="line"/>
    </contour>
    <contour>
      <point x="299" y="314" type="line"/>
      <point x="259" y="125" type="line"/>
      <point x="438" y="125" type="line" smooth="yes"/>
      <point x="519" y="125"/>
      <point x="572" y="174"/>
      <point x="572" y="245" type="curve" smooth="yes"/>
      <point x="572" y="290"/>
      <point x="540" y="314"/>
      <point x="478" y="314" type="curve" smooth="yes"/>
    </contour>
  </outline>
</glyph>
<glyph name="afii10019" format="1">
  <advance width="723"/>
  <unicode hex="0412"/>
  <outline>
    <contour>
      <point x="82" y="0" type="line"/>
      <point x="237" y="729" type="line"/>
      <point x="562" y="729" type="line" smooth="yes"/>
      <point x="640" y="729"/>
      <point x="688" y="713"/>
      <point x="723" y="676" type="curve" smooth="yes"/>
      <point x="749" y="648"/>
      <point x="763" y="610"/>
      <point x="763" y="571" type="curve" smooth="yes"/>
      <point x="763" y="488"/>
      <point x="711" y="414"/>
      <point x="628" y="387" type="curve"/>
      <point x="696" y="360"/>
      <point x="715" y="302"/>
      <point x="715" y="247" type="curve" smooth="yes"/>
      <point x="715" y="166"/>
      <point x="664" y="95"/>
      <point x="606" y="53" type="curve" smooth="yes"/>
      <point x="554" y="16"/>
      <point x="494" y="0"/>
      <point x="410" y="0" type="curve" smooth="yes"/>
    </contour>
    <contour>
      <point x="361" y="604" type="line"/>
      <point x="326" y="439" type="line"/>
      <point x="489" y="439" type="line" smooth="yes"/>
      <point x="565" y="439"/>
      <point x="615" y="481"/>
      <point x="615" y="542" type="curve" smooth="yes"/>
      <point x="615" y="583"/>
      <point x="583" y="604"/>
      <point x="524" y="604" type="curve" smooth="yes"/>
    </contour>
    <contour>
      <point x="299" y="314" type="line"/>
      <point x="259" y="125" type="line"/>
      <point x="438" y="125" type="line" smooth="yes"/>
      <point x="519" y="125"/>
      <point x="572" y="174"/>
      <point x="572" y="245" type="curve" smooth="yes"/>
      <point x="572" y="290"/>
      <point x="540" y="314"/>
      <point x="478" y="314" type="curve" smooth="yes"/>
    </contour>
  </outline>
</glyph>
<glyph name="afii10020" format="1">
  <advance width="611"/>
  <unicode hex="0413"/>
  <outline>
    <contour>
      <point x="224" y="0" type="line"/>
      <point x="74" y="0" type="line"/>
      <point x="229" y="729" type="line"/>
      <point x="741" y="729" type="line"/>
      <point x="714" y="604" type="line"/>
      <point x="352" y="604" type="line"/>
    </contour>
  </outline>
</glyph>
<glyph name="afii10022" format="1">
  <advance width="666"/>
  <unicode hex="0415"/>
  <outline>
    <contour>
      <point x="296" y="314" type="line"/>
      <point x="256" y="125" type="line"/>
      <point x="651" y="125" type="line"/>
      <point x="624" y="0" type="line"/>
      <point x="79" y="0" type="line"/>
      <point x="234" y="729" type="line"/>
      <point x="761" y="729" type="line"/>
      <point x="734" y="604" type="line"/>
      <point x="357" y="604" type="line"/>
      <point x="322" y="439" type="line"/>
      <point x="671" y="439" type="line"/>
      <point x="645" y="314" type="line"/>
    </contour>
  </outline>
</glyph>
<glyph name="afii10025" format="1">
  <advance width="659"/>
  <unicode hex="0417"/>
  <outline>
    <contour>
      <point x="334" y="428" type="line"/>
      <point x="410" y="428" type="line" smooth="yes"/>
      <point x="522" y="428"/>
      <point x="572" y="483"/>
      <point x="572" y="542" type="curve" smooth="yes"/>
      <point x="572" y="586"/>
      <point x="531" y="621"/>
      <point x="463" y="621" type="curve" smooth="yes"/>
      <point x="368" y="621"/>
      <point x="307" y="581"/>
      <point x="286" y="507" type="curve"/>
      <point x="146" y="507" type="line"/>
      <point x="160" y="574"/>
      <point x="184" y="618"/>
      <point x="229" y="658" type="curve" smooth="yes"/>
      <point x="289" y="712"/>
      <point x="377" y="741"/>
      <point x="482" y="741" type="curve" smooth="yes"/>
      <point x="633" y="741"/>
      <point x="716" y="680"/>
      <point x="716" y="571" type="curve" smooth="yes"/>
      <point x="716" y="487"/>
      <point x="674" y="413"/>
      <point x="617" y="377" type="curve"/>
      <point x="658" y="352"/>
      <point x="677" y="317"/>
      <point x="677" y="268" type="curve" smooth="yes"/>
      <point x="677" y="56"/>
      <point x="519" y="-23"/>
      <point x="322" y="-23" type="curve" smooth="yes"/>
      <point x="156" y="-23"/>
      <point x="67" y="46"/>
      <point x="67" y="170" type="curve" smooth="yes"/>
      <point x="67" y="185"/>
      <point x="68" y="201"/>
      <point x="71" y="218" type="curve"/>
      <point x="217" y="218" type="line"/>
      <point x="216" y="211"/>
      <point x="215" y="204"/>
      <point x="215" y="197" type="curve" smooth="yes"/>
      <point x="215" y="132"/>
      <point x="268" y="97"/>
      <point x="356" y="97" type="curve" smooth="yes"/>
      <point x="455" y="97"/>
      <point x="526" y="142"/>
      <point x="526" y="223" type="curve" smooth="yes"/>
      <point x="526" y="270"/>
      <point x="496" y="308"/>
      <point x="411" y="308" type="curve" smooth="yes"/>
      <point x="309" y="308" type="line"/>
    </contour>
  </outline>
</glyph>
<glyph name="afii10026" format="1">
  <advance width="722"/>
  <unicode hex="0418"/>
  <outline>
    <contour>
      <point x="218" y="0" type="line"/>
      <point x="68" y="0" type="line"/>
      <point x="223" y="729" type="line"/>
      <point x="373" y="729" type="line"/>
      <point x="268" y="233" type="line"/>
      <point x="662" y="729" type="line"/>
      <point x="816" y="729" type="line"/>
      <point x="661" y="0" type="line"/>
      <point x="511" y="0" type="line"/>
      <point x="618" y="504" type="line"/>
    </contour>
  </outline>
</glyph>
<glyph name="afii10027" format="1">
  <advance width="722"/>
  <unicode hex="0419"/>
  <outline>
    <contour>
      <point x="654" y="944" type="curve"/>
      <point x="696" y="944" type="line"/>
      <point x="682" y="862"/>
      <point x="614" y="801"/>
      <point x="535" y="801" type="curve" smooth="yes"/>
      <point x="472" y="801"/>
      <point x="429" y="843"/>
      <point x="429" y="905" type="curve" smooth="yes"/>
      <point x="429" y="917"/>
      <point x="430" y="926"/>
      <point x="435" y="944" type="curve"/>
      <point x="477" y="944" type="line"/>
      <point x="477" y="936" type="line" smooth="yes"/>
      <point x="477" y="900"/>
      <point x="504" y="879"/>
      <point x="551" y="879" type="curve" smooth="yes"/>
      <point x="602" y="879"/>
      <point x="637" y="901"/>
    </contour>
    <contour>
      <point x="218" y="0" type="line"/>
      <point x="68" y="0" type="line"/>
      <point x="223" y="729" type="line"/>
      <point x="373" y="729" type="line"/>
      <point x="268" y="233" type="line"/>
      <point x="662" y="729" type="line"/>
      <point x="816" y="729" type="line"/>
      <point x="661" y="0" type="line"/>
      <point x="511" y="0" type="line"/>
      <point x="618" y="504" type="line"/>
    </contour>
  </outline>
</glyph>
<glyph name="afii10028" format="1">
  <advance width="720"/>
  <unicode hex="041A"/>
  <outline>
    <contour>
      <point x="224" y="0" type="line"/>
      <point x="74" y="0" type="line"/>
      <point x="229" y="729" type="line"/>
      <point x="379" y="729" type="line"/>
      <point x="320" y="450" type="line"/>
      <point x="664" y="729" type="line"/>
      <point x="841" y="729" type="line"/>
      <point x="400" y="378" type="line"/>
      <point x="725" y="0" type="line"/>
      <point x="538" y="0" type="line"/>
      <point x="285" y="285" type="line"/>
    </contour>
  </outline>
</glyph>
<glyph name="afii10029" format="1">
  <advance width="722"/>
  <unicode hex="041B"/>
  <outline>
    <contour>
      <point x="558" y="604" type="line"/>
      <point x="336" y="604" type="line"/>
      <point x="296" y="414" type="line" smooth="yes"/>
      <point x="259" y="240"/>
      <point x="181" y="0"/>
      <point x="-31" y="0" type="curve"/>
      <point x="-1" y="145" type="line"/>
      <point x="70" y="144"/>
      <point x="114" y="258"/>
      <point x="156" y="461" type="curve" smooth="yes"/>
      <point x="212" y="729" type="line"/>
      <point x="734" y="729" type="line"/>
      <point x="580" y="0" type="line"/>
      <point x="430" y="0" type="line"/>
    </contour>
  </outline>
</glyph>
<glyph name="afii10033" format="1">
  <advance width="722"/>
  <unicode hex="041F"/>
  <outline>
    <contour>
      <point x="635" y="604" type="line"/>
      <point x="346" y="604" type="line"/>
      <point x="218" y="0" type="line"/>
      <point x="68" y="0" type="line"/>
      <point x="223" y="729" type="line"/>
      <point x="812" y="729" type="line"/>
      <point x="657" y="0" type="line"/>
      <point x="507" y="0" type="line"/>
    </contour>
  </outline>
</glyph>
<glyph name="afii10034" format="1">
  <advance width="649"/>
  <unicode hex="0420"/>
  <outline>
    <contour>
      <point x="273" y="260" type="line"/>
      <point x="218" y="0" type="line"/>
      <point x="68" y="0" type="line"/>
      <point x="223" y="729" type="line"/>
      <point x="545" y="729" type="line" smooth="yes"/>
      <point x="672" y="729"/>
      <point x="739" y="673"/>
      <point x="739" y="568" type="curve" smooth="yes"/>
      <point x="739" y="401"/>
      <point x="610" y="260"/>
      <point x="460" y="260" type="curve" smooth="yes"/>
    </contour>
    <contour>
      <point x="299" y="385" type="line"/>
      <point x="439" y="385" type="line" smooth="yes"/>
      <point x="532" y="385"/>
      <point x="584" y="447"/>
      <point x="584" y="529" type="curve" smooth="yes"/>
      <point x="584" y="580"/>
      <point x="552" y="604"/>
      <point x="486" y="604" type="curve" smooth="yes"/>
      <point x="346" y="604" type="line"/>
    </contour>
  </outline>
</glyph>
<glyph name="afii10035" format="1">
  <advance width="837"/>
  <unicode hex="0421"/>
  <outline>
    <contour>
      <point x="783" y="482" type="curve"/>
      <point x="640" y="482" type="line"/>
      <point x="639" y="521"/>
      <point x="635" y="540"/>
      <point x="624" y="560" type="curve" smooth="yes"/>
      <point x="603" y="595"/>
      <point x="564" y="613"/>
      <point x="512" y="613" type="curve" smooth="yes"/>
      <point x="368" y="613"/>
      <point x="257" y="452"/>
      <point x="257" y="264" type="curve" smooth="yes"/>
      <point x="257" y="161"/>
      <point x="308" y="103"/>
      <point x="398" y="103" type="curve" smooth="yes"/>
      <point x="491" y="103"/>
      <point x="562" y="156"/>
      <point x="591" y="249" type="curve"/>
      <point x="737" y="249" type="line"/>
      <point x="692" y="82"/>
      <point x="549" y="-23"/>
      <point x="368" y="-23" type="curve" smooth="yes"/>
      <point x="201" y="-23"/>
      <point x="106" y="77"/>
      <point x="106" y="243" type="curve" smooth="yes"/>
      <point x="106" y="522"/>
      <point x="295" y="741"/>
      <point x="534" y="741" type="curve" smooth="yes"/>
      <point x="643" y="741"/>
      <point x="724" y="700"/>
      <point x="765" y="626" type="curve" smooth="yes"/>
      <point x="780" y="598"/>
      <point x="787" y="570"/>
      <point x="787" y="535" type="curve" smooth="yes"/>
      <point x="787" y="519"/>
      <point x="785" y="501"/>
    </contour>
  </outline>
</glyph>
<glyph name="afii10036" format="1">
  <advance width="611"/>
  <unicode hex="0422"/>
  <outline>
    <contour>
      <point x="513" y="604" type="line"/>
      <point x="385" y="0" type="line"/>
      <point x="235" y="0" type="line"/>
      <point x="363" y="604" type="line"/>
      <point x="142" y="604" type="line"/>
      <point x="169" y="729" type="line"/>
      <point x="753" y="729" type="line"/>
      <point x="726" y="604" type="line"/>
    </contour>
  </outline>
</glyph>
<glyph name="afii10037" format="1">
  <advance width="698"/>
  <unicode hex="0423"/>
  <outline>
    <contour>
      <point x="310" y="0" type="line"/>
      <point x="136" y="0" type="line"/>
      <point x="298" y="226" type="line"/>
      <point x="152" y="729" type="line"/>
      <point x="315" y="729" type="line"/>
      <point x="414" y="384" type="line"/>
      <point x="659" y="729" type="line"/>
      <point x="833" y="729" type="line"/>
    </contour>
  </outline>
</glyph>
<glyph name="afii10038" format="1">
  <advance width="902"/>
  <unicode hex="0424"/>
  <outline>
    <contour>
      <point x="294" y="0" type="line"/>
      <point x="314" y="94" type="line"/>
      <point x="174" y="94"/>
      <point x="23" y="103"/>
      <point x="23" y="292" type="curve" smooth="yes"/>
      <point x="23" y="561"/>
      <point x="204" y="638"/>
      <point x="429" y="638" type="curve"/>
      <point x="449" y="729" type="line"/>
      <point x="599" y="729" type="line"/>
      <point x="579" y="638" type="line"/>
      <point x="712" y="638"/>
      <point x="873" y="631"/>
      <point x="873" y="449" type="curve" smooth="yes"/>
      <point x="873" y="174"/>
      <point x="675" y="94"/>
      <point x="464" y="94" type="curve"/>
      <point x="444" y="0" type="line"/>
    </contour>
    <contour>
      <point x="334" y="188" type="curve"/>
      <point x="408" y="540" type="line"/>
      <point x="269" y="540"/>
      <point x="157" y="486"/>
      <point x="157" y="305" type="curve" smooth="yes"/>
      <point x="157" y="185"/>
      <point x="248" y="188"/>
    </contour>
    <contour>
      <point x="484" y="188" type="line"/>
      <point x="633" y="188"/>
      <point x="735" y="243"/>
      <point x="735" y="422" type="curve" smooth="yes"/>
      <point x="735" y="539"/>
      <point x="635" y="540"/>
      <point x="558" y="540" type="curve"/>
    </contour>
  </outline>
</glyph>
<glyph name="afii10039" format="1">
  <advance width="664"/>
  <unicode hex="0425"/>
  <outline>
    <contour>
      <point x="480" y="367" type="line"/>
      <point x="622" y="0" type="line"/>
      <point x="454" y="0" type="line"/>
      <point x="370" y="223" type="line"/>
      <point x="196" y="0" type="line"/>
      <point x="22" y="0" type="line"/>
      <point x="311" y="370" type="line"/>
      <point x="173" y="729" type="line"/>
      <point x="351" y="729" type="line"/>
      <point x="427" y="509" type="line"/>
      <point x="607" y="729" type="line"/>
      <point x="774" y="729" type="line"/>
    </contour>
  </outline>
</glyph>
<glyph name="afii10042" format="1">
  <advance width="1101"/>
  <unicode hex="0428"/>
  <outline>
    <contour>
      <point x="1036" y="0" type="line"/>
      <point x="68" y="0" type="line"/>
      <point x="223" y="729" type="line"/>
      <point x="373" y="729" type="line"/>
      <point x="245" y="125" type="line"/>
      <point x="504" y="125" type="line"/>
      <point x="632" y="729" type="line"/>
      <point x="782" y="729" type="line"/>
      <point x="654" y="125" type="line"/>
      <point x="913" y="125" type="line"/>
      <point x="1041" y="729" type="line"/>
      <point x="1191" y="729" type="line"/>
    </contour>
  </outline>
</glyph>
<glyph name="afii10043" format="1">
  <advance width="1179"/>
  <unicode hex="0429"/>
  <outline>
    <contour>
      <point x="1046" y="0" type="line"/>
      <point x="68" y="0" type="line"/>
      <point x="223" y="729" type="line"/>
      <point x="373" y="729" type="line"/>
      <point x="245" y="125" type="line"/>
      <point x="504" y="125" type="line"/>
      <point x="632" y="729" type="line"/>
      <point x="782" y="729" type="line"/>
      <point x="654" y="125" type="line"/>
      <point x="913" y="125" type="line"/>
      <point x="1041" y="729" type="line"/>
      <point x="1191" y="729" type="line"/>
      <point x="1059" y="108" type="line"/>
      <point x="1199" y="108" type="line"/>
      <point x="1144" y="-150" type="line"/>
      <point x="1014" y="-150" type="line"/>
    </contour>
  </outline>
</glyph>
<glyph name="afii10044" format="1">
  <advance width="816"/>
  <unicode hex="042A"/>
  <outline>
    <contour>
      <point x="493" y="469" type="line"/>
      <point x="680" y="469" type="line" smooth="yes"/>
      <point x="792" y="469"/>
      <point x="856" y="403"/>
      <point x="856" y="296" type="curve" smooth="yes"/>
      <point x="856" y="127"/>
      <point x="739" y="0"/>
      <point x="565" y="0" type="curve" smooth="yes"/>
      <point x="243" y="0" type="line"/>
      <point x="372" y="604" type="line"/>
      <point x="142" y="604" type="line"/>
      <point x="168" y="729" type="line"/>
      <point x="548" y="729" type="line"/>
    </contour>
    <contour>
      <point x="466" y="344" type="line"/>
      <point x="420" y="125" type="line"/>
      <point x="560" y="125" type="line" smooth="yes"/>
      <point x="653" y="125"/>
      <point x="704" y="188"/>
      <point x="704" y="270" type="curve" smooth="yes"/>
      <point x="704" y="320"/>
      <point x="672" y="344"/>
      <point x="606" y="344" type="curve" smooth="yes"/>
    </contour>
  </outline>
</glyph>
<glyph name="afii10047" format="1">
  <advance width="737"/>
  <unicode hex="042D"/>
  <outline>
    <contour>
      <point x="320" y="311" type="line"/>
      <point x="347" y="436" type="line"/>
      <point x="638" y="436" type="line"/>
      <point x="638" y="445" type="line" smooth="yes"/>
      <point x="638" y="551"/>
      <point x="583" y="613"/>
      <point x="489" y="613" type="curve" smooth="yes"/>
      <point x="437" y="613"/>
      <point x="390" y="595"/>
      <point x="355" y="560" type="curve" smooth="yes"/>
      <point x="335" y="540"/>
      <point x="323" y="521"/>
      <point x="305" y="482" type="curve"/>
      <point x="162" y="482" type="line"/>
      <point x="181" y="545"/>
      <point x="202" y="585"/>
      <point x="242" y="626" type="curve" smooth="yes"/>
      <point x="314" y="700"/>
      <point x="412" y="741"/>
      <point x="521" y="741" type="curve" smooth="yes"/>
      <point x="691" y="741"/>
      <point x="787" y="641"/>
      <point x="787" y="473" type="curve" smooth="yes"/>
      <point x="787" y="206"/>
      <point x="598" y="-23"/>
      <point x="363" y="-23" type="curve" smooth="yes"/>
      <point x="202" y="-23"/>
      <point x="106" y="62"/>
      <point x="106" y="197" type="curve" smooth="yes"/>
      <point x="106" y="213"/>
      <point x="107" y="231"/>
      <point x="110" y="249" type="curve"/>
      <point x="256" y="249" type="line"/>
      <point x="255" y="240"/>
      <point x="254" y="232"/>
      <point x="254" y="224" type="curve" smooth="yes"/>
      <point x="254" y="146"/>
      <point x="302" y="103"/>
      <point x="386" y="103" type="curve" smooth="yes"/>
      <point x="490" y="103"/>
      <point x="572" y="179"/>
      <point x="612" y="311" type="curve"/>
    </contour>
  </outline>
</glyph>
<glyph name="afii10048" format="1">
  <advance width="1087"/>
  <unicode hex="042E"/>
  <outline>
    <contour>
      <point x="448" y="436" type="line"/>
      <point x="478" y="515"/>
      <point x="527" y="587"/>
      <point x="588" y="640" type="curve" smooth="yes"/>
      <point x="664" y="707"/>
      <point x="755" y="741"/>
      <point x="857" y="741" type="curve" smooth="yes"/>
      <point x="962" y="741"/>
      <point x="1036" y="709"/>
      <point x="1086" y="640" type="curve" smooth="yes"/>
      <point x="1120" y="592"/>
      <point x="1138" y="529"/>
      <point x="1138" y="457" type="curve" smooth="yes"/>
      <point x="1138" y="287"/>
      <point x="1062" y="161"/>
      <point x="966" y="78" type="curve"/>
      <point x="889" y="10"/>
      <point x="800" y="-23"/>
      <point x="696" y="-23" type="curve" smooth="yes"/>
      <point x="592" y="-23"/>
      <point x="517" y="10"/>
      <point x="468" y="78" type="curve" smooth="yes"/>
      <point x="434" y="125"/>
      <point x="416" y="189"/>
      <point x="416" y="258" type="curve" smooth="yes"/>
      <point x="416" y="275"/>
      <point x="417" y="293"/>
      <point x="419" y="311" type="curve"/>
      <point x="283" y="311" type="line"/>
      <point x="216" y="0" type="line"/>
      <point x="66" y="0" type="line"/>
      <point x="221" y="729" type="line"/>
      <point x="371" y="729" type="line"/>
      <point x="309" y="436" type="line"/>
    </contour>
    <contour>
      <point x="831" y="613" type="curve" smooth="yes"/>
      <point x="689" y="613"/>
      <point x="567" y="456"/>
      <point x="567" y="280" type="curve" smooth="yes"/>
      <point x="567" y="172"/>
      <point x="623" y="105"/>
      <point x="723" y="105" type="curve" smooth="yes"/>
      <point x="866" y="105"/>
      <point x="987" y="261"/>
      <point x="987" y="439" type="curve" smooth="yes"/>
      <point x="987" y="548"/>
      <point x="930" y="613"/>
    </contour>
  </outline>
</glyph>
<glyph name="afii10049" format="1">
  <advance width="690"/>
  <unicode hex="042F"/>
  <outline>
    <contour>
      <point x="505" y="260" type="line"/>
      <point x="201" y="0" type="line"/>
      <point x="22" y="0" type="line"/>
      <point x="323" y="261" type="line"/>
      <point x="231" y="270"/>
      <point x="175" y="330"/>
      <point x="175" y="435" type="curve" smooth="yes"/>
      <point x="175" y="603"/>
      <point x="293" y="729"/>
      <point x="466" y="729" type="curve" smooth="yes"/>
      <point x="788" y="729" type="line"/>
      <point x="633" y="0" type="line"/>
      <point x="483" y="0" type="line"/>
      <point x="538" y="260" type="line"/>
    </contour>
    <contour>
      <point x="565" y="385" type="line"/>
      <point x="611" y="604" type="line"/>
      <point x="471" y="604" type="line" smooth="yes"/>
      <point x="378" y="604"/>
      <point x="327" y="541"/>
      <point x="327" y="459" type="curve" smooth="yes"/>
      <point x="327" y="409"/>
      <point x="359" y="385"/>
      <point x="425" y="385" type="curve" smooth="yes"/>
    </contour>
  </outline>
</glyph>
<glyph name="afii10066" format="1">
  <advance width="611"/>
  <unicode hex="0431"/>
  <outline>
    <contour>
      <point x="583" y="776" type="curve"/>
      <point x="687" y="777" type="line"/>
      <point x="678" y="736"/>
      <point x="668" y="690"/>
      <point x="630" y="666" type="curve" smooth="yes"/>
      <point x="534" y="606"/>
      <point x="463" y="655"/>
      <point x="369" y="592" type="curve" smooth="yes"/>
      <point x="316" y="557"/>
      <point x="269" y="470"/>
      <point x="269" y="470" type="curve" smooth="yes"/>
      <point x="314" y="524"/>
      <point x="367" y="549"/>
      <point x="434" y="549" type="curve" smooth="yes"/>
      <point x="500" y="549"/>
      <point x="559" y="515"/>
      <point x="585" y="462" type="curve" smooth="yes"/>
      <point x="601" y="429"/>
      <point x="609" y="387"/>
      <point x="609" y="342" type="curve" smooth="yes"/>
      <point x="609" y="140"/>
      <point x="466" y="-23"/>
      <point x="280" y="-23" type="curve" smooth="yes"/>
      <point x="152" y="-23"/>
      <point x="76" y="37"/>
      <point x="76" y="176" type="curve" smooth="yes"/>
      <point x="76" y="328"/>
      <point x="164" y="596"/>
      <point x="321" y="684" type="curve" smooth="yes"/>
      <point x="372" y="712"/>
      <point x="453" y="716"/>
      <point x="520" y="724" type="curve" smooth="yes"/>
      <point x="568" y="730"/>
      <point x="583" y="776"/>
    </contour>
    <contour>
      <point x="379" y="432" type="curve" smooth="yes"/>
      <point x="294" y="432"/>
      <point x="218" y="322"/>
      <point x="218" y="206" type="curve" smooth="yes"/>
      <point x="218" y="137"/>
      <point x="251" y="94"/>
      <point x="307" y="94" type="curve" smooth="yes"/>
      <point x="391" y="94"/>
      <point x="467" y="205"/>
      <point x="467" y="319" type="curve" smooth="yes"/>
      <point x="467" y="388"/>
      <point x="434" y="432"/>
    </contour>
  </outline>
</glyph>
<glyph name="afii10067" format="1">
  <advance width="616"/>
  <unicode hex="0432"/>
  <outline>
    <contour>
      <point x="60" y="0" type="line"/>
      <point x="175" y="540" type="line"/>
      <point x="453" y="540" type="line" smooth="yes"/>
      <point x="548" y="540"/>
      <point x="602" y="499"/>
      <point x="602" y="423" type="curve" smooth="yes"/>
      <point x="602" y="361"/>
      <point x="580" y="310"/>
      <point x="512" y="286" type="curve"/>
      <point x="558" y="264"/>
      <point x="576" y="223"/>
      <point x="576" y="182" type="curve" smooth="yes"/>
      <point x="576" y="77"/>
      <point x="478" y="0"/>
      <point x="351" y="0" type="curve" smooth="yes"/>
    </contour>
    <contour>
      <point x="291" y="430" type="line"/>
      <point x="271" y="333" type="line"/>
      <point x="377" y="333" type="line" smooth="yes"/>
      <point x="435" y="333"/>
      <point x="463" y="350"/>
      <point x="463" y="393" type="curve" smooth="yes"/>
      <point x="463" y="421"/>
      <point x="441" y="430"/>
      <point x="397" y="430" type="curve" smooth="yes"/>
    </contour>
    <contour>
      <point x="247" y="223" type="line"/>
      <point x="223" y="110" type="line"/>
      <point x="345" y="110" type="line" smooth="yes"/>
      <point x="407" y="110"/>
      <point x="439" y="135"/>
      <point x="439" y="183" type="curve" smooth="yes"/>
      <point x="439" y="213"/>
      <point x="415" y="223"/>
      <point x="369" y="223" type="curve" smooth="yes"/>
    </contour>
  </outline>
</glyph>
<glyph name="afii10069" format="1">
  <advance width="804"/>
  <unicode hex="0434"/>
  <outline>
    <contour>
      <point x="638" y="101" type="line"/>
      <point x="730" y="101" type="line"/>
      <point x="682" y="-125" type="line"/>
      <point x="572" y="-125" type="line"/>
      <point x="599" y="0" type="line"/>
      <point x="115" y="0" type="line"/>
      <point x="88" y="-125" type="line"/>
      <point x="-22" y="-125" type="line"/>
      <point x="26" y="101" type="line"/>
      <point x="122" y="101" type="line"/>
      <point x="176" y="102"/>
      <point x="230" y="248"/>
      <point x="243" y="308" type="curve" smooth="yes"/>
      <point x="293" y="540" type="line"/>
      <point x="732" y="540" type="line"/>
    </contour>
    <contour>
      <point x="303" y="113" type="curve"/>
      <point x="501" y="113" type="line"/>
      <point x="568" y="427" type="line"/>
      <point x="409" y="427" type="line"/>
      <point x="381" y="296" type="line" smooth="yes"/>
      <point x="369" y="242"/>
      <point x="344" y="158"/>
    </contour>
  </outline>
</glyph>
<glyph name="afii10073" format="1">
  <advance width="556"/>
  <unicode hex="0437"/>
  <outline>
    <contour>
      <point x="247" y="208" type="line"/>
      <point x="271" y="318" type="line"/>
      <point x="360" y="318" type="line" smooth="yes"/>
      <point x="433" y="318"/>
      <point x="441" y="361"/>
      <point x="441" y="391" type="curve" smooth="yes"/>
      <point x="441" y="416"/>
      <point x="414" y="439"/>
      <point x="369" y="439" type="curve" smooth="yes"/>
      <point x="302" y="439"/>
      <point x="269" y="415"/>
      <point x="258" y="366" type="curve"/>
      <point x="123" y="366" type="line"/>
      <point x="149" y="480"/>
      <point x="247" y="549"/>
      <point x="392" y="549" type="curve" smooth="yes"/>
      <point x="512" y="549"/>
      <point x="580" y="496"/>
      <point x="580" y="409" type="curve" smooth="yes"/>
      <point x="580" y="349"/>
      <point x="557" y="296"/>
      <point x="516" y="271" type="curve"/>
      <point x="542" y="252"/>
      <point x="555" y="229"/>
      <point x="555" y="196" type="curve" smooth="yes"/>
      <point x="555" y="64"/>
      <point x="432" y="-23"/>
      <point x="276" y="-23" type="curve" smooth="yes"/>
      <point x="131" y="-23"/>
      <point x="56" y="28"/>
      <point x="56" y="119" type="curve" smooth="yes"/>
      <point x="56" y="131"/>
      <point x="57" y="143"/>
      <point x="60" y="157" type="curve"/>
      <point x="197" y="157" type="line"/>
      <point x="197" y="149" type="line" smooth="yes"/>
      <point x="197" y="92"/>
      <point x="247" y="87"/>
      <point x="292" y="87" type="curve" smooth="yes"/>
      <point x="365" y="87"/>
      <point x="410" y="109"/>
      <point x="410" y="163" type="curve" smooth="yes"/>
      <point x="410" y="185"/>
      <point x="399" y="208"/>
      <point x="339" y="208" type="curve" smooth="yes"/>
    </contour>
  </outline>
</glyph>
<glyph name="afii10075" format="1">
  <advance width="636"/>
  <unicode hex="0439"/>
  <outline>
    <contour>
      <point x="549" y="754" type="curve"/>
      <point x="591" y="754" type="line"/>
      <point x="577" y="672"/>
      <point x="509" y="611"/>
      <point x="430" y="611" type="curve" smooth="yes"/>
      <point x="367" y="611"/>
      <point x="324" y="653"/>
      <point x="324" y="715" type="curve" smooth="yes"/>
      <point x="324" y="727"/>
      <point x="325" y="736"/>
      <point x="330" y="754" type="curve"/>
      <point x="372" y="754" type="line"/>
      <point x="372" y="746" type="line" smooth="yes"/>
      <point x="372" y="710"/>
      <point x="399" y="689"/>
      <point x="446" y="689" type="curve" smooth="yes"/>
      <point x="497" y="689"/>
      <point x="532" y="711"/>
    </contour>
    <contour>
      <point x="175" y="540" type="line"/>
      <point x="315" y="540" type="line"/>
      <point x="242" y="197" type="line"/>
      <point x="503" y="540" type="line"/>
      <point x="658" y="540" type="line"/>
      <point x="543" y="0" type="line"/>
      <point x="403" y="0" type="line"/>
      <point x="476" y="343" type="line"/>
      <point x="215" y="0" type="line"/>
      <point x="60" y="0" type="line"/>
    </contour>
  </outline>
</glyph>
<glyph name="afii10077" format="1">
  <advance width="608"/>
  <unicode hex="043B"/>
  <outline>
    <contour>
      <point x="161" y="540" type="line"/>
      <point x="600" y="540" type="line"/>
      <point x="486" y="0" type="line"/>
      <point x="346" y="0" type="line"/>
      <point x="436" y="427" type="line"/>
      <point x="277" y="427" type="line"/>
      <point x="250" y="296" type="line" smooth="yes"/>
      <point x="216" y="133"/>
      <point x="125" y="0"/>
      <point x="-28" y="0" type="curve"/>
      <point x="0" y="135" type="line"/>
      <point x="74" y="136"/>
      <point x="94" y="224"/>
      <point x="112" y="308" type="curve" smooth="yes"/>
    </contour>
  </outline>
</glyph>
<glyph name="afii10078" format="1">
  <advance width="697"/>
  <unicode hex="043C"/>
  <outline>
    <contour>
      <point x="313" y="74" type="line"/>
      <point x="255" y="257" type="line"/>
      <point x="200" y="0" type="line"/>
      <point x="60" y="0" type="line"/>
      <point x="175" y="540" type="line"/>
      <point x="315" y="540" type="line"/>
      <point x="388" y="262" type="line"/>
      <point x="579" y="540" type="line"/>
      <point x="719" y="540" type="line"/>
      <point x="604" y="0" type="line"/>
      <point x="464" y="0" type="line"/>
      <point x="519" y="257" type="line"/>
      <point x="383" y="74" type="line"/>
    </contour>
  </outline>
</glyph>
<glyph name="afii10080" format="1">
  <advance width="611"/>
  <unicode hex="043E"/>
  <outline>
    <contour>
      <point x="418" y="549" type="curve" smooth="yes"/>
      <point x="558" y="549"/>
      <point x="635" y="475"/>
      <point x="635" y="345" type="curve" smooth="yes"/>
      <point x="635" y="140"/>
      <point x="487" y="-23"/>
      <point x="298" y="-23" type="curve" smooth="yes"/>
      <point x="159" y="-23"/>
      <point x="82" y="52"/>
      <point x="82" y="181" type="curve" smooth="yes"/>
      <point x="82" y="385"/>
      <point x="231" y="549"/>
    </contour>
    <contour>
      <point x="395" y="436" type="curve" smooth="yes"/>
      <point x="305" y="436"/>
      <point x="225" y="326"/>
      <point x="225" y="207" type="curve" smooth="yes"/>
      <point x="225" y="136"/>
      <point x="261" y="90"/>
      <point x="322" y="90" type="curve" smooth="yes"/>
      <point x="412" y="90"/>
      <point x="491" y="199"/>
      <point x="491" y="319" type="curve" smooth="yes"/>
      <point x="491" y="392"/>
      <point x="457" y="436"/>
    </contour>
  </outline>
</glyph>
<glyph name="afii10082" format="1">
  <advance width="611"/>
  <unicode hex="0440"/>
  <outline>
    <contour>
      <point x="278" y="540" type="line"/>
      <point x="261" y="460" type="line"/>
      <point x="307" y="520"/>
      <point x="362" y="549"/>
      <point x="430" y="549" type="curve" smooth="yes"/>
      <point x="495" y="549"/>
      <point x="554" y="515"/>
      <point x="579" y="464" type="curve" smooth="yes"/>
      <point x="595" y="432"/>
      <point x="604" y="391"/>
      <point x="604" y="345" type="curve" smooth="yes"/>
      <point x="604" y="146"/>
      <point x="457" y="-24"/>
      <point x="308" y="-24" type="curve" smooth="yes"/>
      <point x="240" y="-24"/>
      <point x="198" y="4"/>
      <point x="176" y="64" type="curve"/>
      <point x="116" y="-218" type="line"/>
      <point x="-24" y="-218" type="line"/>
      <point x="138" y="540" type="line"/>
    </contour>
    <contour>
      <point x="373" y="432" type="curve" smooth="yes"/>
      <point x="288" y="432"/>
      <point x="212" y="320"/>
      <point x="212" y="205" type="curve" smooth="yes"/>
      <point x="212" y="136"/>
      <point x="245" y="93"/>
      <point x="301" y="93" type="curve" smooth="yes"/>
      <point x="383" y="93"/>
      <point x="461" y="202"/>
      <point x="461" y="320" type="curve" smooth="yes"/>
      <point x="461" y="389"/>
      <point x="429" y="432"/>
    </contour>
  </outline>
</glyph>
<glyph name="afii10083" format="1">
  <advance width="554"/>
  <unicode hex="0441"/>
  <outline>
    <contour>
      <point x="592" y="338" type="curve"/>
      <point x="458" y="338" type="line"/>
      <point x="457" y="409"/>
      <point x="436" y="436"/>
      <point x="379" y="436" type="curve" smooth="yes"/>
      <point x="339" y="436"/>
      <point x="305" y="420"/>
      <point x="282" y="390" type="curve" smooth="yes"/>
      <point x="250" y="348"/>
      <point x="220" y="271"/>
      <point x="220" y="197" type="curve" smooth="yes"/>
      <point x="220" y="129"/>
      <point x="248" y="90"/>
      <point x="306" y="90" type="curve" smooth="yes"/>
      <point x="360" y="90"/>
      <point x="393" y="117"/>
      <point x="426" y="187" type="curve"/>
      <point x="560" y="187" type="line"/>
      <point x="520" y="58"/>
      <point x="412" y="-23"/>
      <point x="281" y="-23" type="curve" smooth="yes"/>
      <point x="149" y="-23"/>
      <point x="77" y="52"/>
      <point x="77" y="173" type="curve" smooth="yes"/>
      <point x="77" y="376"/>
      <point x="218" y="549"/>
      <point x="404" y="549" type="curve" smooth="yes"/>
      <point x="525" y="549"/>
      <point x="595" y="485"/>
      <point x="595" y="377" type="curve" smooth="yes"/>
      <point x="595" y="365"/>
      <point x="594" y="352"/>
    </contour>
  </outline>
</glyph>
